<svg width="1360" height="5331" viewBox="0 0 1360 5331" fill="none" xmlns="http://www.w3.org/2000/svg">
<path fill-rule="evenodd" clip-rule="evenodd" d="M680 28.9961C680 12.9798 667.016 -0.00390625 651 -0.00390625H29C12.9837 -0.00390625 0 12.9798 0 28.9961V1080.22C0 1096.23 12.9837 1109.22 29 1109.22H651C667.016 1109.22 680 1122.2 680 1138.22V1388.22C680 1404.23 667.016 1417.22 651 1417.22H29C12.9837 1417.22 0 1430.2 0 1446.22V2277.1V2327.22V3391.75C0 3407.77 12.9837 3420.75 29 3420.75H651C667.016 3420.75 680 3433.74 680 3449.75V4278.09C680 4294.11 667.016 4307.09 651 4307.09H29C12.9837 4307.09 0 4320.08 0 4336.09V5301.09C0 5317.11 12.9837 5330.09 29 5330.09H1331C1347.02 5330.09 1360 5317.11 1360 5301.09V4369.44V4307.09V3420.75V3350.72V2306.1C1360 2290.08 1347.02 2277.1 1331 2277.1H709C692.984 2277.1 680 2264.11 680 2248.1V1742.22C680 1726.2 692.984 1713.22 709 1713.22H1331C1347.02 1713.22 1360 1700.23 1360 1684.22V832.218C1360 816.202 1347.02 803.218 1331 803.218H709C692.984 803.218 680 790.234 680 774.218V28.9961Z" fill="#0C223D"/>
</svg>
