<svg width="49" height="78" viewBox="0 0 49 78" fill="none" xmlns="http://www.w3.org/2000/svg">
<path d="M23.9925 0.627637C24.2908 0.1111 25.0363 0.1111 25.3346 0.627637L34.8628 17.131C35.161 17.6475 34.7882 18.2932 34.1918 18.2932H15.1353C14.5389 18.2932 14.1661 17.6475 14.4643 17.131L23.9925 0.627637Z" fill="#5ED6A4"/>
<path fill-rule="evenodd" clip-rule="evenodd" d="M21.8071 39.5224C21.9455 39.2827 21.9455 38.9873 21.8071 38.7476L11.8315 21.4694C11.5333 20.9529 10.7877 20.9529 10.4895 21.4694L0.51396 38.7476C0.375555 38.9873 0.375555 39.2827 0.51396 39.5224L10.4895 56.8006C10.7877 57.3171 11.5333 57.3171 11.8315 56.8006L21.8071 39.5224Z" fill="#5ED6A4"/>
<path fill-rule="evenodd" clip-rule="evenodd" d="M48.5375 39.5224C48.6759 39.2827 48.6759 38.9873 48.5375 38.7476L38.562 21.4694C38.2638 20.9529 37.5182 20.9529 37.22 21.4694L27.2444 38.7476C27.106 38.9873 27.106 39.2827 27.2444 39.5224L37.22 56.8006C37.5182 57.3171 38.2638 57.3171 38.562 56.8006L48.5375 39.5224Z" fill="#5ED6A4"/>
<path d="M23.9925 77.5657C24.2908 78.0823 25.0363 78.0823 25.3346 77.5657L34.8628 61.0624C35.161 60.5458 34.7882 59.9002 34.1918 59.9002H15.1353C14.5389 59.9002 14.1661 60.5458 14.4643 61.0624L23.9925 77.5657Z" fill="#5ED6A4"/>
<path fill-rule="evenodd" clip-rule="evenodd" d="M24.3309 38.7483C24.4693 38.988 24.4693 39.2834 24.3309 39.5231L14.4448 56.6463C14.1466 57.1628 14.5194 57.8085 15.1158 57.8085H34.1722C34.7687 57.8085 35.1415 57.1628 34.8432 56.6463L24.9572 39.5231C24.8187 39.2834 24.8187 38.988 24.9572 38.7483L34.8432 21.6251C35.1415 21.1086 34.7687 20.4629 34.1722 20.4629H15.1158C14.5194 20.4629 14.1466 21.1086 14.4448 21.6251L24.3309 38.7483Z" fill="#5ED6A4"/>
</svg>
