<svg width="615" height="327" viewBox="0 0 615 327" fill="none" xmlns="http://www.w3.org/2000/svg">
<rect x="0.511719" y="0.859375" width="613.922" height="325.9" rx="29" fill="#E9EDFA"/>
<path d="M17.5966 119.988V121.283H11.9966V119.988H14.0476V114.087C14.0476 113.854 14.0546 113.614 14.0686 113.366L12.6126 114.584C12.5286 114.65 12.4446 114.692 12.3606 114.71C12.2812 114.724 12.2042 114.724 12.1296 114.71C12.0596 114.696 11.9966 114.673 11.9406 114.64C11.8846 114.603 11.8426 114.563 11.8146 114.521L11.2686 113.772L14.3556 111.147H15.7766V119.988H17.5966ZM19.2287 113.982C19.2987 113.497 19.434 113.072 19.6347 112.708C19.8353 112.34 20.085 112.034 20.3837 111.791C20.687 111.544 21.0323 111.36 21.4197 111.238C21.8117 111.112 22.2317 111.049 22.6797 111.049C23.1463 111.049 23.5663 111.117 23.9397 111.252C24.3177 111.383 24.6397 111.567 24.9057 111.805C25.1717 112.039 25.3747 112.314 25.5147 112.631C25.6593 112.949 25.7317 113.292 25.7317 113.66C25.7317 113.982 25.6943 114.267 25.6197 114.514C25.5497 114.757 25.447 114.969 25.3117 115.151C25.1763 115.333 25.0083 115.487 24.8077 115.613C24.607 115.739 24.3807 115.844 24.1287 115.928C24.7353 116.12 25.188 116.411 25.4867 116.803C25.7853 117.195 25.9347 117.688 25.9347 118.28C25.9347 118.784 25.8413 119.23 25.6547 119.617C25.468 120.005 25.216 120.331 24.8987 120.597C24.5813 120.859 24.2127 121.057 23.7927 121.192C23.3773 121.328 22.9363 121.395 22.4697 121.395C21.961 121.395 21.5177 121.337 21.1397 121.22C20.7617 121.104 20.4327 120.931 20.1527 120.702C19.8727 120.474 19.6347 120.194 19.4387 119.862C19.2427 119.531 19.0747 119.148 18.9347 118.714L19.6977 118.399C19.8983 118.315 20.085 118.294 20.2577 118.336C20.435 118.374 20.5633 118.467 20.6427 118.616C20.7267 118.78 20.8177 118.941 20.9157 119.099C21.0183 119.258 21.1397 119.4 21.2797 119.526C21.4197 119.648 21.583 119.748 21.7697 119.827C21.961 119.902 22.1873 119.939 22.4487 119.939C22.7427 119.939 22.9993 119.893 23.2187 119.799C23.438 119.701 23.62 119.575 23.7647 119.421C23.914 119.267 24.0237 119.097 24.0937 118.91C24.1683 118.719 24.2057 118.528 24.2057 118.336C24.2057 118.094 24.18 117.874 24.1287 117.678C24.0773 117.478 23.97 117.307 23.8067 117.167C23.6433 117.027 23.4077 116.918 23.0997 116.838C22.7963 116.759 22.388 116.719 21.8747 116.719V115.487C22.2993 115.483 22.6517 115.443 22.9317 115.368C23.2117 115.294 23.4333 115.191 23.5967 115.06C23.7647 114.925 23.8813 114.764 23.9467 114.577C24.012 114.391 24.0447 114.185 24.0447 113.961C24.0447 113.485 23.9117 113.124 23.6457 112.876C23.3797 112.629 23.025 112.505 22.5817 112.505C22.3763 112.505 22.1873 112.536 22.0147 112.596C21.842 112.652 21.6857 112.734 21.5457 112.841C21.4103 112.944 21.296 113.065 21.2027 113.205C21.1093 113.345 21.0393 113.499 20.9927 113.667C20.9133 113.882 20.8083 114.024 20.6777 114.094C20.5517 114.164 20.372 114.181 20.1387 114.143L19.2287 113.982ZM27.3358 120.331C27.3358 120.187 27.3614 120.049 27.4128 119.918C27.4688 119.788 27.5434 119.676 27.6368 119.582C27.7301 119.489 27.8421 119.414 27.9728 119.358C28.1034 119.302 28.2434 119.274 28.3927 119.274C28.5421 119.274 28.6798 119.302 28.8058 119.358C28.9364 119.414 29.0484 119.489 29.1418 119.582C29.2398 119.676 29.3168 119.788 29.3728 119.918C29.4288 120.049 29.4568 120.187 29.4568 120.331C29.4568 120.481 29.4288 120.621 29.3728 120.751C29.3168 120.877 29.2398 120.987 29.1418 121.08C29.0484 121.174 28.9364 121.246 28.8058 121.297C28.6798 121.353 28.5421 121.381 28.3927 121.381C28.2434 121.381 28.1034 121.353 27.9728 121.297C27.8421 121.246 27.7301 121.174 27.6368 121.08C27.5434 120.987 27.4688 120.877 27.4128 120.751C27.3614 120.621 27.3358 120.481 27.3358 120.331ZM27.3358 115.34C27.3358 115.196 27.3614 115.058 27.4128 114.927C27.4688 114.797 27.5434 114.685 27.6368 114.591C27.7301 114.498 27.8421 114.423 27.9728 114.367C28.1034 114.311 28.2434 114.283 28.3927 114.283C28.5421 114.283 28.6798 114.311 28.8058 114.367C28.9364 114.423 29.0484 114.498 29.1418 114.591C29.2398 114.685 29.3168 114.797 29.3728 114.927C29.4288 115.058 29.4568 115.196 29.4568 115.34C29.4568 115.49 29.4288 115.63 29.3728 115.76C29.3168 115.886 29.2398 115.996 29.1418 116.089C29.0484 116.183 28.9364 116.257 28.8058 116.313C28.6798 116.365 28.5421 116.39 28.3927 116.39C28.2434 116.39 28.1034 116.365 27.9728 116.313C27.8421 116.257 27.7301 116.183 27.6368 116.089C27.5434 115.996 27.4688 115.886 27.4128 115.76C27.3614 115.63 27.3358 115.49 27.3358 115.34ZM41.3774 116.222C41.3774 117.104 41.2818 117.872 41.0904 118.525C40.9038 119.174 40.6424 119.711 40.3064 120.135C39.9751 120.56 39.5808 120.877 39.1234 121.087C38.6708 121.293 38.1808 121.395 37.6534 121.395C37.1261 121.395 36.6361 121.293 36.1834 121.087C35.7354 120.877 35.3458 120.56 35.0144 120.135C34.6831 119.711 34.4241 119.174 34.2374 118.525C34.0508 117.872 33.9574 117.104 33.9574 116.222C33.9574 115.336 34.0508 114.568 34.2374 113.919C34.4241 113.271 34.6831 112.734 35.0144 112.309C35.3458 111.885 35.7354 111.57 36.1834 111.364C36.6361 111.154 37.1261 111.049 37.6534 111.049C38.1808 111.049 38.6708 111.154 39.1234 111.364C39.5808 111.57 39.9751 111.885 40.3064 112.309C40.6424 112.734 40.9038 113.271 41.0904 113.919C41.2818 114.568 41.3774 115.336 41.3774 116.222ZM39.5924 116.222C39.5924 115.49 39.5388 114.883 39.4314 114.402C39.3241 113.922 39.1794 113.539 38.9974 113.254C38.8201 112.97 38.6148 112.771 38.3814 112.659C38.1481 112.543 37.9054 112.484 37.6534 112.484C37.4061 112.484 37.1658 112.543 36.9324 112.659C36.7038 112.771 36.5008 112.97 36.3234 113.254C36.1461 113.539 36.0038 113.922 35.8964 114.402C35.7938 114.883 35.7424 115.49 35.7424 116.222C35.7424 116.955 35.7938 117.562 35.8964 118.042C36.0038 118.523 36.1461 118.906 36.3234 119.19C36.5008 119.475 36.7038 119.676 36.9324 119.792C37.1658 119.904 37.4061 119.96 37.6534 119.96C37.9054 119.96 38.1481 119.904 38.3814 119.792C38.6148 119.676 38.8201 119.475 38.9974 119.19C39.1794 118.906 39.3241 118.523 39.4314 118.042C39.5388 117.562 39.5924 116.955 39.5924 116.222ZM49.4985 116.222C49.4985 117.104 49.4028 117.872 49.2115 118.525C49.0248 119.174 48.7635 119.711 48.4275 120.135C48.0962 120.56 47.7018 120.877 47.2445 121.087C46.7918 121.293 46.3018 121.395 45.7745 121.395C45.2472 121.395 44.7572 121.293 44.3045 121.087C43.8565 120.877 43.4668 120.56 43.1355 120.135C42.8042 119.711 42.5452 119.174 42.3585 118.525C42.1718 117.872 42.0785 117.104 42.0785 116.222C42.0785 115.336 42.1718 114.568 42.3585 113.919C42.5452 113.271 42.8042 112.734 43.1355 112.309C43.4668 111.885 43.8565 111.57 44.3045 111.364C44.7572 111.154 45.2472 111.049 45.7745 111.049C46.3018 111.049 46.7918 111.154 47.2445 111.364C47.7018 111.57 48.0962 111.885 48.4275 112.309C48.7635 112.734 49.0248 113.271 49.2115 113.919C49.4028 114.568 49.4985 115.336 49.4985 116.222ZM47.7135 116.222C47.7135 115.49 47.6598 114.883 47.5525 114.402C47.4452 113.922 47.3005 113.539 47.1185 113.254C46.9412 112.97 46.7358 112.771 46.5025 112.659C46.2692 112.543 46.0265 112.484 45.7745 112.484C45.5272 112.484 45.2868 112.543 45.0535 112.659C44.8248 112.771 44.6218 112.97 44.4445 113.254C44.2672 113.539 44.1248 113.922 44.0175 114.402C43.9148 114.883 43.8635 115.49 43.8635 116.222C43.8635 116.955 43.9148 117.562 44.0175 118.042C44.1248 118.523 44.2672 118.906 44.4445 119.19C44.6218 119.475 44.8248 119.676 45.0535 119.792C45.2868 119.904 45.5272 119.96 45.7745 119.96C46.0265 119.96 46.2692 119.904 46.5025 119.792C46.7358 119.676 46.9412 119.475 47.1185 119.19C47.3005 118.906 47.4452 118.523 47.5525 118.042C47.6598 117.562 47.7135 116.955 47.7135 116.222Z" fill="#3F4041"/>
<path d="M18.1005 167.014V168.309H12.5005V167.014H14.5515V161.113C14.5515 160.879 14.5585 160.639 14.5725 160.392L13.1165 161.61C13.0325 161.675 12.9485 161.717 12.8645 161.736C12.7851 161.75 12.7081 161.75 12.6335 161.736C12.5635 161.722 12.5005 161.698 12.4445 161.666C12.3885 161.628 12.3465 161.589 12.3185 161.547L11.7725 160.798L14.8595 158.173H16.2805V167.014H18.1005ZM23.9606 164.494V161.183C23.9606 160.87 23.9816 160.525 24.0236 160.147L20.8806 164.494H23.9606ZM26.7396 164.494V165.495C26.7396 165.588 26.7092 165.67 26.6486 165.74C26.5879 165.805 26.5016 165.838 26.3896 165.838H25.4656V168.309H23.9606V165.838H19.6906C19.5739 165.838 19.4712 165.803 19.3826 165.733C19.2939 165.658 19.2379 165.567 19.2146 165.46L19.0326 164.585L23.8276 158.18H25.4656V164.494H26.7396ZM27.8397 167.357C27.8397 167.212 27.8653 167.074 27.9167 166.944C27.9727 166.813 28.0473 166.701 28.1407 166.608C28.234 166.514 28.346 166.44 28.4767 166.384C28.6073 166.328 28.7473 166.3 28.8967 166.3C29.046 166.3 29.1837 166.328 29.3097 166.384C29.4403 166.44 29.5523 166.514 29.6457 166.608C29.7437 166.701 29.8207 166.813 29.8767 166.944C29.9327 167.074 29.9607 167.212 29.9607 167.357C29.9607 167.506 29.9327 167.646 29.8767 167.777C29.8207 167.903 29.7437 168.012 29.6457 168.106C29.5523 168.199 29.4403 168.271 29.3097 168.323C29.1837 168.379 29.046 168.407 28.8967 168.407C28.7473 168.407 28.6073 168.379 28.4767 168.323C28.346 168.271 28.234 168.199 28.1407 168.106C28.0473 168.012 27.9727 167.903 27.9167 167.777C27.8653 167.646 27.8397 167.506 27.8397 167.357ZM27.8397 162.366C27.8397 162.221 27.8653 162.083 27.9167 161.953C27.9727 161.822 28.0473 161.71 28.1407 161.617C28.234 161.523 28.346 161.449 28.4767 161.393C28.6073 161.337 28.7473 161.309 28.8967 161.309C29.046 161.309 29.1837 161.337 29.3097 161.393C29.4403 161.449 29.5523 161.523 29.6457 161.617C29.7437 161.71 29.8207 161.822 29.8767 161.953C29.9327 162.083 29.9607 162.221 29.9607 162.366C29.9607 162.515 29.9327 162.655 29.8767 162.786C29.8207 162.912 29.7437 163.021 29.6457 163.115C29.5523 163.208 29.4403 163.283 29.3097 163.339C29.1837 163.39 29.046 163.416 28.8967 163.416C28.7473 163.416 28.6073 163.39 28.4767 163.339C28.346 163.283 28.234 163.208 28.1407 163.115C28.0473 163.021 27.9727 162.912 27.9167 162.786C27.8653 162.655 27.8397 162.515 27.8397 162.366ZM41.8813 163.248C41.8813 164.13 41.7857 164.897 41.5943 165.551C41.4077 166.199 41.1463 166.736 40.8103 167.161C40.479 167.585 40.0847 167.903 39.6273 168.113C39.1747 168.318 38.6847 168.421 38.1573 168.421C37.63 168.421 37.14 168.318 36.6873 168.113C36.2393 167.903 35.8497 167.585 35.5183 167.161C35.187 166.736 34.928 166.199 34.7413 165.551C34.5547 164.897 34.4613 164.13 34.4613 163.248C34.4613 162.361 34.5547 161.593 34.7413 160.945C34.928 160.296 35.187 159.759 35.5183 159.335C35.8497 158.91 36.2393 158.595 36.6873 158.39C37.14 158.18 37.63 158.075 38.1573 158.075C38.6847 158.075 39.1747 158.18 39.6273 158.39C40.0847 158.595 40.479 158.91 40.8103 159.335C41.1463 159.759 41.4077 160.296 41.5943 160.945C41.7857 161.593 41.8813 162.361 41.8813 163.248ZM40.0963 163.248C40.0963 162.515 40.0427 161.908 39.9353 161.428C39.828 160.947 39.6833 160.564 39.5013 160.28C39.324 159.995 39.1187 159.797 38.8853 159.685C38.652 159.568 38.4093 159.51 38.1573 159.51C37.91 159.51 37.6697 159.568 37.4363 159.685C37.2077 159.797 37.0047 159.995 36.8273 160.28C36.65 160.564 36.5077 160.947 36.4003 161.428C36.2977 161.908 36.2463 162.515 36.2463 163.248C36.2463 163.98 36.2977 164.587 36.4003 165.068C36.5077 165.548 36.65 165.931 36.8273 166.216C37.0047 166.5 37.2077 166.701 37.4363 166.818C37.6697 166.93 37.91 166.986 38.1573 166.986C38.4093 166.986 38.652 166.93 38.8853 166.818C39.1187 166.701 39.324 166.5 39.5013 166.216C39.6833 165.931 39.828 165.548 39.9353 165.068C40.0427 164.587 40.0963 163.98 40.0963 163.248ZM50.0024 163.248C50.0024 164.13 49.9068 164.897 49.7154 165.551C49.5288 166.199 49.2674 166.736 48.9314 167.161C48.6001 167.585 48.2058 167.903 47.7484 168.113C47.2958 168.318 46.8058 168.421 46.2784 168.421C45.7511 168.421 45.2611 168.318 44.8084 168.113C44.3604 167.903 43.9708 167.585 43.6394 167.161C43.3081 166.736 43.0491 166.199 42.8624 165.551C42.6758 164.897 42.5824 164.13 42.5824 163.248C42.5824 162.361 42.6758 161.593 42.8624 160.945C43.0491 160.296 43.3081 159.759 43.6394 159.335C43.9708 158.91 44.3604 158.595 44.8084 158.39C45.2611 158.18 45.7511 158.075 46.2784 158.075C46.8058 158.075 47.2958 158.18 47.7484 158.39C48.2058 158.595 48.6001 158.91 48.9314 159.335C49.2674 159.759 49.5288 160.296 49.7154 160.945C49.9068 161.593 50.0024 162.361 50.0024 163.248ZM48.2174 163.248C48.2174 162.515 48.1638 161.908 48.0564 161.428C47.9491 160.947 47.8044 160.564 47.6224 160.28C47.4451 159.995 47.2398 159.797 47.0064 159.685C46.7731 159.568 46.5304 159.51 46.2784 159.51C46.0311 159.51 45.7908 159.568 45.5574 159.685C45.3288 159.797 45.1258 159.995 44.9484 160.28C44.7711 160.564 44.6288 160.947 44.5214 161.428C44.4188 161.908 44.3674 162.515 44.3674 163.248C44.3674 163.98 44.4188 164.587 44.5214 165.068C44.6288 165.548 44.7711 165.931 44.9484 166.216C45.1258 166.5 45.3288 166.701 45.5574 166.818C45.7908 166.93 46.0311 166.986 46.2784 166.986C46.5304 166.986 46.7731 166.93 47.0064 166.818C47.2398 166.701 47.4451 166.5 47.6224 166.216C47.8044 165.931 47.9491 165.548 48.0564 165.068C48.1638 164.587 48.2174 163.98 48.2174 163.248Z" fill="#3F4041"/>
<path d="M17.5966 214.039V215.334H11.9966V214.039H14.0476V208.138C14.0476 207.905 14.0546 207.664 14.0686 207.417L12.6126 208.635C12.5286 208.7 12.4446 208.742 12.3606 208.761C12.2812 208.775 12.2042 208.775 12.1296 208.761C12.0596 208.747 11.9966 208.724 11.9406 208.691C11.8846 208.654 11.8426 208.614 11.8146 208.572L11.2686 207.823L14.3556 205.198H15.7766V214.039H17.5966ZM21.3147 208.887C21.5387 208.84 21.7533 208.808 21.9587 208.789C22.164 208.766 22.3623 208.754 22.5537 208.754C23.0857 208.754 23.5547 208.833 23.9607 208.992C24.3667 209.151 24.7073 209.37 24.9827 209.65C25.258 209.93 25.4657 210.259 25.6057 210.637C25.7457 211.01 25.8157 211.414 25.8157 211.848C25.8157 212.385 25.72 212.875 25.5287 213.318C25.342 213.761 25.0807 214.142 24.7447 214.459C24.4087 214.772 24.0097 215.014 23.5477 215.187C23.0903 215.36 22.591 215.446 22.0497 215.446C21.7323 215.446 21.4313 215.413 21.1467 215.348C20.862 215.283 20.5937 215.196 20.3417 215.089C20.0943 214.977 19.8633 214.851 19.6487 214.711C19.4387 214.566 19.2497 214.415 19.0817 214.256L19.6137 213.521C19.7257 213.362 19.8727 213.283 20.0547 213.283C20.1713 213.283 20.2903 213.32 20.4117 213.395C20.533 213.47 20.6707 213.551 20.8247 213.64C20.9833 213.729 21.1677 213.81 21.3777 213.885C21.5923 213.96 21.849 213.997 22.1477 213.997C22.465 213.997 22.745 213.946 22.9877 213.843C23.2303 213.74 23.431 213.598 23.5897 213.416C23.753 213.229 23.8743 213.01 23.9537 212.758C24.0377 212.501 24.0797 212.224 24.0797 211.925C24.0797 211.374 23.9187 210.945 23.5967 210.637C23.2793 210.324 22.808 210.168 22.1827 210.168C21.702 210.168 21.2097 210.257 20.7057 210.434L19.6277 210.126L20.4677 205.212H25.4657V205.947C25.4657 206.194 25.3887 206.395 25.2347 206.549C25.0807 206.703 24.8193 206.78 24.4507 206.78H21.6717L21.3147 208.887ZM27.3358 214.382C27.3358 214.237 27.3614 214.1 27.4128 213.969C27.4688 213.838 27.5434 213.726 27.6368 213.633C27.7301 213.54 27.8421 213.465 27.9728 213.409C28.1034 213.353 28.2434 213.325 28.3927 213.325C28.5421 213.325 28.6798 213.353 28.8058 213.409C28.9364 213.465 29.0484 213.54 29.1418 213.633C29.2398 213.726 29.3168 213.838 29.3728 213.969C29.4288 214.1 29.4568 214.237 29.4568 214.382C29.4568 214.531 29.4288 214.671 29.3728 214.802C29.3168 214.928 29.2398 215.038 29.1418 215.131C29.0484 215.224 28.9364 215.297 28.8058 215.348C28.6798 215.404 28.5421 215.432 28.3927 215.432C28.2434 215.432 28.1034 215.404 27.9728 215.348C27.8421 215.297 27.7301 215.224 27.6368 215.131C27.5434 215.038 27.4688 214.928 27.4128 214.802C27.3614 214.671 27.3358 214.531 27.3358 214.382ZM27.3358 209.391C27.3358 209.246 27.3614 209.109 27.4128 208.978C27.4688 208.847 27.5434 208.735 27.6368 208.642C27.7301 208.549 27.8421 208.474 27.9728 208.418C28.1034 208.362 28.2434 208.334 28.3927 208.334C28.5421 208.334 28.6798 208.362 28.8058 208.418C28.9364 208.474 29.0484 208.549 29.1418 208.642C29.2398 208.735 29.3168 208.847 29.3728 208.978C29.4288 209.109 29.4568 209.246 29.4568 209.391C29.4568 209.54 29.4288 209.68 29.3728 209.811C29.3168 209.937 29.2398 210.047 29.1418 210.14C29.0484 210.233 28.9364 210.308 28.8058 210.364C28.6798 210.415 28.5421 210.441 28.3927 210.441C28.2434 210.441 28.1034 210.415 27.9728 210.364C27.8421 210.308 27.7301 210.233 27.6368 210.14C27.5434 210.047 27.4688 209.937 27.4128 209.811C27.3614 209.68 27.3358 209.54 27.3358 209.391ZM41.3774 210.273C41.3774 211.155 41.2818 211.923 41.0904 212.576C40.9038 213.225 40.6424 213.761 40.3064 214.186C39.9751 214.611 39.5808 214.928 39.1234 215.138C38.6708 215.343 38.1808 215.446 37.6534 215.446C37.1261 215.446 36.6361 215.343 36.1834 215.138C35.7354 214.928 35.3458 214.611 35.0144 214.186C34.6831 213.761 34.4241 213.225 34.2374 212.576C34.0508 211.923 33.9574 211.155 33.9574 210.273C33.9574 209.386 34.0508 208.619 34.2374 207.97C34.4241 207.321 34.6831 206.785 35.0144 206.36C35.3458 205.935 35.7354 205.62 36.1834 205.415C36.6361 205.205 37.1261 205.1 37.6534 205.1C38.1808 205.1 38.6708 205.205 39.1234 205.415C39.5808 205.62 39.9751 205.935 40.3064 206.36C40.6424 206.785 40.9038 207.321 41.0904 207.97C41.2818 208.619 41.3774 209.386 41.3774 210.273ZM39.5924 210.273C39.5924 209.54 39.5388 208.934 39.4314 208.453C39.3241 207.972 39.1794 207.59 38.9974 207.305C38.8201 207.02 38.6148 206.822 38.3814 206.71C38.1481 206.593 37.9054 206.535 37.6534 206.535C37.4061 206.535 37.1658 206.593 36.9324 206.71C36.7038 206.822 36.5008 207.02 36.3234 207.305C36.1461 207.59 36.0038 207.972 35.8964 208.453C35.7938 208.934 35.7424 209.54 35.7424 210.273C35.7424 211.006 35.7938 211.612 35.8964 212.093C36.0038 212.574 36.1461 212.956 36.3234 213.241C36.5008 213.526 36.7038 213.726 36.9324 213.843C37.1658 213.955 37.4061 214.011 37.6534 214.011C37.9054 214.011 38.1481 213.955 38.3814 213.843C38.6148 213.726 38.8201 213.526 38.9974 213.241C39.1794 212.956 39.3241 212.574 39.4314 212.093C39.5388 211.612 39.5924 211.006 39.5924 210.273ZM49.4985 210.273C49.4985 211.155 49.4028 211.923 49.2115 212.576C49.0248 213.225 48.7635 213.761 48.4275 214.186C48.0962 214.611 47.7018 214.928 47.2445 215.138C46.7918 215.343 46.3018 215.446 45.7745 215.446C45.2472 215.446 44.7572 215.343 44.3045 215.138C43.8565 214.928 43.4668 214.611 43.1355 214.186C42.8042 213.761 42.5452 213.225 42.3585 212.576C42.1718 211.923 42.0785 211.155 42.0785 210.273C42.0785 209.386 42.1718 208.619 42.3585 207.97C42.5452 207.321 42.8042 206.785 43.1355 206.36C43.4668 205.935 43.8565 205.62 44.3045 205.415C44.7572 205.205 45.2472 205.1 45.7745 205.1C46.3018 205.1 46.7918 205.205 47.2445 205.415C47.7018 205.62 48.0962 205.935 48.4275 206.36C48.7635 206.785 49.0248 207.321 49.2115 207.97C49.4028 208.619 49.4985 209.386 49.4985 210.273ZM47.7135 210.273C47.7135 209.54 47.6598 208.934 47.5525 208.453C47.4452 207.972 47.3005 207.59 47.1185 207.305C46.9412 207.02 46.7358 206.822 46.5025 206.71C46.2692 206.593 46.0265 206.535 45.7745 206.535C45.5272 206.535 45.2868 206.593 45.0535 206.71C44.8248 206.822 44.6218 207.02 44.4445 207.305C44.2672 207.59 44.1248 207.972 44.0175 208.453C43.9148 208.934 43.8635 209.54 43.8635 210.273C43.8635 211.006 43.9148 211.612 44.0175 212.093C44.1248 212.574 44.2672 212.956 44.4445 213.241C44.6218 213.526 44.8248 213.726 45.0535 213.843C45.2868 213.955 45.5272 214.011 45.7745 214.011C46.0265 214.011 46.2692 213.955 46.5025 213.843C46.7358 213.726 46.9412 213.526 47.1185 213.241C47.3005 212.956 47.4452 212.574 47.5525 212.093C47.6598 211.612 47.7135 211.006 47.7135 210.273Z" fill="#3F4041"/>
<path d="M18.6005 261.064V262.359H13.0005V261.064H15.0515V255.163C15.0515 254.93 15.0585 254.69 15.0725 254.442L13.6165 255.66C13.5325 255.726 13.4485 255.768 13.3645 255.786C13.2851 255.8 13.2081 255.8 13.1335 255.786C13.0635 255.772 13.0005 255.749 12.9445 255.716C12.8885 255.679 12.8465 255.639 12.8185 255.597L12.2725 254.848L15.3595 252.223H16.7805V261.064H18.6005ZM23.1306 255.912L22.7806 256.346C22.9766 256.248 23.1866 256.174 23.4106 256.122C23.6392 256.066 23.8842 256.038 24.1456 256.038C24.5282 256.038 24.8992 256.101 25.2586 256.227C25.6226 256.353 25.9422 256.545 26.2176 256.801C26.4929 257.053 26.7146 257.368 26.8826 257.746C27.0506 258.124 27.1346 258.565 27.1346 259.069C27.1346 259.541 27.0482 259.984 26.8756 260.399C26.7029 260.81 26.4602 261.169 26.1476 261.477C25.8349 261.785 25.4569 262.028 25.0136 262.205C24.5749 262.383 24.0896 262.471 23.5576 262.471C23.0162 262.471 22.5309 262.385 22.1016 262.212C21.6722 262.04 21.3059 261.799 21.0026 261.491C20.6992 261.179 20.4659 260.805 20.3026 260.371C20.1439 259.933 20.0646 259.447 20.0646 258.915C20.0646 258.439 20.1602 257.952 20.3516 257.452C20.5476 256.948 20.8486 256.426 21.2546 255.884L23.6696 252.643C23.7536 252.531 23.8749 252.436 24.0336 252.356C24.1969 252.277 24.3836 252.237 24.5936 252.237H26.1336L23.1306 255.912ZM23.5226 261.057C23.7979 261.057 24.0499 261.011 24.2786 260.917C24.5119 260.824 24.7102 260.693 24.8736 260.525C25.0416 260.357 25.1722 260.161 25.2656 259.937C25.3589 259.709 25.4056 259.461 25.4056 259.195C25.4056 258.906 25.3612 258.647 25.2726 258.418C25.1839 258.185 25.0579 257.989 24.8946 257.83C24.7312 257.667 24.5352 257.543 24.3066 257.459C24.0779 257.375 23.8259 257.333 23.5506 257.333C23.2752 257.333 23.0256 257.38 22.8016 257.473C22.5776 257.567 22.3862 257.697 22.2276 257.865C22.0689 258.029 21.9452 258.225 21.8566 258.453C21.7679 258.677 21.7236 258.92 21.7236 259.181C21.7236 259.461 21.7609 259.718 21.8356 259.951C21.9149 260.18 22.0292 260.376 22.1786 260.539C22.3326 260.703 22.5216 260.831 22.7456 260.924C22.9696 261.013 23.2286 261.057 23.5226 261.057ZM28.3397 261.407C28.3397 261.263 28.3653 261.125 28.4167 260.994C28.4727 260.864 28.5473 260.752 28.6407 260.658C28.734 260.565 28.846 260.49 28.9767 260.434C29.1073 260.378 29.2473 260.35 29.3967 260.35C29.546 260.35 29.6837 260.378 29.8097 260.434C29.9403 260.49 30.0523 260.565 30.1457 260.658C30.2437 260.752 30.3207 260.864 30.3767 260.994C30.4327 261.125 30.4607 261.263 30.4607 261.407C30.4607 261.557 30.4327 261.697 30.3767 261.827C30.3207 261.953 30.2437 262.063 30.1457 262.156C30.0523 262.25 29.9403 262.322 29.8097 262.373C29.6837 262.429 29.546 262.457 29.3967 262.457C29.2473 262.457 29.1073 262.429 28.9767 262.373C28.846 262.322 28.734 262.25 28.6407 262.156C28.5473 262.063 28.4727 261.953 28.4167 261.827C28.3653 261.697 28.3397 261.557 28.3397 261.407ZM28.3397 256.416C28.3397 256.272 28.3653 256.134 28.4167 256.003C28.4727 255.873 28.5473 255.761 28.6407 255.667C28.734 255.574 28.846 255.499 28.9767 255.443C29.1073 255.387 29.2473 255.359 29.3967 255.359C29.546 255.359 29.6837 255.387 29.8097 255.443C29.9403 255.499 30.0523 255.574 30.1457 255.667C30.2437 255.761 30.3207 255.873 30.3767 256.003C30.4327 256.134 30.4607 256.272 30.4607 256.416C30.4607 256.566 30.4327 256.706 30.3767 256.836C30.3207 256.962 30.2437 257.072 30.1457 257.165C30.0523 257.259 29.9403 257.333 29.8097 257.389C29.6837 257.441 29.546 257.466 29.3967 257.466C29.2473 257.466 29.1073 257.441 28.9767 257.389C28.846 257.333 28.734 257.259 28.6407 257.165C28.5473 257.072 28.4727 256.962 28.4167 256.836C28.3653 256.706 28.3397 256.566 28.3397 256.416ZM42.3813 257.298C42.3813 258.18 42.2857 258.948 42.0943 259.601C41.9077 260.25 41.6463 260.787 41.3103 261.211C40.979 261.636 40.5847 261.953 40.1273 262.163C39.6747 262.369 39.1847 262.471 38.6573 262.471C38.13 262.471 37.64 262.369 37.1873 262.163C36.7393 261.953 36.3497 261.636 36.0183 261.211C35.687 260.787 35.428 260.25 35.2413 259.601C35.0547 258.948 34.9613 258.18 34.9613 257.298C34.9613 256.412 35.0547 255.644 35.2413 254.995C35.428 254.347 35.687 253.81 36.0183 253.385C36.3497 252.961 36.7393 252.646 37.1873 252.44C37.64 252.23 38.13 252.125 38.6573 252.125C39.1847 252.125 39.6747 252.23 40.1273 252.44C40.5847 252.646 40.979 252.961 41.3103 253.385C41.6463 253.81 41.9077 254.347 42.0943 254.995C42.2857 255.644 42.3813 256.412 42.3813 257.298ZM40.5963 257.298C40.5963 256.566 40.5427 255.959 40.4353 255.478C40.328 254.998 40.1833 254.615 40.0013 254.33C39.824 254.046 39.6187 253.847 39.3853 253.735C39.152 253.619 38.9093 253.56 38.6573 253.56C38.41 253.56 38.1697 253.619 37.9363 253.735C37.7077 253.847 37.5047 254.046 37.3273 254.33C37.15 254.615 37.0077 254.998 36.9003 255.478C36.7977 255.959 36.7463 256.566 36.7463 257.298C36.7463 258.031 36.7977 258.638 36.9003 259.118C37.0077 259.599 37.15 259.982 37.3273 260.266C37.5047 260.551 37.7077 260.752 37.9363 260.868C38.1697 260.98 38.41 261.036 38.6573 261.036C38.9093 261.036 39.152 260.98 39.3853 260.868C39.6187 260.752 39.824 260.551 40.0013 260.266C40.1833 259.982 40.328 259.599 40.4353 259.118C40.5427 258.638 40.5963 258.031 40.5963 257.298ZM50.5024 257.298C50.5024 258.18 50.4068 258.948 50.2154 259.601C50.0288 260.25 49.7674 260.787 49.4314 261.211C49.1001 261.636 48.7058 261.953 48.2484 262.163C47.7958 262.369 47.3058 262.471 46.7784 262.471C46.2511 262.471 45.7611 262.369 45.3084 262.163C44.8604 261.953 44.4708 261.636 44.1394 261.211C43.8081 260.787 43.5491 260.25 43.3624 259.601C43.1758 258.948 43.0824 258.18 43.0824 257.298C43.0824 256.412 43.1758 255.644 43.3624 254.995C43.5491 254.347 43.8081 253.81 44.1394 253.385C44.4708 252.961 44.8604 252.646 45.3084 252.44C45.7611 252.23 46.2511 252.125 46.7784 252.125C47.3058 252.125 47.7958 252.23 48.2484 252.44C48.7058 252.646 49.1001 252.961 49.4314 253.385C49.7674 253.81 50.0288 254.347 50.2154 254.995C50.4068 255.644 50.5024 256.412 50.5024 257.298ZM48.7174 257.298C48.7174 256.566 48.6638 255.959 48.5564 255.478C48.4491 254.998 48.3044 254.615 48.1224 254.33C47.9451 254.046 47.7398 253.847 47.5064 253.735C47.2731 253.619 47.0304 253.56 46.7784 253.56C46.5311 253.56 46.2908 253.619 46.0574 253.735C45.8288 253.847 45.6258 254.046 45.4484 254.33C45.2711 254.615 45.1288 254.998 45.0214 255.478C44.9188 255.959 44.8674 256.566 44.8674 257.298C44.8674 258.031 44.9188 258.638 45.0214 259.118C45.1288 259.599 45.2711 259.982 45.4484 260.266C45.6258 260.551 45.8288 260.752 46.0574 260.868C46.2908 260.98 46.5311 261.036 46.7784 261.036C47.0304 261.036 47.2731 260.98 47.5064 260.868C47.7398 260.752 47.9451 260.551 48.1224 260.266C48.3044 259.982 48.4491 259.599 48.5564 259.118C48.6638 258.638 48.7174 258.031 48.7174 257.298Z" fill="#3F4041"/>
<line x1="0.511719" y1="88.7891" x2="614.434" y2="88.7891" stroke="white"/>
<line x1="0.511719" y1="143.159" x2="614.434" y2="143.159" stroke="white"/>
<line x1="0.511719" y1="190.279" x2="614.434" y2="190.279" stroke="white"/>
<line x1="0.511719" y1="236.796" x2="614.434" y2="236.796" stroke="white"/>
<line x1="128.723" y1="326.76" x2="128.723" y2="89.2891" stroke="white"/>
<line x1="215.367" y1="326.76" x2="215.367" y2="89.2891" stroke="white"/>
<line x1="292.273" y1="326.76" x2="292.273" y2="89.2891" stroke="white"/>
<line x1="376.188" y1="326.76" x2="376.188" y2="89.2891" stroke="white"/>
<line x1="456.066" y1="326.76" x2="456.066" y2="89.2891" stroke="white"/>
<line x1="533.801" y1="326.76" x2="533.801" y2="89.2891" stroke="white"/>
<line x1="58.9023" y1="326.76" x2="58.9024" y2="89.2891" stroke="white"/>
<path d="M165.64 57.2593V68.7793H163.992V60.8833C163.992 60.7553 163.994 60.6166 164 60.4673C164.01 60.3126 164.024 60.158 164.04 60.0033L160.336 66.8433C160.192 67.126 159.97 67.2673 159.672 67.2673H159.408C159.104 67.2673 158.882 67.126 158.744 66.8433L154.984 59.9873C155 60.142 155.01 60.2966 155.016 60.4513C155.026 60.606 155.032 60.75 155.032 60.8833V68.7793H153.384V57.2593H154.784C154.949 57.2593 155.077 57.2753 155.168 57.3073C155.258 57.334 155.341 57.422 155.416 57.5713L159.112 64.2673C159.192 64.422 159.266 64.582 159.336 64.7473C159.41 64.9073 159.477 65.0726 159.536 65.2433C159.6 65.0726 159.666 64.9046 159.736 64.7393C159.81 64.5686 159.888 64.406 159.968 64.2513L163.608 57.5713C163.682 57.422 163.765 57.334 163.856 57.3073C163.946 57.2753 164.074 57.2593 164.24 57.2593H165.64ZM179.192 63.0193C179.192 63.8726 179.053 64.6593 178.776 65.3793C178.499 66.0993 178.107 66.7206 177.6 67.2433C177.099 67.7606 176.493 68.166 175.784 68.4593C175.08 68.7526 174.296 68.8993 173.432 68.8993C172.573 68.8993 171.789 68.7526 171.08 68.4593C170.376 68.166 169.771 67.7606 169.264 67.2433C168.757 66.7206 168.365 66.0993 168.088 65.3793C167.811 64.6593 167.672 63.8726 167.672 63.0193C167.672 62.166 167.811 61.3793 168.088 60.6593C168.365 59.9393 168.757 59.318 169.264 58.7953C169.771 58.2726 170.376 57.8646 171.08 57.5713C171.789 57.278 172.573 57.1313 173.432 57.1313C174.296 57.1313 175.08 57.278 175.784 57.5713C176.493 57.8646 177.099 58.2726 177.6 58.7953C178.107 59.318 178.499 59.9393 178.776 60.6593C179.053 61.3793 179.192 62.166 179.192 63.0193ZM177.28 63.0193C177.28 62.358 177.189 61.7633 177.008 61.2353C176.832 60.7073 176.576 60.2593 176.24 59.8913C175.909 59.5233 175.507 59.2406 175.032 59.0433C174.557 58.846 174.024 58.7473 173.432 58.7473C172.845 58.7473 172.315 58.846 171.84 59.0433C171.365 59.2406 170.96 59.5233 170.624 59.8913C170.288 60.2593 170.029 60.7073 169.848 61.2353C169.667 61.7633 169.576 62.358 169.576 63.0193C169.576 63.686 169.667 64.2833 169.848 64.8113C170.029 65.3393 170.288 65.7873 170.624 66.1553C170.96 66.518 171.365 66.798 171.84 66.9953C172.315 67.1873 172.845 67.2833 173.432 67.2833C174.024 67.2833 174.557 67.1873 175.032 66.9953C175.507 66.798 175.909 66.518 176.24 66.1553C176.576 65.7873 176.832 65.3393 177.008 64.8113C177.189 64.2833 177.28 63.686 177.28 63.0193ZM190.779 57.2593V68.7793H189.827C189.683 68.7793 189.56 68.7553 189.459 68.7073C189.358 68.654 189.262 68.5686 189.171 68.4513L182.843 60.3233C182.859 60.478 182.87 60.6326 182.875 60.7873C182.886 60.9366 182.891 61.0753 182.891 61.2033V68.7793H181.243V57.2593H182.219C182.299 57.2593 182.366 57.2646 182.419 57.2753C182.478 57.2806 182.531 57.294 182.579 57.3153C182.627 57.3366 182.672 57.3686 182.715 57.4113C182.758 57.454 182.803 57.5073 182.851 57.5713L189.187 65.7073C189.171 65.542 189.158 65.3793 189.147 65.2193C189.142 65.0593 189.139 64.91 189.139 64.7713V57.2593H190.779Z" fill="#3F4041"/>
<path d="M171.026 46.5393V48.7793H162.726V46.5393H165.526V39.1893C165.526 39.0026 165.529 38.816 165.536 38.6293C165.542 38.436 165.552 38.2426 165.566 38.0493L163.906 39.4293C163.759 39.5426 163.612 39.6126 163.466 39.6393C163.326 39.6593 163.192 39.6593 163.066 39.6393C162.939 39.6126 162.826 39.5693 162.726 39.5093C162.626 39.4426 162.552 39.376 162.506 39.3093L161.526 38.0093L166.066 34.1993H168.626V46.5393H171.026ZM175.847 38.6593C175.847 40.1126 176.521 40.8393 177.867 40.8393C178.527 40.8393 179.034 40.6426 179.387 40.2493C179.747 39.8493 179.927 39.3193 179.927 38.6593C179.927 38.306 179.874 37.996 179.767 37.7293C179.667 37.456 179.524 37.2293 179.337 37.0493C179.157 36.8693 178.937 36.7326 178.677 36.6393C178.417 36.546 178.134 36.4993 177.827 36.4993C177.514 36.4993 177.234 36.556 176.987 36.6693C176.747 36.776 176.541 36.926 176.367 37.1193C176.201 37.3126 176.071 37.5426 175.977 37.8093C175.891 38.0693 175.847 38.3526 175.847 38.6593ZM178.327 43.2593C178.421 43.146 178.511 43.036 178.597 42.9293C178.684 42.8226 178.764 42.716 178.837 42.6093C178.224 42.936 177.527 43.0993 176.747 43.0993C176.274 43.0993 175.801 43.016 175.327 42.8493C174.854 42.676 174.424 42.416 174.037 42.0693C173.657 41.7226 173.347 41.286 173.107 40.7593C172.867 40.2326 172.747 39.6093 172.747 38.8893C172.747 38.2293 172.867 37.606 173.107 37.0193C173.354 36.4326 173.701 35.9193 174.147 35.4793C174.601 35.0393 175.141 34.6926 175.767 34.4393C176.394 34.1793 177.094 34.0493 177.867 34.0493C178.654 34.0493 179.357 34.1693 179.977 34.4093C180.597 34.6493 181.121 34.986 181.547 35.4193C181.981 35.8526 182.311 36.3693 182.537 36.9693C182.771 37.5626 182.887 38.2193 182.887 38.9393C182.887 39.8926 182.744 40.746 182.457 41.4993C182.171 42.2526 181.787 42.9626 181.307 43.6293L178.167 48.0893C178.027 48.2826 177.814 48.446 177.527 48.5793C177.247 48.7126 176.927 48.7793 176.567 48.7793H173.707L178.327 43.2593Z" fill="#3F4041"/>
<path d="M247.069 58.8193H243.477V68.7793H241.613V58.8193H238.013V57.2593H247.069V58.8193ZM253.217 67.2673C253.659 67.2673 254.054 67.1926 254.401 67.0433C254.753 66.894 255.049 66.686 255.289 66.4193C255.534 66.1526 255.721 65.8326 255.849 65.4593C255.977 65.0806 256.041 64.662 256.041 64.2033V57.2593H257.905V64.2033C257.905 64.8806 257.795 65.5073 257.577 66.0833C257.363 66.6593 257.054 67.158 256.649 67.5793C256.243 67.9953 255.75 68.3233 255.169 68.5633C254.593 68.798 253.942 68.9153 253.217 68.9153C252.491 68.9153 251.838 68.798 251.257 68.5633C250.681 68.3233 250.19 67.9953 249.785 67.5793C249.379 67.158 249.067 66.6593 248.849 66.0833C248.635 65.5073 248.529 64.8806 248.529 64.2033V57.2593H250.401V64.1953C250.401 64.654 250.465 65.0726 250.593 65.4513C250.721 65.8246 250.905 66.1473 251.145 66.4193C251.385 66.686 251.678 66.894 252.025 67.0433C252.377 67.1926 252.774 67.2673 253.217 67.2673ZM267.693 67.2673L267.685 68.7793H260.501V57.2593H267.685V58.7713H262.381V62.2433H266.621V63.7073H262.381V67.2673H267.693Z" fill="#3F4041"/>
<path d="M251.033 45.9793C251.367 45.9793 251.63 46.0726 251.823 46.2593C252.017 46.4393 252.113 46.6793 252.113 46.9793V48.7793H241.873V47.7793C241.873 47.586 241.913 47.3793 241.993 47.1593C242.073 46.9393 242.213 46.7393 242.413 46.5593L246.613 42.3293C246.973 41.9693 247.287 41.626 247.553 41.2993C247.82 40.9726 248.04 40.6526 248.213 40.3393C248.387 40.0193 248.517 39.7026 248.603 39.3893C248.69 39.0693 248.733 38.7326 248.733 38.3793C248.733 37.7993 248.593 37.356 248.313 37.0493C248.04 36.736 247.62 36.5793 247.053 36.5793C246.593 36.5793 246.203 36.7026 245.883 36.9493C245.57 37.1893 245.353 37.4893 245.233 37.8493C245.093 38.216 244.91 38.4593 244.683 38.5793C244.457 38.6993 244.133 38.726 243.713 38.6593L242.073 38.3693C242.18 37.6426 242.383 37.0093 242.683 36.4693C242.99 35.9293 243.367 35.4793 243.813 35.1193C244.267 34.7593 244.783 34.4926 245.363 34.3193C245.943 34.1393 246.567 34.0493 247.233 34.0493C247.953 34.0493 248.6 34.156 249.173 34.3693C249.753 34.576 250.247 34.866 250.653 35.2393C251.06 35.6126 251.37 36.0593 251.583 36.5793C251.803 37.0926 251.913 37.6593 251.913 38.2793C251.913 38.8126 251.837 39.306 251.683 39.7593C251.537 40.2126 251.333 40.646 251.073 41.0593C250.813 41.466 250.51 41.8626 250.163 42.2493C249.823 42.6293 249.46 43.016 249.073 43.4093L246.223 46.3293C246.59 46.216 246.953 46.1293 247.313 46.0693C247.673 46.0093 248.007 45.9793 248.313 45.9793H251.033ZM264.075 41.4893C264.075 42.7626 263.938 43.866 263.665 44.7993C263.392 45.7326 263.012 46.506 262.525 47.1193C262.045 47.7326 261.472 48.1893 260.805 48.4893C260.145 48.7893 259.428 48.9393 258.655 48.9393C257.882 48.9393 257.165 48.7893 256.505 48.4893C255.852 48.1893 255.285 47.7326 254.805 47.1193C254.325 46.506 253.948 45.7326 253.675 44.7993C253.408 43.866 253.275 42.7626 253.275 41.4893C253.275 40.216 253.408 39.1126 253.675 38.1793C253.948 37.246 254.325 36.4726 254.805 35.8593C255.285 35.246 255.852 34.7926 256.505 34.4993C257.165 34.1993 257.882 34.0493 258.655 34.0493C259.428 34.0493 260.145 34.1993 260.805 34.4993C261.472 34.7926 262.045 35.246 262.525 35.8593C263.012 36.4726 263.392 37.246 263.665 38.1793C263.938 39.1126 264.075 40.216 264.075 41.4893ZM260.875 41.4893C260.875 40.4826 260.812 39.6593 260.685 39.0193C260.558 38.3726 260.388 37.866 260.175 37.4993C259.968 37.1326 259.732 36.8826 259.465 36.7493C259.198 36.6093 258.928 36.5393 258.655 36.5393C258.382 36.5393 258.112 36.6093 257.845 36.7493C257.585 36.8826 257.352 37.1326 257.145 37.4993C256.945 37.866 256.782 38.3726 256.655 39.0193C256.535 39.6593 256.475 40.4826 256.475 41.4893C256.475 42.5026 256.535 43.3293 256.655 43.9693C256.782 44.6093 256.945 45.116 257.145 45.4893C257.352 45.856 257.585 46.1093 257.845 46.2493C258.112 46.3826 258.382 46.4493 258.655 46.4493C258.928 46.4493 259.198 46.3826 259.465 46.2493C259.732 46.1093 259.968 45.856 260.175 45.4893C260.388 45.116 260.558 44.6093 260.685 43.9693C260.812 43.3293 260.875 42.5026 260.875 41.4893Z" fill="#3F4041"/>
<path d="M330.043 57.2593L326.459 68.7793H324.771L322.067 60.5073C322.035 60.4166 322.003 60.318 321.971 60.2113C321.945 60.1046 321.918 59.99 321.891 59.8673C321.865 59.99 321.835 60.1046 321.803 60.2113C321.777 60.318 321.747 60.4166 321.715 60.5073L318.987 68.7793H317.299L313.715 57.2593H315.283C315.443 57.2593 315.577 57.2993 315.683 57.3793C315.795 57.454 315.87 57.558 315.907 57.6913L318.067 65.0753C318.11 65.2353 318.15 65.4086 318.187 65.5953C318.225 65.782 318.262 65.9766 318.299 66.1793C318.337 65.9766 318.377 65.782 318.419 65.5953C318.467 65.4033 318.518 65.23 318.571 65.0753L321.043 57.6913C321.081 57.5846 321.155 57.486 321.267 57.3953C321.379 57.3046 321.513 57.2593 321.667 57.2593H322.211C322.377 57.2593 322.51 57.302 322.611 57.3873C322.713 57.4673 322.79 57.5686 322.843 57.6913L325.307 65.0753C325.361 65.23 325.409 65.398 325.451 65.5793C325.499 65.7553 325.542 65.942 325.579 66.1393C325.617 65.942 325.651 65.7553 325.683 65.5793C325.721 65.398 325.761 65.23 325.803 65.0753L327.955 57.6913C327.987 57.574 328.059 57.4726 328.171 57.3873C328.289 57.302 328.425 57.2593 328.579 57.2593H330.043ZM338.794 67.2673L338.786 68.7793H331.602V57.2593H338.786V58.7713H333.482V62.2433H337.722V63.7073H333.482V67.2673H338.794ZM350.933 63.0193C350.933 63.8726 350.794 64.654 350.517 65.3633C350.24 66.0673 349.848 66.6726 349.341 67.1793C348.84 67.686 348.234 68.0806 347.525 68.3633C346.821 68.6406 346.037 68.7793 345.173 68.7793H340.821V57.2593H345.173C346.037 57.2593 346.821 57.4006 347.525 57.6833C348.234 57.9606 348.84 58.3526 349.341 58.8593C349.848 59.366 350.24 59.974 350.517 60.6833C350.794 61.3873 350.933 62.166 350.933 63.0193ZM349.021 63.0193C349.021 62.358 348.93 61.7633 348.749 61.2353C348.573 60.7073 348.317 60.262 347.981 59.8993C347.65 59.5366 347.248 59.2593 346.773 59.0673C346.298 58.87 345.765 58.7713 345.173 58.7713H342.701V67.2673H345.173C345.765 67.2673 346.298 67.1713 346.773 66.9793C347.248 66.7873 347.65 66.51 347.981 66.1473C348.317 65.7793 348.573 65.334 348.749 64.8113C348.93 64.2833 349.021 63.686 349.021 63.0193Z" fill="#3F4041"/>
<path d="M330.791 45.9793C331.125 45.9793 331.388 46.0726 331.581 46.2593C331.775 46.4393 331.871 46.6793 331.871 46.9793V48.7793H321.631V47.7793C321.631 47.586 321.671 47.3793 321.751 47.1593C321.831 46.9393 321.971 46.7393 322.171 46.5593L326.371 42.3293C326.731 41.9693 327.045 41.626 327.311 41.2993C327.578 40.9726 327.798 40.6526 327.971 40.3393C328.145 40.0193 328.275 39.7026 328.361 39.3893C328.448 39.0693 328.491 38.7326 328.491 38.3793C328.491 37.7993 328.351 37.356 328.071 37.0493C327.798 36.736 327.378 36.5793 326.811 36.5793C326.351 36.5793 325.961 36.7026 325.641 36.9493C325.328 37.1893 325.111 37.4893 324.991 37.8493C324.851 38.216 324.668 38.4593 324.441 38.5793C324.215 38.6993 323.891 38.726 323.471 38.6593L321.831 38.3693C321.938 37.6426 322.141 37.0093 322.441 36.4693C322.748 35.9293 323.125 35.4793 323.571 35.1193C324.025 34.7593 324.541 34.4926 325.121 34.3193C325.701 34.1393 326.325 34.0493 326.991 34.0493C327.711 34.0493 328.358 34.156 328.931 34.3693C329.511 34.576 330.005 34.866 330.411 35.2393C330.818 35.6126 331.128 36.0593 331.341 36.5793C331.561 37.0926 331.671 37.6593 331.671 38.2793C331.671 38.8126 331.595 39.306 331.441 39.7593C331.295 40.2126 331.091 40.646 330.831 41.0593C330.571 41.466 330.268 41.8626 329.921 42.2493C329.581 42.6293 329.218 43.016 328.831 43.4093L325.981 46.3293C326.348 46.216 326.711 46.1293 327.071 46.0693C327.431 46.0093 327.765 45.9793 328.071 45.9793H330.791ZM343.143 46.5393V48.7793H334.843V46.5393H337.643V39.1893C337.643 39.0026 337.646 38.816 337.653 38.6293C337.659 38.436 337.669 38.2426 337.683 38.0493L336.023 39.4293C335.876 39.5426 335.729 39.6126 335.583 39.6393C335.443 39.6593 335.309 39.6593 335.183 39.6393C335.056 39.6126 334.943 39.5693 334.843 39.5093C334.743 39.4426 334.669 39.376 334.623 39.3093L333.643 38.0093L338.183 34.1993H340.743V46.5393H343.143Z" fill="#3F4041"/>
<path d="M406.585 58.8193H402.993V68.7793H401.129V58.8193H397.529V57.2593H406.585V58.8193ZM417.724 57.2593V68.7793H415.852V63.6513H410.068V68.7793H408.188V57.2593H410.068V62.2993H415.852V57.2593H417.724ZM425.014 67.2673C425.456 67.2673 425.851 67.1926 426.198 67.0433C426.55 66.894 426.846 66.686 427.086 66.4193C427.331 66.1526 427.518 65.8326 427.646 65.4593C427.774 65.0806 427.838 64.662 427.838 64.2033V57.2593H429.702V64.2033C429.702 64.8806 429.592 65.5073 429.374 66.0833C429.16 66.6593 428.851 67.158 428.446 67.5793C428.04 67.9953 427.547 68.3233 426.966 68.5633C426.39 68.798 425.739 68.9153 425.014 68.9153C424.288 68.9153 423.635 68.798 423.054 68.5633C422.478 68.3233 421.987 67.9953 421.582 67.5793C421.176 67.158 420.864 66.6593 420.646 66.0833C420.432 65.5073 420.326 64.8806 420.326 64.2033V57.2593H422.198V64.1953C422.198 64.654 422.262 65.0726 422.39 65.4513C422.518 65.8246 422.702 66.1473 422.942 66.4193C423.182 66.686 423.475 66.894 423.822 67.0433C424.174 67.1926 424.571 67.2673 425.014 67.2673Z" fill="#3F4041"/>
<path d="M412.049 45.9793C412.382 45.9793 412.646 46.0726 412.839 46.2593C413.032 46.4393 413.129 46.6793 413.129 46.9793V48.7793H402.889V47.7793C402.889 47.586 402.929 47.3793 403.009 47.1593C403.089 46.9393 403.229 46.7393 403.429 46.5593L407.629 42.3293C407.989 41.9693 408.302 41.626 408.569 41.2993C408.836 40.9726 409.056 40.6526 409.229 40.3393C409.402 40.0193 409.532 39.7026 409.619 39.3893C409.706 39.0693 409.749 38.7326 409.749 38.3793C409.749 37.7993 409.609 37.356 409.329 37.0493C409.056 36.736 408.636 36.5793 408.069 36.5793C407.609 36.5793 407.219 36.7026 406.899 36.9493C406.586 37.1893 406.369 37.4893 406.249 37.8493C406.109 38.216 405.926 38.4593 405.699 38.5793C405.472 38.6993 405.149 38.726 404.729 38.6593L403.089 38.3693C403.196 37.6426 403.399 37.0093 403.699 36.4693C404.006 35.9293 404.382 35.4793 404.829 35.1193C405.282 34.7593 405.799 34.4926 406.379 34.3193C406.959 34.1393 407.582 34.0493 408.249 34.0493C408.969 34.0493 409.616 34.156 410.189 34.3693C410.769 34.576 411.262 34.866 411.669 35.2393C412.076 35.6126 412.386 36.0593 412.599 36.5793C412.819 37.0926 412.929 37.6593 412.929 38.2793C412.929 38.8126 412.852 39.306 412.699 39.7593C412.552 40.2126 412.349 40.646 412.089 41.0593C411.829 41.466 411.526 41.8626 411.179 42.2493C410.839 42.6293 410.476 43.016 410.089 43.4093L407.239 46.3293C407.606 46.216 407.969 46.1293 408.329 46.0693C408.689 46.0093 409.022 45.9793 409.329 45.9793H412.049ZM423.651 45.9793C423.984 45.9793 424.247 46.0726 424.441 46.2593C424.634 46.4393 424.731 46.6793 424.731 46.9793V48.7793H414.491V47.7793C414.491 47.586 414.531 47.3793 414.611 47.1593C414.691 46.9393 414.831 46.7393 415.031 46.5593L419.231 42.3293C419.591 41.9693 419.904 41.626 420.171 41.2993C420.437 40.9726 420.657 40.6526 420.831 40.3393C421.004 40.0193 421.134 39.7026 421.221 39.3893C421.307 39.0693 421.351 38.7326 421.351 38.3793C421.351 37.7993 421.211 37.356 420.931 37.0493C420.657 36.736 420.237 36.5793 419.671 36.5793C419.211 36.5793 418.821 36.7026 418.501 36.9493C418.187 37.1893 417.971 37.4893 417.851 37.8493C417.711 38.216 417.527 38.4593 417.301 38.5793C417.074 38.6993 416.751 38.726 416.331 38.6593L414.691 38.3693C414.797 37.6426 415.001 37.0093 415.301 36.4693C415.607 35.9293 415.984 35.4793 416.431 35.1193C416.884 34.7593 417.401 34.4926 417.981 34.3193C418.561 34.1393 419.184 34.0493 419.851 34.0493C420.571 34.0493 421.217 34.156 421.791 34.3693C422.371 34.576 422.864 34.866 423.271 35.2393C423.677 35.6126 423.987 36.0593 424.201 36.5793C424.421 37.0926 424.531 37.6593 424.531 38.2793C424.531 38.8126 424.454 39.306 424.301 39.7593C424.154 40.2126 423.951 40.646 423.691 41.0593C423.431 41.466 423.127 41.8626 422.781 42.2493C422.441 42.6293 422.077 43.016 421.691 43.4093L418.841 46.3293C419.207 46.216 419.571 46.1293 419.931 46.0693C420.291 46.0093 420.624 45.9793 420.931 45.9793H423.651Z" fill="#3F4041"/>
<path d="M479.295 58.7713V62.4593H483.799V63.9713H479.295V68.7793H477.415V57.2593H484.599V58.7713H479.295ZM489.806 62.7793C490.232 62.7793 490.606 62.7286 490.926 62.6273C491.246 62.5206 491.512 62.374 491.726 62.1873C491.939 62.0006 492.099 61.7793 492.206 61.5233C492.312 61.262 492.366 60.974 492.366 60.6593C492.366 60.03 492.158 59.55 491.742 59.2193C491.326 58.8886 490.696 58.7233 489.854 58.7233H488.334V62.7793H489.806ZM495.23 68.7793H493.558C493.227 68.7793 492.987 68.6513 492.838 68.3953L490.15 64.5153C490.059 64.382 489.96 64.286 489.854 64.2273C489.747 64.1686 489.587 64.1393 489.374 64.1393H488.334V68.7793H486.462V57.2593H489.854C490.611 57.2593 491.262 57.3366 491.806 57.4913C492.355 57.646 492.806 57.8673 493.158 58.1553C493.51 58.438 493.768 58.7793 493.934 59.1793C494.104 59.5793 494.19 60.0246 494.19 60.5153C494.19 60.9153 494.128 61.2886 494.006 61.6353C493.888 61.982 493.715 62.2966 493.486 62.5793C493.262 62.862 492.984 63.1073 492.654 63.3153C492.323 63.5233 491.947 63.686 491.526 63.8033C491.755 63.942 491.952 64.1366 492.118 64.3873L495.23 68.7793ZM498.498 68.7793H496.618V57.2593H498.498V68.7793Z" fill="#3F4041"/>
<path d="M485.807 45.9793C486.14 45.9793 486.404 46.0726 486.597 46.2593C486.79 46.4393 486.887 46.6793 486.887 46.9793V48.7793H476.647V47.7793C476.647 47.586 476.687 47.3793 476.767 47.1593C476.847 46.9393 476.987 46.7393 477.187 46.5593L481.387 42.3293C481.747 41.9693 482.06 41.626 482.327 41.2993C482.594 40.9726 482.814 40.6526 482.987 40.3393C483.16 40.0193 483.29 39.7026 483.377 39.3893C483.464 39.0693 483.507 38.7326 483.507 38.3793C483.507 37.7993 483.367 37.356 483.087 37.0493C482.814 36.736 482.394 36.5793 481.827 36.5793C481.367 36.5793 480.977 36.7026 480.657 36.9493C480.344 37.1893 480.127 37.4893 480.007 37.8493C479.867 38.216 479.684 38.4593 479.457 38.5793C479.23 38.6993 478.907 38.726 478.487 38.6593L476.847 38.3693C476.954 37.6426 477.157 37.0093 477.457 36.4693C477.764 35.9293 478.14 35.4793 478.587 35.1193C479.04 34.7593 479.557 34.4926 480.137 34.3193C480.717 34.1393 481.34 34.0493 482.007 34.0493C482.727 34.0493 483.374 34.156 483.947 34.3693C484.527 34.576 485.02 34.866 485.427 35.2393C485.834 35.6126 486.144 36.0593 486.357 36.5793C486.577 37.0926 486.687 37.6593 486.687 38.2793C486.687 38.8126 486.61 39.306 486.457 39.7593C486.31 40.2126 486.107 40.646 485.847 41.0593C485.587 41.466 485.284 41.8626 484.937 42.2493C484.597 42.6293 484.234 43.016 483.847 43.4093L480.997 46.3293C481.364 46.216 481.727 46.1293 482.087 46.0693C482.447 46.0093 482.78 45.9793 483.087 45.9793H485.807ZM488.528 38.3693C488.635 37.6426 488.838 37.0093 489.138 36.4693C489.445 35.9293 489.822 35.4793 490.268 35.1193C490.722 34.7593 491.238 34.4926 491.818 34.3193C492.398 34.1393 493.022 34.0493 493.688 34.0493C494.408 34.0493 495.048 34.1526 495.608 34.3593C496.168 34.5593 496.642 34.8326 497.028 35.1793C497.415 35.526 497.708 35.9293 497.908 36.3893C498.108 36.8426 498.208 37.3226 498.208 37.8293C498.208 38.2893 498.162 38.696 498.068 39.0493C497.975 39.396 497.835 39.6993 497.648 39.9593C497.468 40.2126 497.242 40.4293 496.968 40.6093C496.702 40.7826 496.395 40.9293 496.048 41.0493C497.662 41.616 498.468 42.716 498.468 44.3493C498.468 45.1226 498.328 45.796 498.048 46.3693C497.768 46.9426 497.392 47.4193 496.918 47.7993C496.452 48.1793 495.908 48.466 495.288 48.6593C494.668 48.846 494.022 48.9393 493.348 48.9393C492.655 48.9393 492.038 48.866 491.498 48.7193C490.958 48.566 490.478 48.3326 490.058 48.0193C489.638 47.6993 489.268 47.2926 488.948 46.7993C488.635 46.306 488.362 45.7193 488.128 45.0393L489.508 44.4793C489.868 44.3393 490.202 44.3026 490.508 44.3693C490.815 44.436 491.035 44.5893 491.168 44.8293C491.468 45.3826 491.785 45.786 492.118 46.0393C492.458 46.286 492.855 46.4093 493.308 46.4093C493.655 46.4093 493.955 46.3526 494.208 46.2393C494.468 46.1193 494.682 45.9693 494.848 45.7893C495.022 45.6026 495.152 45.3926 495.238 45.1593C495.325 44.926 495.368 44.6893 495.368 44.4493C495.368 44.136 495.345 43.856 495.298 43.6093C495.258 43.356 495.138 43.1393 494.938 42.9593C494.738 42.7793 494.435 42.6426 494.028 42.5493C493.628 42.4493 493.068 42.3993 492.348 42.3993V40.2593C492.955 40.2593 493.445 40.2126 493.818 40.1193C494.192 40.026 494.478 39.8993 494.678 39.7393C494.885 39.5726 495.022 39.3726 495.088 39.1393C495.155 38.906 495.188 38.6493 495.188 38.3693C495.188 37.796 495.048 37.356 494.768 37.0493C494.495 36.736 494.075 36.5793 493.508 36.5793C493.048 36.5793 492.658 36.7026 492.338 36.9493C492.025 37.1893 491.808 37.4893 491.688 37.8493C491.548 38.216 491.365 38.4593 491.138 38.5793C490.912 38.6993 490.588 38.726 490.168 38.6593L488.528 38.3693Z" fill="#3F4041"/>
<path d="M552.197 59.2273C552.138 59.3233 552.077 59.3953 552.013 59.4433C551.949 59.486 551.869 59.5073 551.773 59.5073C551.671 59.5073 551.557 59.4646 551.429 59.3793C551.306 59.294 551.151 59.2006 550.965 59.0993C550.783 58.9926 550.567 58.8966 550.317 58.8113C550.066 58.7206 549.767 58.6753 549.421 58.6753C549.101 58.6753 548.818 58.7153 548.573 58.7953C548.333 58.8753 548.13 58.9873 547.965 59.1313C547.799 59.2753 547.674 59.446 547.589 59.6433C547.509 59.8353 547.469 60.046 547.469 60.2753C547.469 60.5686 547.546 60.814 547.701 61.0113C547.855 61.2033 548.058 61.3686 548.309 61.5073C548.565 61.646 548.855 61.7686 549.181 61.8753C549.506 61.9766 549.837 62.086 550.173 62.2033C550.514 62.3206 550.847 62.454 551.173 62.6033C551.498 62.7526 551.786 62.942 552.037 63.1713C552.293 63.4006 552.498 63.6806 552.653 64.0113C552.807 64.342 552.885 64.7446 552.885 65.2193C552.885 65.7313 552.797 66.2113 552.621 66.6593C552.445 67.1073 552.189 67.4993 551.853 67.8353C551.522 68.166 551.111 68.4273 550.621 68.6193C550.135 68.8113 549.581 68.9073 548.957 68.9073C548.589 68.9073 548.229 68.87 547.877 68.7953C547.53 68.726 547.197 68.6273 546.877 68.4993C546.562 68.366 546.266 68.206 545.989 68.0193C545.711 67.8326 545.463 67.6246 545.245 67.3953L545.789 66.4993C545.837 66.4246 545.898 66.366 545.973 66.3233C546.047 66.2806 546.13 66.2593 546.221 66.2593C546.343 66.2593 546.479 66.318 546.629 66.4353C546.778 66.5473 546.957 66.6726 547.165 66.8113C547.378 66.9446 547.634 67.07 547.933 67.1873C548.231 67.2993 548.589 67.3553 549.005 67.3553C549.682 67.3553 550.205 67.19 550.573 66.8593C550.946 66.5286 551.133 66.0726 551.133 65.4913C551.133 65.166 551.055 64.902 550.901 64.6993C550.746 64.4913 550.541 64.318 550.285 64.1793C550.034 64.0406 549.746 63.9233 549.421 63.8273C549.095 63.7313 548.765 63.63 548.429 63.5233C548.093 63.4113 547.762 63.2833 547.437 63.1393C547.111 62.99 546.821 62.798 546.565 62.5633C546.314 62.3233 546.111 62.03 545.957 61.6833C545.802 61.3313 545.725 60.894 545.725 60.3713C545.725 59.9553 545.805 59.5526 545.965 59.1633C546.13 58.774 546.367 58.43 546.677 58.1313C546.991 57.8273 547.378 57.5846 547.837 57.4033C548.295 57.222 548.818 57.1313 549.405 57.1313C550.066 57.1313 550.671 57.2353 551.221 57.4433C551.775 57.6513 552.253 57.9473 552.653 58.3313L552.197 59.2273ZM560.784 64.4593L559.2 60.2513C559.072 59.926 558.942 59.5126 558.808 59.0113C558.75 59.262 558.686 59.494 558.616 59.7073C558.547 59.9153 558.483 60.0993 558.424 60.2593L556.84 64.4593H560.784ZM564.328 68.7793H562.88C562.715 68.7793 562.582 68.7393 562.48 68.6593C562.379 68.574 562.302 68.47 562.248 68.3473L561.288 65.8033H556.328L555.368 68.3473C555.326 68.454 555.251 68.5526 555.144 68.6433C555.038 68.734 554.904 68.7793 554.744 68.7793H553.296L557.864 57.2593H559.76L564.328 68.7793ZM572.476 58.8193H568.884V68.7793H567.02V58.8193H563.42V57.2593H572.476V58.8193Z" fill="#3F4041"/>
<path d="M556.565 45.9793C556.898 45.9793 557.161 46.0726 557.355 46.2593C557.548 46.4393 557.645 46.6793 557.645 46.9793V48.7793H547.405V47.7793C547.405 47.586 547.445 47.3793 547.525 47.1593C547.605 46.9393 547.745 46.7393 547.945 46.5593L552.145 42.3293C552.505 41.9693 552.818 41.626 553.085 41.2993C553.351 40.9726 553.571 40.6526 553.745 40.3393C553.918 40.0193 554.048 39.7026 554.135 39.3893C554.221 39.0693 554.265 38.7326 554.265 38.3793C554.265 37.7993 554.125 37.356 553.845 37.0493C553.571 36.736 553.151 36.5793 552.585 36.5793C552.125 36.5793 551.735 36.7026 551.415 36.9493C551.101 37.1893 550.885 37.4893 550.765 37.8493C550.625 38.216 550.441 38.4593 550.215 38.5793C549.988 38.6993 549.665 38.726 549.245 38.6593L547.605 38.3693C547.711 37.6426 547.915 37.0093 548.215 36.4693C548.521 35.9293 548.898 35.4793 549.345 35.1193C549.798 34.7593 550.315 34.4926 550.895 34.3193C551.475 34.1393 552.098 34.0493 552.765 34.0493C553.485 34.0493 554.131 34.156 554.705 34.3693C555.285 34.576 555.778 34.866 556.185 35.2393C556.591 35.6126 556.901 36.0593 557.115 36.5793C557.335 37.0926 557.445 37.6593 557.445 38.2793C557.445 38.8126 557.368 39.306 557.215 39.7593C557.068 40.2126 556.865 40.646 556.605 41.0593C556.345 41.466 556.041 41.8626 555.695 42.2493C555.355 42.6293 554.991 43.016 554.605 43.4093L551.755 46.3293C552.121 46.216 552.485 46.1293 552.845 46.0693C553.205 46.0093 553.538 45.9793 553.845 45.9793H556.565ZM565.356 43.1193V39.3193C565.356 39.086 565.363 38.836 565.376 38.5693C565.396 38.296 565.423 38.0126 565.456 37.7193L561.606 43.1193H565.356ZM569.556 43.1193V44.8593C569.556 45.0126 569.503 45.146 569.396 45.2593C569.296 45.3726 569.15 45.4293 568.956 45.4293H568.056V48.7793H565.356V45.4293H559.496C559.303 45.4293 559.126 45.3693 558.966 45.2493C558.813 45.1293 558.716 44.9793 558.676 44.7993L558.356 43.2693L565.096 34.2093H568.056V43.1193H569.556Z" fill="#3F4041"/>
<path d="M81.6498 59.2273C81.5911 59.3233 81.5298 59.3953 81.4658 59.4433C81.4018 59.486 81.3218 59.5073 81.2258 59.5073C81.1245 59.5073 81.0098 59.4646 80.8818 59.3793C80.7591 59.294 80.6045 59.2006 80.4178 59.0993C80.2365 58.9926 80.0205 58.8966 79.7698 58.8113C79.5191 58.7206 79.2205 58.6753 78.8738 58.6753C78.5538 58.6753 78.2711 58.7153 78.0258 58.7953C77.7858 58.8753 77.5831 58.9873 77.4178 59.1313C77.2525 59.2753 77.1271 59.446 77.0418 59.6433C76.9618 59.8353 76.9218 60.046 76.9218 60.2753C76.9218 60.5686 76.9991 60.814 77.1538 61.0113C77.3085 61.2033 77.5111 61.3686 77.7618 61.5073C78.0178 61.646 78.3085 61.7686 78.6338 61.8753C78.9591 61.9766 79.2898 62.086 79.6258 62.2033C79.9671 62.3206 80.3005 62.454 80.6258 62.6033C80.9511 62.7526 81.2391 62.942 81.4898 63.1713C81.7458 63.4006 81.9511 63.6806 82.1058 64.0113C82.2605 64.342 82.3378 64.7446 82.3378 65.2193C82.3378 65.7313 82.2498 66.2113 82.0738 66.6593C81.8978 67.1073 81.6418 67.4993 81.3058 67.8353C80.9751 68.166 80.5645 68.4273 80.0738 68.6193C79.5885 68.8113 79.0338 68.9073 78.4098 68.9073C78.0418 68.9073 77.6818 68.87 77.3298 68.7953C76.9831 68.726 76.6498 68.6273 76.3298 68.4993C76.0151 68.366 75.7191 68.206 75.4418 68.0193C75.1645 67.8326 74.9165 67.6246 74.6978 67.3953L75.2418 66.4993C75.2898 66.4246 75.3511 66.366 75.4258 66.3233C75.5005 66.2806 75.5831 66.2593 75.6738 66.2593C75.7965 66.2593 75.9325 66.318 76.0818 66.4353C76.2311 66.5473 76.4098 66.6726 76.6178 66.8113C76.8311 66.9446 77.0871 67.07 77.3858 67.1873C77.6845 67.2993 78.0418 67.3553 78.4578 67.3553C79.1351 67.3553 79.6578 67.19 80.0258 66.8593C80.3991 66.5286 80.5858 66.0726 80.5858 65.4913C80.5858 65.166 80.5085 64.902 80.3538 64.6993C80.1991 64.4913 79.9938 64.318 79.7378 64.1793C79.4871 64.0406 79.1991 63.9233 78.8738 63.8273C78.5485 63.7313 78.2178 63.63 77.8818 63.5233C77.5458 63.4113 77.2151 63.2833 76.8898 63.1393C76.5645 62.99 76.2738 62.798 76.0178 62.5633C75.7671 62.3233 75.5645 62.03 75.4098 61.6833C75.2551 61.3313 75.1778 60.894 75.1778 60.3713C75.1778 59.9553 75.2578 59.5526 75.4178 59.1633C75.5831 58.774 75.8205 58.43 76.1298 58.1313C76.4445 57.8273 76.8311 57.5846 77.2898 57.4033C77.7485 57.222 78.2711 57.1313 78.8578 57.1313C79.5191 57.1313 80.1245 57.2353 80.6738 57.4433C81.2285 57.6513 81.7058 57.9473 82.1058 58.3313L81.6498 59.2273ZM88.9042 67.2673C89.3469 67.2673 89.7415 67.1926 90.0882 67.0433C90.4402 66.894 90.7362 66.686 90.9762 66.4193C91.2215 66.1526 91.4082 65.8326 91.5362 65.4593C91.6642 65.0806 91.7282 64.662 91.7282 64.2033V57.2593H93.5922V64.2033C93.5922 64.8806 93.4829 65.5073 93.2642 66.0833C93.0509 66.6593 92.7415 67.158 92.3362 67.5793C91.9309 67.9953 91.4375 68.3233 90.8562 68.5633C90.2802 68.798 89.6295 68.9153 88.9042 68.9153C88.1789 68.9153 87.5255 68.798 86.9442 68.5633C86.3682 68.3233 85.8775 67.9953 85.4722 67.5793C85.0669 67.158 84.7549 66.6593 84.5362 66.0833C84.3229 65.5073 84.2162 64.8806 84.2162 64.2033V57.2593H86.0882V64.1953C86.0882 64.654 86.1522 65.0726 86.2802 65.4513C86.4082 65.8246 86.5922 66.1473 86.8322 66.4193C87.0722 66.686 87.3655 66.894 87.7122 67.0433C88.0642 67.1926 88.4615 67.2673 88.9042 67.2673ZM105.724 57.2593V68.7793H104.772C104.628 68.7793 104.506 68.7553 104.404 68.7073C104.303 68.654 104.207 68.5686 104.116 68.4513L97.7883 60.3233C97.8043 60.478 97.815 60.6326 97.8203 60.7873C97.831 60.9366 97.8363 61.0753 97.8363 61.2033V68.7793H96.1883V57.2593H97.1643C97.2443 57.2593 97.311 57.2646 97.3643 57.2753C97.423 57.2806 97.4763 57.294 97.5243 57.3153C97.5723 57.3366 97.6176 57.3686 97.6603 57.4113C97.703 57.454 97.7483 57.5073 97.7963 57.5713L104.132 65.7073C104.116 65.542 104.103 65.3793 104.092 65.2193C104.087 65.0593 104.084 64.91 104.084 64.7713V57.2593H105.724Z" fill="#3F4041"/>
<path d="M89.2678 46.5393V48.7793H80.9678V46.5393H83.7678V39.1893C83.7678 39.0026 83.7711 38.816 83.7778 38.6293C83.7845 38.436 83.7945 38.2426 83.8078 38.0493L82.1478 39.4293C82.0011 39.5426 81.8545 39.6126 81.7078 39.6393C81.5678 39.6593 81.4345 39.6593 81.3078 39.6393C81.1811 39.6126 81.0678 39.5693 80.9678 39.5093C80.8678 39.4426 80.7945 39.376 80.7478 39.3093L79.7678 38.0093L84.3078 34.1993H86.8678V46.5393H89.2678ZM96.1594 46.5993C96.506 46.5993 96.806 46.546 97.0594 46.4393C97.3127 46.3326 97.5194 46.1893 97.6794 46.0093C97.846 45.8226 97.966 45.606 98.0394 45.3593C98.1194 45.106 98.1594 44.836 98.1594 44.5493C98.1594 44.236 98.126 43.9493 98.0594 43.6893C97.9927 43.4293 97.8827 43.2093 97.7294 43.0293C97.576 42.8426 97.3694 42.6993 97.1094 42.5993C96.856 42.4926 96.5394 42.4393 96.1594 42.4393C95.7794 42.4393 95.4594 42.4926 95.1994 42.5993C94.946 42.6993 94.7427 42.8426 94.5894 43.0293C94.436 43.2093 94.326 43.4293 94.2594 43.6893C94.1927 43.9493 94.1594 44.236 94.1594 44.5493C94.1594 44.836 94.196 45.106 94.2694 45.3593C94.3494 45.606 94.4694 45.8226 94.6294 46.0093C94.796 46.1893 95.0027 46.3326 95.2494 46.4393C95.5027 46.546 95.806 46.5993 96.1594 46.5993ZM96.1594 36.3093C95.846 36.3093 95.5827 36.3593 95.3694 36.4593C95.156 36.5593 94.9794 36.6926 94.8394 36.8593C94.706 37.0193 94.6094 37.206 94.5494 37.4193C94.4894 37.6326 94.4594 37.8526 94.4594 38.0793C94.4594 38.3326 94.4827 38.5793 94.5294 38.8193C94.576 39.0593 94.6627 39.2726 94.7894 39.4593C94.916 39.646 95.0894 39.796 95.3094 39.9093C95.5294 40.0226 95.8127 40.0793 96.1594 40.0793C96.506 40.0793 96.7894 40.0226 97.0094 39.9093C97.2294 39.796 97.4027 39.646 97.5294 39.4593C97.656 39.2726 97.7427 39.0593 97.7894 38.8193C97.836 38.5793 97.8594 38.3326 97.8594 38.0793C97.8594 37.8526 97.8294 37.6326 97.7694 37.4193C97.7094 37.206 97.6094 37.0193 97.4694 36.8593C97.336 36.6926 97.1594 36.5593 96.9394 36.4593C96.726 36.3593 96.466 36.3093 96.1594 36.3093ZM98.9094 41.1793C99.3427 41.3326 99.7127 41.5226 100.019 41.7493C100.333 41.976 100.586 42.236 100.779 42.5293C100.979 42.8226 101.126 43.146 101.219 43.4993C101.313 43.846 101.359 44.216 101.359 44.6093C101.359 45.2626 101.233 45.856 100.979 46.3893C100.733 46.9226 100.379 47.3793 99.9194 47.7593C99.466 48.1326 98.9194 48.4226 98.2794 48.6293C97.6394 48.836 96.9327 48.9393 96.1594 48.9393C95.386 48.9393 94.6794 48.836 94.0394 48.6293C93.3994 48.4226 92.8494 48.1326 92.3894 47.7593C91.936 47.3793 91.5827 46.9226 91.3294 46.3893C91.0827 45.856 90.9594 45.2626 90.9594 44.6093C90.9594 44.216 91.006 43.846 91.0994 43.4993C91.1927 43.146 91.336 42.8226 91.5294 42.5293C91.7294 42.236 91.9827 41.976 92.2894 41.7493C92.6027 41.5226 92.976 41.3326 93.4094 41.1793C92.7494 40.8793 92.256 40.466 91.9294 39.9393C91.6027 39.406 91.4394 38.766 91.4394 38.0193C91.4394 37.4526 91.556 36.9293 91.7894 36.4493C92.0227 35.9626 92.3494 35.5426 92.7694 35.1893C93.1894 34.836 93.686 34.5593 94.2594 34.3593C94.8394 34.1526 95.4727 34.0493 96.1594 34.0493C96.846 34.0493 97.476 34.1526 98.0494 34.3593C98.6294 34.5593 99.1294 34.836 99.5494 35.1893C99.9694 35.5426 100.296 35.9626 100.529 36.4493C100.763 36.9293 100.879 37.4526 100.879 38.0193C100.879 38.766 100.716 39.406 100.389 39.9393C100.063 40.466 99.5694 40.8793 98.9094 41.1793Z" fill="#3F4041"/>
<rect x="132.535" y="160.944" width="78.5625" height="12.5508" rx="2" fill="#5ED6A4" fill-opacity="0.6"/>
<path d="M193.402 170.874C193.6 170.874 193.791 170.947 193.932 171.076C194.073 171.205 194.152 171.38 194.152 171.563V177.302C194.152 177.423 194.204 177.54 194.298 177.626C194.392 177.712 194.519 177.761 194.652 177.761C194.784 177.761 194.911 177.712 195.005 177.626C195.099 177.54 195.152 177.423 195.152 177.302V174.976L195.238 174.972C195.555 174.961 195.875 174.965 196.054 174.997C196.188 175.022 196.348 175.085 196.502 175.164C196.579 175.203 196.652 175.299 196.652 175.452V177.302C196.652 177.423 196.704 177.54 196.798 177.626C196.892 177.712 197.019 177.761 197.152 177.761C197.284 177.761 197.411 177.712 197.505 177.626C197.599 177.54 197.652 177.423 197.652 177.302V175.865L197.758 175.855C198.074 175.833 198.342 175.846 198.466 175.892C198.584 175.934 198.766 176.082 198.952 176.287C199.033 176.375 199.102 176.461 199.152 176.525V177.761C199.152 177.882 199.204 177.999 199.298 178.085C199.392 178.171 199.519 178.22 199.652 178.22C199.784 178.22 199.911 178.171 200.005 178.085C200.099 177.999 200.152 177.882 200.152 177.761V176.843H200.494C200.633 176.843 200.771 176.869 200.899 176.921C201.027 176.974 201.141 177.05 201.235 177.145C201.329 177.24 201.4 177.352 201.444 177.474C201.487 177.596 201.503 177.725 201.489 177.853L201.218 180.345C201.183 180.666 201.075 180.976 200.901 181.255L199.506 183.498C199.462 183.568 199.399 183.626 199.322 183.667C199.246 183.708 199.16 183.729 199.072 183.729H192.77C192.677 183.729 192.586 183.705 192.507 183.661C192.428 183.616 192.364 183.552 192.323 183.476L191.091 181.212L188.579 177.37C188.514 177.27 188.491 177.153 188.514 177.039C188.538 176.925 188.605 176.823 188.705 176.752C188.804 176.681 188.928 176.646 189.054 176.653C189.18 176.66 189.298 176.709 189.388 176.79L191.798 179.003C191.867 179.067 191.956 179.111 192.053 179.129C192.151 179.147 192.251 179.138 192.343 179.103C192.434 179.068 192.512 179.01 192.567 178.934C192.622 178.859 192.652 178.77 192.652 178.679V171.563C192.652 171.38 192.731 171.205 192.871 171.076C193.012 170.947 193.203 170.874 193.402 170.874ZM195.152 174.057V171.563C195.152 171.137 194.967 170.728 194.639 170.427C194.311 170.125 193.866 169.956 193.402 169.956C192.937 169.956 192.492 170.125 192.164 170.427C191.836 170.728 191.652 171.137 191.652 171.563V177.571L190.095 176.141C189.833 175.902 189.485 175.759 189.116 175.738C188.747 175.718 188.383 175.822 188.091 176.031C187.8 176.239 187.602 176.538 187.534 176.872C187.466 177.205 187.532 177.55 187.722 177.842L190.213 181.655L191.428 183.886C191.552 184.115 191.744 184.307 191.981 184.442C192.218 184.576 192.491 184.647 192.77 184.647H199.072C199.336 184.647 199.596 184.583 199.824 184.461C200.053 184.339 200.242 184.164 200.374 183.953L201.769 181.712C202.012 181.32 202.164 180.885 202.213 180.436L202.484 177.943C202.511 177.688 202.481 177.43 202.393 177.187C202.306 176.943 202.164 176.719 201.976 176.529C201.789 176.338 201.56 176.186 201.305 176.082C201.049 175.978 200.773 175.924 200.494 175.924H199.913C199.85 175.847 199.785 175.771 199.718 175.697C199.527 175.486 199.208 175.175 198.838 175.039C198.474 174.905 197.992 174.918 197.68 174.94L197.548 174.951C197.441 174.701 197.243 174.492 196.988 174.362C196.758 174.239 196.509 174.15 196.25 174.097C195.94 174.04 195.511 174.044 195.2 174.055L195.152 174.057Z" fill="#3F4041"/>
</svg>
