<svg width="615" height="327" viewBox="0 0 615 327" fill="none" xmlns="http://www.w3.org/2000/svg">
<rect x="0.511719" y="0.509766" width="613.922" height="325.9" rx="29" fill="#E9EDFA"/>
<path d="M17.5966 119.639V120.934H11.9966V119.639H14.0476V113.738C14.0476 113.504 14.0546 113.264 14.0686 113.017L12.6126 114.235C12.5286 114.3 12.4446 114.342 12.3606 114.361C12.2812 114.375 12.2042 114.375 12.1296 114.361C12.0596 114.347 11.9966 114.323 11.9406 114.291C11.8846 114.253 11.8426 114.214 11.8146 114.172L11.2686 113.423L14.3556 110.798H15.7766V119.639H17.5966ZM19.2287 113.633C19.2987 113.147 19.434 112.723 19.6347 112.359C19.8353 111.99 20.085 111.684 20.3837 111.442C20.687 111.194 21.0323 111.01 21.4197 110.889C21.8117 110.763 22.2317 110.7 22.6797 110.7C23.1463 110.7 23.5663 110.767 23.9397 110.903C24.3177 111.033 24.6397 111.218 24.9057 111.456C25.1717 111.689 25.3747 111.964 25.5147 112.282C25.6593 112.599 25.7317 112.942 25.7317 113.311C25.7317 113.633 25.6943 113.917 25.6197 114.165C25.5497 114.407 25.447 114.62 25.3117 114.802C25.1763 114.984 25.0083 115.138 24.8077 115.264C24.607 115.39 24.3807 115.495 24.1287 115.579C24.7353 115.77 25.188 116.062 25.4867 116.454C25.7853 116.846 25.9347 117.338 25.9347 117.931C25.9347 118.435 25.8413 118.88 25.6547 119.268C25.468 119.655 25.216 119.982 24.8987 120.248C24.5813 120.509 24.2127 120.707 23.7927 120.843C23.3773 120.978 22.9363 121.046 22.4697 121.046C21.961 121.046 21.5177 120.987 21.1397 120.871C20.7617 120.754 20.4327 120.581 20.1527 120.353C19.8727 120.124 19.6347 119.844 19.4387 119.513C19.2427 119.181 19.0747 118.799 18.9347 118.365L19.6977 118.05C19.8983 117.966 20.085 117.945 20.2577 117.987C20.435 118.024 20.5633 118.117 20.6427 118.267C20.7267 118.43 20.8177 118.591 20.9157 118.75C21.0183 118.908 21.1397 119.051 21.2797 119.177C21.4197 119.298 21.583 119.398 21.7697 119.478C21.961 119.552 22.1873 119.59 22.4487 119.59C22.7427 119.59 22.9993 119.543 23.2187 119.45C23.438 119.352 23.62 119.226 23.7647 119.072C23.914 118.918 24.0237 118.747 24.0937 118.561C24.1683 118.369 24.2057 118.178 24.2057 117.987C24.2057 117.744 24.18 117.525 24.1287 117.329C24.0773 117.128 23.97 116.958 23.8067 116.818C23.6433 116.678 23.4077 116.568 23.0997 116.489C22.7963 116.409 22.388 116.37 21.8747 116.37V115.138C22.2993 115.133 22.6517 115.093 22.9317 115.019C23.2117 114.944 23.4333 114.841 23.5967 114.711C23.7647 114.575 23.8813 114.414 23.9467 114.228C24.012 114.041 24.0447 113.836 24.0447 113.612C24.0447 113.136 23.9117 112.774 23.6457 112.527C23.3797 112.279 23.025 112.156 22.5817 112.156C22.3763 112.156 22.1873 112.186 22.0147 112.247C21.842 112.303 21.6857 112.384 21.5457 112.492C21.4103 112.594 21.296 112.716 21.2027 112.856C21.1093 112.996 21.0393 113.15 20.9927 113.318C20.9133 113.532 20.8083 113.675 20.6777 113.745C20.5517 113.815 20.372 113.831 20.1387 113.794L19.2287 113.633ZM27.3358 119.982C27.3358 119.837 27.3614 119.699 27.4128 119.569C27.4688 119.438 27.5434 119.326 27.6368 119.233C27.7301 119.139 27.8421 119.065 27.9728 119.009C28.1034 118.953 28.2434 118.925 28.3927 118.925C28.5421 118.925 28.6798 118.953 28.8058 119.009C28.9364 119.065 29.0484 119.139 29.1418 119.233C29.2398 119.326 29.3168 119.438 29.3728 119.569C29.4288 119.699 29.4568 119.837 29.4568 119.982C29.4568 120.131 29.4288 120.271 29.3728 120.402C29.3168 120.528 29.2398 120.637 29.1418 120.731C29.0484 120.824 28.9364 120.896 28.8058 120.948C28.6798 121.004 28.5421 121.032 28.3927 121.032C28.2434 121.032 28.1034 121.004 27.9728 120.948C27.8421 120.896 27.7301 120.824 27.6368 120.731C27.5434 120.637 27.4688 120.528 27.4128 120.402C27.3614 120.271 27.3358 120.131 27.3358 119.982ZM27.3358 114.991C27.3358 114.846 27.3614 114.708 27.4128 114.578C27.4688 114.447 27.5434 114.335 27.6368 114.242C27.7301 114.148 27.8421 114.074 27.9728 114.018C28.1034 113.962 28.2434 113.934 28.3927 113.934C28.5421 113.934 28.6798 113.962 28.8058 114.018C28.9364 114.074 29.0484 114.148 29.1418 114.242C29.2398 114.335 29.3168 114.447 29.3728 114.578C29.4288 114.708 29.4568 114.846 29.4568 114.991C29.4568 115.14 29.4288 115.28 29.3728 115.411C29.3168 115.537 29.2398 115.646 29.1418 115.74C29.0484 115.833 28.9364 115.908 28.8058 115.964C28.6798 116.015 28.5421 116.041 28.3927 116.041C28.2434 116.041 28.1034 116.015 27.9728 115.964C27.8421 115.908 27.7301 115.833 27.6368 115.74C27.5434 115.646 27.4688 115.537 27.4128 115.411C27.3614 115.28 27.3358 115.14 27.3358 114.991ZM41.3774 115.873C41.3774 116.755 41.2818 117.522 41.0904 118.176C40.9038 118.824 40.6424 119.361 40.3064 119.786C39.9751 120.21 39.5808 120.528 39.1234 120.738C38.6708 120.943 38.1808 121.046 37.6534 121.046C37.1261 121.046 36.6361 120.943 36.1834 120.738C35.7354 120.528 35.3458 120.21 35.0144 119.786C34.6831 119.361 34.4241 118.824 34.2374 118.176C34.0508 117.522 33.9574 116.755 33.9574 115.873C33.9574 114.986 34.0508 114.218 34.2374 113.57C34.4241 112.921 34.6831 112.384 35.0144 111.96C35.3458 111.535 35.7354 111.22 36.1834 111.015C36.6361 110.805 37.1261 110.7 37.6534 110.7C38.1808 110.7 38.6708 110.805 39.1234 111.015C39.5808 111.22 39.9751 111.535 40.3064 111.96C40.6424 112.384 40.9038 112.921 41.0904 113.57C41.2818 114.218 41.3774 114.986 41.3774 115.873ZM39.5924 115.873C39.5924 115.14 39.5388 114.533 39.4314 114.053C39.3241 113.572 39.1794 113.189 38.9974 112.905C38.8201 112.62 38.6148 112.422 38.3814 112.31C38.1481 112.193 37.9054 112.135 37.6534 112.135C37.4061 112.135 37.1658 112.193 36.9324 112.31C36.7038 112.422 36.5008 112.62 36.3234 112.905C36.1461 113.189 36.0038 113.572 35.8964 114.053C35.7938 114.533 35.7424 115.14 35.7424 115.873C35.7424 116.605 35.7938 117.212 35.8964 117.693C36.0038 118.173 36.1461 118.556 36.3234 118.841C36.5008 119.125 36.7038 119.326 36.9324 119.443C37.1658 119.555 37.4061 119.611 37.6534 119.611C37.9054 119.611 38.1481 119.555 38.3814 119.443C38.6148 119.326 38.8201 119.125 38.9974 118.841C39.1794 118.556 39.3241 118.173 39.4314 117.693C39.5388 117.212 39.5924 116.605 39.5924 115.873ZM49.4985 115.873C49.4985 116.755 49.4028 117.522 49.2115 118.176C49.0248 118.824 48.7635 119.361 48.4275 119.786C48.0962 120.21 47.7018 120.528 47.2445 120.738C46.7918 120.943 46.3018 121.046 45.7745 121.046C45.2472 121.046 44.7572 120.943 44.3045 120.738C43.8565 120.528 43.4668 120.21 43.1355 119.786C42.8042 119.361 42.5452 118.824 42.3585 118.176C42.1718 117.522 42.0785 116.755 42.0785 115.873C42.0785 114.986 42.1718 114.218 42.3585 113.57C42.5452 112.921 42.8042 112.384 43.1355 111.96C43.4668 111.535 43.8565 111.22 44.3045 111.015C44.7572 110.805 45.2472 110.7 45.7745 110.7C46.3018 110.7 46.7918 110.805 47.2445 111.015C47.7018 111.22 48.0962 111.535 48.4275 111.96C48.7635 112.384 49.0248 112.921 49.2115 113.57C49.4028 114.218 49.4985 114.986 49.4985 115.873ZM47.7135 115.873C47.7135 115.14 47.6598 114.533 47.5525 114.053C47.4452 113.572 47.3005 113.189 47.1185 112.905C46.9412 112.62 46.7358 112.422 46.5025 112.31C46.2692 112.193 46.0265 112.135 45.7745 112.135C45.5272 112.135 45.2868 112.193 45.0535 112.31C44.8248 112.422 44.6218 112.62 44.4445 112.905C44.2672 113.189 44.1248 113.572 44.0175 114.053C43.9148 114.533 43.8635 115.14 43.8635 115.873C43.8635 116.605 43.9148 117.212 44.0175 117.693C44.1248 118.173 44.2672 118.556 44.4445 118.841C44.6218 119.125 44.8248 119.326 45.0535 119.443C45.2868 119.555 45.5272 119.611 45.7745 119.611C46.0265 119.611 46.2692 119.555 46.5025 119.443C46.7358 119.326 46.9412 119.125 47.1185 118.841C47.3005 118.556 47.4452 118.173 47.5525 117.693C47.6598 117.212 47.7135 116.605 47.7135 115.873Z" fill="#3F4041"/>
<path d="M18.1005 166.664V167.959H12.5005V166.664H14.5515V160.763C14.5515 160.53 14.5585 160.289 14.5725 160.042L13.1165 161.26C13.0325 161.325 12.9485 161.367 12.8645 161.386C12.7851 161.4 12.7081 161.4 12.6335 161.386C12.5635 161.372 12.5005 161.349 12.4445 161.316C12.3885 161.279 12.3465 161.239 12.3185 161.197L11.7725 160.448L14.8595 157.823H16.2805V166.664H18.1005ZM23.9606 164.144V160.833C23.9606 160.52 23.9816 160.175 24.0236 159.797L20.8806 164.144H23.9606ZM26.7396 164.144V165.145C26.7396 165.238 26.7092 165.32 26.6486 165.39C26.5879 165.455 26.5016 165.488 26.3896 165.488H25.4656V167.959H23.9606V165.488H19.6906C19.5739 165.488 19.4712 165.453 19.3826 165.383C19.2939 165.308 19.2379 165.217 19.2146 165.11L19.0326 164.235L23.8276 157.83H25.4656V164.144H26.7396ZM27.8397 167.007C27.8397 166.862 27.8653 166.725 27.9167 166.594C27.9727 166.463 28.0473 166.351 28.1407 166.258C28.234 166.165 28.346 166.09 28.4767 166.034C28.6073 165.978 28.7473 165.95 28.8967 165.95C29.046 165.95 29.1837 165.978 29.3097 166.034C29.4403 166.09 29.5523 166.165 29.6457 166.258C29.7437 166.351 29.8207 166.463 29.8767 166.594C29.9327 166.725 29.9607 166.862 29.9607 167.007C29.9607 167.156 29.9327 167.296 29.8767 167.427C29.8207 167.553 29.7437 167.663 29.6457 167.756C29.5523 167.849 29.4403 167.922 29.3097 167.973C29.1837 168.029 29.046 168.057 28.8967 168.057C28.7473 168.057 28.6073 168.029 28.4767 167.973C28.346 167.922 28.234 167.849 28.1407 167.756C28.0473 167.663 27.9727 167.553 27.9167 167.427C27.8653 167.296 27.8397 167.156 27.8397 167.007ZM27.8397 162.016C27.8397 161.871 27.8653 161.734 27.9167 161.603C27.9727 161.472 28.0473 161.36 28.1407 161.267C28.234 161.174 28.346 161.099 28.4767 161.043C28.6073 160.987 28.7473 160.959 28.8967 160.959C29.046 160.959 29.1837 160.987 29.3097 161.043C29.4403 161.099 29.5523 161.174 29.6457 161.267C29.7437 161.36 29.8207 161.472 29.8767 161.603C29.9327 161.734 29.9607 161.871 29.9607 162.016C29.9607 162.165 29.9327 162.305 29.8767 162.436C29.8207 162.562 29.7437 162.672 29.6457 162.765C29.5523 162.858 29.4403 162.933 29.3097 162.989C29.1837 163.04 29.046 163.066 28.8967 163.066C28.7473 163.066 28.6073 163.04 28.4767 162.989C28.346 162.933 28.234 162.858 28.1407 162.765C28.0473 162.672 27.9727 162.562 27.9167 162.436C27.8653 162.305 27.8397 162.165 27.8397 162.016ZM41.8813 162.898C41.8813 163.78 41.7857 164.548 41.5943 165.201C41.4077 165.85 41.1463 166.386 40.8103 166.811C40.479 167.236 40.0847 167.553 39.6273 167.763C39.1747 167.968 38.6847 168.071 38.1573 168.071C37.63 168.071 37.14 167.968 36.6873 167.763C36.2393 167.553 35.8497 167.236 35.5183 166.811C35.187 166.386 34.928 165.85 34.7413 165.201C34.5547 164.548 34.4613 163.78 34.4613 162.898C34.4613 162.011 34.5547 161.244 34.7413 160.595C34.928 159.946 35.187 159.41 35.5183 158.985C35.8497 158.56 36.2393 158.245 36.6873 158.04C37.14 157.83 37.63 157.725 38.1573 157.725C38.6847 157.725 39.1747 157.83 39.6273 158.04C40.0847 158.245 40.479 158.56 40.8103 158.985C41.1463 159.41 41.4077 159.946 41.5943 160.595C41.7857 161.244 41.8813 162.011 41.8813 162.898ZM40.0963 162.898C40.0963 162.165 40.0427 161.559 39.9353 161.078C39.828 160.597 39.6833 160.215 39.5013 159.93C39.324 159.645 39.1187 159.447 38.8853 159.335C38.652 159.218 38.4093 159.16 38.1573 159.16C37.91 159.16 37.6697 159.218 37.4363 159.335C37.2077 159.447 37.0047 159.645 36.8273 159.93C36.65 160.215 36.5077 160.597 36.4003 161.078C36.2977 161.559 36.2463 162.165 36.2463 162.898C36.2463 163.631 36.2977 164.237 36.4003 164.718C36.5077 165.199 36.65 165.581 36.8273 165.866C37.0047 166.151 37.2077 166.351 37.4363 166.468C37.6697 166.58 37.91 166.636 38.1573 166.636C38.4093 166.636 38.652 166.58 38.8853 166.468C39.1187 166.351 39.324 166.151 39.5013 165.866C39.6833 165.581 39.828 165.199 39.9353 164.718C40.0427 164.237 40.0963 163.631 40.0963 162.898ZM50.0024 162.898C50.0024 163.78 49.9068 164.548 49.7154 165.201C49.5288 165.85 49.2674 166.386 48.9314 166.811C48.6001 167.236 48.2058 167.553 47.7484 167.763C47.2958 167.968 46.8058 168.071 46.2784 168.071C45.7511 168.071 45.2611 167.968 44.8084 167.763C44.3604 167.553 43.9708 167.236 43.6394 166.811C43.3081 166.386 43.0491 165.85 42.8624 165.201C42.6758 164.548 42.5824 163.78 42.5824 162.898C42.5824 162.011 42.6758 161.244 42.8624 160.595C43.0491 159.946 43.3081 159.41 43.6394 158.985C43.9708 158.56 44.3604 158.245 44.8084 158.04C45.2611 157.83 45.7511 157.725 46.2784 157.725C46.8058 157.725 47.2958 157.83 47.7484 158.04C48.2058 158.245 48.6001 158.56 48.9314 158.985C49.2674 159.41 49.5288 159.946 49.7154 160.595C49.9068 161.244 50.0024 162.011 50.0024 162.898ZM48.2174 162.898C48.2174 162.165 48.1638 161.559 48.0564 161.078C47.9491 160.597 47.8044 160.215 47.6224 159.93C47.4451 159.645 47.2398 159.447 47.0064 159.335C46.7731 159.218 46.5304 159.16 46.2784 159.16C46.0311 159.16 45.7908 159.218 45.5574 159.335C45.3288 159.447 45.1258 159.645 44.9484 159.93C44.7711 160.215 44.6288 160.597 44.5214 161.078C44.4188 161.559 44.3674 162.165 44.3674 162.898C44.3674 163.631 44.4188 164.237 44.5214 164.718C44.6288 165.199 44.7711 165.581 44.9484 165.866C45.1258 166.151 45.3288 166.351 45.5574 166.468C45.7908 166.58 46.0311 166.636 46.2784 166.636C46.5304 166.636 46.7731 166.58 47.0064 166.468C47.2398 166.351 47.4451 166.151 47.6224 165.866C47.8044 165.581 47.9491 165.199 48.0564 164.718C48.1638 164.237 48.2174 163.631 48.2174 162.898Z" fill="#3F4041"/>
<path d="M17.5966 213.689V214.984H11.9966V213.689H14.0476V207.788C14.0476 207.555 14.0546 207.315 14.0686 207.067L12.6126 208.285C12.5286 208.351 12.4446 208.393 12.3606 208.411C12.2812 208.425 12.2042 208.425 12.1296 208.411C12.0596 208.397 11.9966 208.374 11.9406 208.341C11.8846 208.304 11.8426 208.264 11.8146 208.222L11.2686 207.473L14.3556 204.848H15.7766V213.689H17.5966ZM21.3147 208.537C21.5387 208.491 21.7533 208.458 21.9587 208.439C22.164 208.416 22.3623 208.404 22.5537 208.404C23.0857 208.404 23.5547 208.484 23.9607 208.642C24.3667 208.801 24.7073 209.02 24.9827 209.3C25.258 209.58 25.4657 209.909 25.6057 210.287C25.7457 210.661 25.8157 211.064 25.8157 211.498C25.8157 212.035 25.72 212.525 25.5287 212.968C25.342 213.412 25.0807 213.792 24.7447 214.109C24.4087 214.422 24.0097 214.665 23.5477 214.837C23.0903 215.01 22.591 215.096 22.0497 215.096C21.7323 215.096 21.4313 215.064 21.1467 214.998C20.862 214.933 20.5937 214.847 20.3417 214.739C20.0943 214.627 19.8633 214.501 19.6487 214.361C19.4387 214.217 19.2497 214.065 19.0817 213.906L19.6137 213.171C19.7257 213.013 19.8727 212.933 20.0547 212.933C20.1713 212.933 20.2903 212.971 20.4117 213.045C20.533 213.12 20.6707 213.202 20.8247 213.29C20.9833 213.379 21.1677 213.461 21.3777 213.535C21.5923 213.61 21.849 213.647 22.1477 213.647C22.465 213.647 22.745 213.596 22.9877 213.493C23.2303 213.391 23.431 213.248 23.5897 213.066C23.753 212.88 23.8743 212.66 23.9537 212.408C24.0377 212.152 24.0797 211.874 24.0797 211.575C24.0797 211.025 23.9187 210.595 23.5967 210.287C23.2793 209.975 22.808 209.818 22.1827 209.818C21.702 209.818 21.2097 209.907 20.7057 210.084L19.6277 209.776L20.4677 204.862H25.4657V205.597C25.4657 205.845 25.3887 206.045 25.2347 206.199C25.0807 206.353 24.8193 206.43 24.4507 206.43H21.6717L21.3147 208.537ZM27.3358 214.032C27.3358 213.888 27.3614 213.75 27.4128 213.619C27.4688 213.489 27.5434 213.377 27.6368 213.283C27.7301 213.19 27.8421 213.115 27.9728 213.059C28.1034 213.003 28.2434 212.975 28.3927 212.975C28.5421 212.975 28.6798 213.003 28.8058 213.059C28.9364 213.115 29.0484 213.19 29.1418 213.283C29.2398 213.377 29.3168 213.489 29.3728 213.619C29.4288 213.75 29.4568 213.888 29.4568 214.032C29.4568 214.182 29.4288 214.322 29.3728 214.452C29.3168 214.578 29.2398 214.688 29.1418 214.781C29.0484 214.875 28.9364 214.947 28.8058 214.998C28.6798 215.054 28.5421 215.082 28.3927 215.082C28.2434 215.082 28.1034 215.054 27.9728 214.998C27.8421 214.947 27.7301 214.875 27.6368 214.781C27.5434 214.688 27.4688 214.578 27.4128 214.452C27.3614 214.322 27.3358 214.182 27.3358 214.032ZM27.3358 209.041C27.3358 208.897 27.3614 208.759 27.4128 208.628C27.4688 208.498 27.5434 208.386 27.6368 208.292C27.7301 208.199 27.8421 208.124 27.9728 208.068C28.1034 208.012 28.2434 207.984 28.3927 207.984C28.5421 207.984 28.6798 208.012 28.8058 208.068C28.9364 208.124 29.0484 208.199 29.1418 208.292C29.2398 208.386 29.3168 208.498 29.3728 208.628C29.4288 208.759 29.4568 208.897 29.4568 209.041C29.4568 209.191 29.4288 209.331 29.3728 209.461C29.3168 209.587 29.2398 209.697 29.1418 209.79C29.0484 209.884 28.9364 209.958 28.8058 210.014C28.6798 210.066 28.5421 210.091 28.3927 210.091C28.2434 210.091 28.1034 210.066 27.9728 210.014C27.8421 209.958 27.7301 209.884 27.6368 209.79C27.5434 209.697 27.4688 209.587 27.4128 209.461C27.3614 209.331 27.3358 209.191 27.3358 209.041ZM41.3774 209.923C41.3774 210.805 41.2818 211.573 41.0904 212.226C40.9038 212.875 40.6424 213.412 40.3064 213.836C39.9751 214.261 39.5808 214.578 39.1234 214.788C38.6708 214.994 38.1808 215.096 37.6534 215.096C37.1261 215.096 36.6361 214.994 36.1834 214.788C35.7354 214.578 35.3458 214.261 35.0144 213.836C34.6831 213.412 34.4241 212.875 34.2374 212.226C34.0508 211.573 33.9574 210.805 33.9574 209.923C33.9574 209.037 34.0508 208.269 34.2374 207.62C34.4241 206.972 34.6831 206.435 35.0144 206.01C35.3458 205.586 35.7354 205.271 36.1834 205.065C36.6361 204.855 37.1261 204.75 37.6534 204.75C38.1808 204.75 38.6708 204.855 39.1234 205.065C39.5808 205.271 39.9751 205.586 40.3064 206.01C40.6424 206.435 40.9038 206.972 41.0904 207.62C41.2818 208.269 41.3774 209.037 41.3774 209.923ZM39.5924 209.923C39.5924 209.191 39.5388 208.584 39.4314 208.103C39.3241 207.623 39.1794 207.24 38.9974 206.955C38.8201 206.671 38.6148 206.472 38.3814 206.36C38.1481 206.244 37.9054 206.185 37.6534 206.185C37.4061 206.185 37.1658 206.244 36.9324 206.36C36.7038 206.472 36.5008 206.671 36.3234 206.955C36.1461 207.24 36.0038 207.623 35.8964 208.103C35.7938 208.584 35.7424 209.191 35.7424 209.923C35.7424 210.656 35.7938 211.263 35.8964 211.743C36.0038 212.224 36.1461 212.607 36.3234 212.891C36.5008 213.176 36.7038 213.377 36.9324 213.493C37.1658 213.605 37.4061 213.661 37.6534 213.661C37.9054 213.661 38.1481 213.605 38.3814 213.493C38.6148 213.377 38.8201 213.176 38.9974 212.891C39.1794 212.607 39.3241 212.224 39.4314 211.743C39.5388 211.263 39.5924 210.656 39.5924 209.923ZM49.4985 209.923C49.4985 210.805 49.4028 211.573 49.2115 212.226C49.0248 212.875 48.7635 213.412 48.4275 213.836C48.0962 214.261 47.7018 214.578 47.2445 214.788C46.7918 214.994 46.3018 215.096 45.7745 215.096C45.2472 215.096 44.7572 214.994 44.3045 214.788C43.8565 214.578 43.4668 214.261 43.1355 213.836C42.8042 213.412 42.5452 212.875 42.3585 212.226C42.1718 211.573 42.0785 210.805 42.0785 209.923C42.0785 209.037 42.1718 208.269 42.3585 207.62C42.5452 206.972 42.8042 206.435 43.1355 206.01C43.4668 205.586 43.8565 205.271 44.3045 205.065C44.7572 204.855 45.2472 204.75 45.7745 204.75C46.3018 204.75 46.7918 204.855 47.2445 205.065C47.7018 205.271 48.0962 205.586 48.4275 206.01C48.7635 206.435 49.0248 206.972 49.2115 207.62C49.4028 208.269 49.4985 209.037 49.4985 209.923ZM47.7135 209.923C47.7135 209.191 47.6598 208.584 47.5525 208.103C47.4452 207.623 47.3005 207.24 47.1185 206.955C46.9412 206.671 46.7358 206.472 46.5025 206.36C46.2692 206.244 46.0265 206.185 45.7745 206.185C45.5272 206.185 45.2868 206.244 45.0535 206.36C44.8248 206.472 44.6218 206.671 44.4445 206.955C44.2672 207.24 44.1248 207.623 44.0175 208.103C43.9148 208.584 43.8635 209.191 43.8635 209.923C43.8635 210.656 43.9148 211.263 44.0175 211.743C44.1248 212.224 44.2672 212.607 44.4445 212.891C44.6218 213.176 44.8248 213.377 45.0535 213.493C45.2868 213.605 45.5272 213.661 45.7745 213.661C46.0265 213.661 46.2692 213.605 46.5025 213.493C46.7358 213.377 46.9412 213.176 47.1185 212.891C47.3005 212.607 47.4452 212.224 47.5525 211.743C47.6598 211.263 47.7135 210.656 47.7135 209.923Z" fill="#3F4041"/>
<path d="M18.6005 260.715V262.01H13.0005V260.715H15.0515V254.814C15.0515 254.58 15.0585 254.34 15.0725 254.093L13.6165 255.311C13.5325 255.376 13.4485 255.418 13.3645 255.437C13.2851 255.451 13.2081 255.451 13.1335 255.437C13.0635 255.423 13.0005 255.399 12.9445 255.367C12.8885 255.329 12.8465 255.29 12.8185 255.248L12.2725 254.499L15.3595 251.874H16.7805V260.715H18.6005ZM23.1306 255.563L22.7806 255.997C22.9766 255.899 23.1866 255.824 23.4106 255.773C23.6392 255.717 23.8842 255.689 24.1456 255.689C24.5282 255.689 24.8992 255.752 25.2586 255.878C25.6226 256.004 25.9422 256.195 26.2176 256.452C26.4929 256.704 26.7146 257.019 26.8826 257.397C27.0506 257.775 27.1346 258.216 27.1346 258.72C27.1346 259.191 27.0482 259.634 26.8756 260.05C26.7029 260.46 26.4602 260.82 26.1476 261.128C25.8349 261.436 25.4569 261.678 25.0136 261.856C24.5749 262.033 24.0896 262.122 23.5576 262.122C23.0162 262.122 22.5309 262.035 22.1016 261.863C21.6722 261.69 21.3059 261.45 21.0026 261.142C20.6992 260.829 20.4659 260.456 20.3026 260.022C20.1439 259.583 20.0646 259.098 20.0646 258.566C20.0646 258.09 20.1602 257.602 20.3516 257.103C20.5476 256.599 20.8486 256.076 21.2546 255.535L23.6696 252.294C23.7536 252.182 23.8749 252.086 24.0336 252.007C24.1969 251.927 24.3836 251.888 24.5936 251.888H26.1336L23.1306 255.563ZM23.5226 260.708C23.7979 260.708 24.0499 260.661 24.2786 260.568C24.5119 260.474 24.7102 260.344 24.8736 260.176C25.0416 260.008 25.1722 259.812 25.2656 259.588C25.3589 259.359 25.4056 259.112 25.4056 258.846C25.4056 258.556 25.3612 258.297 25.2726 258.069C25.1839 257.835 25.0579 257.639 24.8946 257.481C24.7312 257.317 24.5352 257.194 24.3066 257.11C24.0779 257.026 23.8259 256.984 23.5506 256.984C23.2752 256.984 23.0256 257.03 22.8016 257.124C22.5776 257.217 22.3862 257.348 22.2276 257.516C22.0689 257.679 21.9452 257.875 21.8566 258.104C21.7679 258.328 21.7236 258.57 21.7236 258.832C21.7236 259.112 21.7609 259.368 21.8356 259.602C21.9149 259.83 22.0292 260.026 22.1786 260.19C22.3326 260.353 22.5216 260.481 22.7456 260.575C22.9696 260.663 23.2286 260.708 23.5226 260.708ZM28.3397 261.058C28.3397 260.913 28.3653 260.775 28.4167 260.645C28.4727 260.514 28.5473 260.402 28.6407 260.309C28.734 260.215 28.846 260.141 28.9767 260.085C29.1073 260.029 29.2473 260.001 29.3967 260.001C29.546 260.001 29.6837 260.029 29.8097 260.085C29.9403 260.141 30.0523 260.215 30.1457 260.309C30.2437 260.402 30.3207 260.514 30.3767 260.645C30.4327 260.775 30.4607 260.913 30.4607 261.058C30.4607 261.207 30.4327 261.347 30.3767 261.478C30.3207 261.604 30.2437 261.713 30.1457 261.807C30.0523 261.9 29.9403 261.972 29.8097 262.024C29.6837 262.08 29.546 262.108 29.3967 262.108C29.2473 262.108 29.1073 262.08 28.9767 262.024C28.846 261.972 28.734 261.9 28.6407 261.807C28.5473 261.713 28.4727 261.604 28.4167 261.478C28.3653 261.347 28.3397 261.207 28.3397 261.058ZM28.3397 256.067C28.3397 255.922 28.3653 255.784 28.4167 255.654C28.4727 255.523 28.5473 255.411 28.6407 255.318C28.734 255.224 28.846 255.15 28.9767 255.094C29.1073 255.038 29.2473 255.01 29.3967 255.01C29.546 255.01 29.6837 255.038 29.8097 255.094C29.9403 255.15 30.0523 255.224 30.1457 255.318C30.2437 255.411 30.3207 255.523 30.3767 255.654C30.4327 255.784 30.4607 255.922 30.4607 256.067C30.4607 256.216 30.4327 256.356 30.3767 256.487C30.3207 256.613 30.2437 256.722 30.1457 256.816C30.0523 256.909 29.9403 256.984 29.8097 257.04C29.6837 257.091 29.546 257.117 29.3967 257.117C29.2473 257.117 29.1073 257.091 28.9767 257.04C28.846 256.984 28.734 256.909 28.6407 256.816C28.5473 256.722 28.4727 256.613 28.4167 256.487C28.3653 256.356 28.3397 256.216 28.3397 256.067ZM42.3813 256.949C42.3813 257.831 42.2857 258.598 42.0943 259.252C41.9077 259.9 41.6463 260.437 41.3103 260.862C40.979 261.286 40.5847 261.604 40.1273 261.814C39.6747 262.019 39.1847 262.122 38.6573 262.122C38.13 262.122 37.64 262.019 37.1873 261.814C36.7393 261.604 36.3497 261.286 36.0183 260.862C35.687 260.437 35.428 259.9 35.2413 259.252C35.0547 258.598 34.9613 257.831 34.9613 256.949C34.9613 256.062 35.0547 255.294 35.2413 254.646C35.428 253.997 35.687 253.46 36.0183 253.036C36.3497 252.611 36.7393 252.296 37.1873 252.091C37.64 251.881 38.13 251.776 38.6573 251.776C39.1847 251.776 39.6747 251.881 40.1273 252.091C40.5847 252.296 40.979 252.611 41.3103 253.036C41.6463 253.46 41.9077 253.997 42.0943 254.646C42.2857 255.294 42.3813 256.062 42.3813 256.949ZM40.5963 256.949C40.5963 256.216 40.5427 255.609 40.4353 255.129C40.328 254.648 40.1833 254.265 40.0013 253.981C39.824 253.696 39.6187 253.498 39.3853 253.386C39.152 253.269 38.9093 253.211 38.6573 253.211C38.41 253.211 38.1697 253.269 37.9363 253.386C37.7077 253.498 37.5047 253.696 37.3273 253.981C37.15 254.265 37.0077 254.648 36.9003 255.129C36.7977 255.609 36.7463 256.216 36.7463 256.949C36.7463 257.681 36.7977 258.288 36.9003 258.769C37.0077 259.249 37.15 259.632 37.3273 259.917C37.5047 260.201 37.7077 260.402 37.9363 260.519C38.1697 260.631 38.41 260.687 38.6573 260.687C38.9093 260.687 39.152 260.631 39.3853 260.519C39.6187 260.402 39.824 260.201 40.0013 259.917C40.1833 259.632 40.328 259.249 40.4353 258.769C40.5427 258.288 40.5963 257.681 40.5963 256.949ZM50.5024 256.949C50.5024 257.831 50.4068 258.598 50.2154 259.252C50.0288 259.9 49.7674 260.437 49.4314 260.862C49.1001 261.286 48.7058 261.604 48.2484 261.814C47.7958 262.019 47.3058 262.122 46.7784 262.122C46.2511 262.122 45.7611 262.019 45.3084 261.814C44.8604 261.604 44.4708 261.286 44.1394 260.862C43.8081 260.437 43.5491 259.9 43.3624 259.252C43.1758 258.598 43.0824 257.831 43.0824 256.949C43.0824 256.062 43.1758 255.294 43.3624 254.646C43.5491 253.997 43.8081 253.46 44.1394 253.036C44.4708 252.611 44.8604 252.296 45.3084 252.091C45.7611 251.881 46.2511 251.776 46.7784 251.776C47.3058 251.776 47.7958 251.881 48.2484 252.091C48.7058 252.296 49.1001 252.611 49.4314 253.036C49.7674 253.46 50.0288 253.997 50.2154 254.646C50.4068 255.294 50.5024 256.062 50.5024 256.949ZM48.7174 256.949C48.7174 256.216 48.6638 255.609 48.5564 255.129C48.4491 254.648 48.3044 254.265 48.1224 253.981C47.9451 253.696 47.7398 253.498 47.5064 253.386C47.2731 253.269 47.0304 253.211 46.7784 253.211C46.5311 253.211 46.2908 253.269 46.0574 253.386C45.8288 253.498 45.6258 253.696 45.4484 253.981C45.2711 254.265 45.1288 254.648 45.0214 255.129C44.9188 255.609 44.8674 256.216 44.8674 256.949C44.8674 257.681 44.9188 258.288 45.0214 258.769C45.1288 259.249 45.2711 259.632 45.4484 259.917C45.6258 260.201 45.8288 260.402 46.0574 260.519C46.2908 260.631 46.5311 260.687 46.7784 260.687C47.0304 260.687 47.2731 260.631 47.5064 260.519C47.7398 260.402 47.9451 260.201 48.1224 259.917C48.3044 259.632 48.4491 259.249 48.5564 258.769C48.6638 258.288 48.7174 257.681 48.7174 256.949Z" fill="#3F4041"/>
<line x1="0.511719" y1="88.4395" x2="614.434" y2="88.4395" stroke="white"/>
<line x1="128.723" y1="326.41" x2="128.723" y2="88.9395" stroke="white"/>
<line x1="215.367" y1="326.41" x2="215.367" y2="88.9395" stroke="white"/>
<line x1="292.273" y1="326.41" x2="292.273" y2="88.9395" stroke="white"/>
<line x1="376.188" y1="326.41" x2="376.188" y2="88.9395" stroke="white"/>
<line x1="456.066" y1="326.41" x2="456.066" y2="88.9395" stroke="white"/>
<line x1="533.801" y1="326.41" x2="533.801" y2="88.9395" stroke="white"/>
<line x1="58.9023" y1="326.41" x2="58.9024" y2="88.9395" stroke="white"/>
<path d="M165.64 56.9097V68.4297H163.992V60.5337C163.992 60.4057 163.994 60.267 164 60.1177C164.01 59.963 164.024 59.8084 164.04 59.6537L160.336 66.4937C160.192 66.7764 159.97 66.9177 159.672 66.9177H159.408C159.104 66.9177 158.882 66.7764 158.744 66.4937L154.984 59.6377C155 59.7924 155.01 59.947 155.016 60.1017C155.026 60.2564 155.032 60.4004 155.032 60.5337V68.4297H153.384V56.9097H154.784C154.949 56.9097 155.077 56.9257 155.168 56.9577C155.258 56.9844 155.341 57.0724 155.416 57.2217L159.112 63.9177C159.192 64.0724 159.266 64.2324 159.336 64.3977C159.41 64.5577 159.477 64.723 159.536 64.8937C159.6 64.723 159.666 64.555 159.736 64.3897C159.81 64.219 159.888 64.0564 159.968 63.9017L163.608 57.2217C163.682 57.0724 163.765 56.9844 163.856 56.9577C163.946 56.9257 164.074 56.9097 164.24 56.9097H165.64ZM179.192 62.6697C179.192 63.523 179.053 64.3097 178.776 65.0297C178.499 65.7497 178.107 66.371 177.6 66.8937C177.099 67.411 176.493 67.8164 175.784 68.1097C175.08 68.403 174.296 68.5497 173.432 68.5497C172.573 68.5497 171.789 68.403 171.08 68.1097C170.376 67.8164 169.771 67.411 169.264 66.8937C168.757 66.371 168.365 65.7497 168.088 65.0297C167.811 64.3097 167.672 63.523 167.672 62.6697C167.672 61.8164 167.811 61.0297 168.088 60.3097C168.365 59.5897 168.757 58.9684 169.264 58.4457C169.771 57.923 170.376 57.515 171.08 57.2217C171.789 56.9284 172.573 56.7817 173.432 56.7817C174.296 56.7817 175.08 56.9284 175.784 57.2217C176.493 57.515 177.099 57.923 177.6 58.4457C178.107 58.9684 178.499 59.5897 178.776 60.3097C179.053 61.0297 179.192 61.8164 179.192 62.6697ZM177.28 62.6697C177.28 62.0084 177.189 61.4137 177.008 60.8857C176.832 60.3577 176.576 59.9097 176.24 59.5417C175.909 59.1737 175.507 58.891 175.032 58.6937C174.557 58.4964 174.024 58.3977 173.432 58.3977C172.845 58.3977 172.315 58.4964 171.84 58.6937C171.365 58.891 170.96 59.1737 170.624 59.5417C170.288 59.9097 170.029 60.3577 169.848 60.8857C169.667 61.4137 169.576 62.0084 169.576 62.6697C169.576 63.3364 169.667 63.9337 169.848 64.4617C170.029 64.9897 170.288 65.4377 170.624 65.8057C170.96 66.1684 171.365 66.4484 171.84 66.6457C172.315 66.8377 172.845 66.9337 173.432 66.9337C174.024 66.9337 174.557 66.8377 175.032 66.6457C175.507 66.4484 175.909 66.1684 176.24 65.8057C176.576 65.4377 176.832 64.9897 177.008 64.4617C177.189 63.9337 177.28 63.3364 177.28 62.6697ZM190.779 56.9097V68.4297H189.827C189.683 68.4297 189.56 68.4057 189.459 68.3577C189.358 68.3044 189.262 68.219 189.171 68.1017L182.843 59.9737C182.859 60.1284 182.87 60.283 182.875 60.4377C182.886 60.587 182.891 60.7257 182.891 60.8537V68.4297H181.243V56.9097H182.219C182.299 56.9097 182.366 56.915 182.419 56.9257C182.478 56.931 182.531 56.9444 182.579 56.9657C182.627 56.987 182.672 57.019 182.715 57.0617C182.758 57.1044 182.803 57.1577 182.851 57.2217L189.187 65.3577C189.171 65.1924 189.158 65.0297 189.147 64.8697C189.142 64.7097 189.139 64.5604 189.139 64.4217V56.9097H190.779Z" fill="#3F4041"/>
<path d="M171.026 46.1897V48.4297H162.726V46.1897H165.526V38.8397C165.526 38.653 165.529 38.4664 165.536 38.2797C165.542 38.0864 165.552 37.893 165.566 37.6997L163.906 39.0797C163.759 39.193 163.612 39.263 163.466 39.2897C163.326 39.3097 163.192 39.3097 163.066 39.2897C162.939 39.263 162.826 39.2197 162.726 39.1597C162.626 39.093 162.552 39.0264 162.506 38.9597L161.526 37.6597L166.066 33.8497H168.626V46.1897H171.026ZM175.847 38.3097C175.847 39.763 176.521 40.4897 177.867 40.4897C178.527 40.4897 179.034 40.293 179.387 39.8997C179.747 39.4997 179.927 38.9697 179.927 38.3097C179.927 37.9564 179.874 37.6464 179.767 37.3797C179.667 37.1064 179.524 36.8797 179.337 36.6997C179.157 36.5197 178.937 36.383 178.677 36.2897C178.417 36.1964 178.134 36.1497 177.827 36.1497C177.514 36.1497 177.234 36.2064 176.987 36.3197C176.747 36.4264 176.541 36.5764 176.367 36.7697C176.201 36.963 176.071 37.193 175.977 37.4597C175.891 37.7197 175.847 38.003 175.847 38.3097ZM178.327 42.9097C178.421 42.7964 178.511 42.6864 178.597 42.5797C178.684 42.473 178.764 42.3664 178.837 42.2597C178.224 42.5864 177.527 42.7497 176.747 42.7497C176.274 42.7497 175.801 42.6664 175.327 42.4997C174.854 42.3264 174.424 42.0664 174.037 41.7197C173.657 41.373 173.347 40.9364 173.107 40.4097C172.867 39.883 172.747 39.2597 172.747 38.5397C172.747 37.8797 172.867 37.2564 173.107 36.6697C173.354 36.083 173.701 35.5697 174.147 35.1297C174.601 34.6897 175.141 34.343 175.767 34.0897C176.394 33.8297 177.094 33.6997 177.867 33.6997C178.654 33.6997 179.357 33.8197 179.977 34.0597C180.597 34.2997 181.121 34.6364 181.547 35.0697C181.981 35.503 182.311 36.0197 182.537 36.6197C182.771 37.213 182.887 37.8697 182.887 38.5897C182.887 39.543 182.744 40.3964 182.457 41.1497C182.171 41.903 181.787 42.613 181.307 43.2797L178.167 47.7397C178.027 47.933 177.814 48.0964 177.527 48.2297C177.247 48.363 176.927 48.4297 176.567 48.4297H173.707L178.327 42.9097Z" fill="#3F4041"/>
<path d="M247.069 58.4697H243.477V68.4297H241.613V58.4697H238.013V56.9097H247.069V58.4697ZM253.217 66.9177C253.659 66.9177 254.054 66.843 254.401 66.6937C254.753 66.5444 255.049 66.3364 255.289 66.0697C255.534 65.803 255.721 65.483 255.849 65.1097C255.977 64.731 256.041 64.3124 256.041 63.8537V56.9097H257.905V63.8537C257.905 64.531 257.795 65.1577 257.577 65.7337C257.363 66.3097 257.054 66.8084 256.649 67.2297C256.243 67.6457 255.75 67.9737 255.169 68.2137C254.593 68.4484 253.942 68.5657 253.217 68.5657C252.491 68.5657 251.838 68.4484 251.257 68.2137C250.681 67.9737 250.19 67.6457 249.785 67.2297C249.379 66.8084 249.067 66.3097 248.849 65.7337C248.635 65.1577 248.529 64.531 248.529 63.8537V56.9097H250.401V63.8457C250.401 64.3044 250.465 64.723 250.593 65.1017C250.721 65.475 250.905 65.7977 251.145 66.0697C251.385 66.3364 251.678 66.5444 252.025 66.6937C252.377 66.843 252.774 66.9177 253.217 66.9177ZM267.693 66.9177L267.685 68.4297H260.501V56.9097H267.685V58.4217H262.381V61.8937H266.621V63.3577H262.381V66.9177H267.693Z" fill="#3F4041"/>
<path d="M251.033 45.6297C251.367 45.6297 251.63 45.723 251.823 45.9097C252.017 46.0897 252.113 46.3297 252.113 46.6297V48.4297H241.873V47.4297C241.873 47.2364 241.913 47.0297 241.993 46.8097C242.073 46.5897 242.213 46.3897 242.413 46.2097L246.613 41.9797C246.973 41.6197 247.287 41.2764 247.553 40.9497C247.82 40.623 248.04 40.303 248.213 39.9897C248.387 39.6697 248.517 39.353 248.603 39.0397C248.69 38.7197 248.733 38.383 248.733 38.0297C248.733 37.4497 248.593 37.0064 248.313 36.6997C248.04 36.3864 247.62 36.2297 247.053 36.2297C246.593 36.2297 246.203 36.353 245.883 36.5997C245.57 36.8397 245.353 37.1397 245.233 37.4997C245.093 37.8664 244.91 38.1097 244.683 38.2297C244.457 38.3497 244.133 38.3764 243.713 38.3097L242.073 38.0197C242.18 37.293 242.383 36.6597 242.683 36.1197C242.99 35.5797 243.367 35.1297 243.813 34.7697C244.267 34.4097 244.783 34.143 245.363 33.9697C245.943 33.7897 246.567 33.6997 247.233 33.6997C247.953 33.6997 248.6 33.8064 249.173 34.0197C249.753 34.2264 250.247 34.5164 250.653 34.8897C251.06 35.263 251.37 35.7097 251.583 36.2297C251.803 36.743 251.913 37.3097 251.913 37.9297C251.913 38.463 251.837 38.9564 251.683 39.4097C251.537 39.863 251.333 40.2964 251.073 40.7097C250.813 41.1164 250.51 41.513 250.163 41.8997C249.823 42.2797 249.46 42.6664 249.073 43.0597L246.223 45.9797C246.59 45.8664 246.953 45.7797 247.313 45.7197C247.673 45.6597 248.007 45.6297 248.313 45.6297H251.033ZM264.075 41.1397C264.075 42.413 263.938 43.5164 263.665 44.4497C263.392 45.383 263.012 46.1564 262.525 46.7697C262.045 47.383 261.472 47.8397 260.805 48.1397C260.145 48.4397 259.428 48.5897 258.655 48.5897C257.882 48.5897 257.165 48.4397 256.505 48.1397C255.852 47.8397 255.285 47.383 254.805 46.7697C254.325 46.1564 253.948 45.383 253.675 44.4497C253.408 43.5164 253.275 42.413 253.275 41.1397C253.275 39.8664 253.408 38.763 253.675 37.8297C253.948 36.8964 254.325 36.123 254.805 35.5097C255.285 34.8964 255.852 34.443 256.505 34.1497C257.165 33.8497 257.882 33.6997 258.655 33.6997C259.428 33.6997 260.145 33.8497 260.805 34.1497C261.472 34.443 262.045 34.8964 262.525 35.5097C263.012 36.123 263.392 36.8964 263.665 37.8297C263.938 38.763 264.075 39.8664 264.075 41.1397ZM260.875 41.1397C260.875 40.133 260.812 39.3097 260.685 38.6697C260.558 38.023 260.388 37.5164 260.175 37.1497C259.968 36.783 259.732 36.533 259.465 36.3997C259.198 36.2597 258.928 36.1897 258.655 36.1897C258.382 36.1897 258.112 36.2597 257.845 36.3997C257.585 36.533 257.352 36.783 257.145 37.1497C256.945 37.5164 256.782 38.023 256.655 38.6697C256.535 39.3097 256.475 40.133 256.475 41.1397C256.475 42.153 256.535 42.9797 256.655 43.6197C256.782 44.2597 256.945 44.7664 257.145 45.1397C257.352 45.5064 257.585 45.7597 257.845 45.8997C258.112 46.033 258.382 46.0997 258.655 46.0997C258.928 46.0997 259.198 46.033 259.465 45.8997C259.732 45.7597 259.968 45.5064 260.175 45.1397C260.388 44.7664 260.558 44.2597 260.685 43.6197C260.812 42.9797 260.875 42.153 260.875 41.1397Z" fill="#3F4041"/>
<path d="M330.043 56.9097L326.459 68.4297H324.771L322.067 60.1577C322.035 60.067 322.003 59.9684 321.971 59.8617C321.945 59.755 321.918 59.6404 321.891 59.5177C321.865 59.6404 321.835 59.755 321.803 59.8617C321.777 59.9684 321.747 60.067 321.715 60.1577L318.987 68.4297H317.299L313.715 56.9097H315.283C315.443 56.9097 315.577 56.9497 315.683 57.0297C315.795 57.1044 315.87 57.2084 315.907 57.3417L318.067 64.7257C318.11 64.8857 318.15 65.059 318.187 65.2457C318.225 65.4324 318.262 65.627 318.299 65.8297C318.337 65.627 318.377 65.4324 318.419 65.2457C318.467 65.0537 318.518 64.8804 318.571 64.7257L321.043 57.3417C321.081 57.235 321.155 57.1364 321.267 57.0457C321.379 56.955 321.513 56.9097 321.667 56.9097H322.211C322.377 56.9097 322.51 56.9524 322.611 57.0377C322.713 57.1177 322.79 57.219 322.843 57.3417L325.307 64.7257C325.361 64.8804 325.409 65.0484 325.451 65.2297C325.499 65.4057 325.542 65.5924 325.579 65.7897C325.617 65.5924 325.651 65.4057 325.683 65.2297C325.721 65.0484 325.761 64.8804 325.803 64.7257L327.955 57.3417C327.987 57.2244 328.059 57.123 328.171 57.0377C328.289 56.9524 328.425 56.9097 328.579 56.9097H330.043ZM338.794 66.9177L338.786 68.4297H331.602V56.9097H338.786V58.4217H333.482V61.8937H337.722V63.3577H333.482V66.9177H338.794ZM350.933 62.6697C350.933 63.523 350.794 64.3044 350.517 65.0137C350.24 65.7177 349.848 66.323 349.341 66.8297C348.84 67.3364 348.234 67.731 347.525 68.0137C346.821 68.291 346.037 68.4297 345.173 68.4297H340.821V56.9097H345.173C346.037 56.9097 346.821 57.051 347.525 57.3337C348.234 57.611 348.84 58.003 349.341 58.5097C349.848 59.0164 350.24 59.6244 350.517 60.3337C350.794 61.0377 350.933 61.8164 350.933 62.6697ZM349.021 62.6697C349.021 62.0084 348.93 61.4137 348.749 60.8857C348.573 60.3577 348.317 59.9124 347.981 59.5497C347.65 59.187 347.248 58.9097 346.773 58.7177C346.298 58.5204 345.765 58.4217 345.173 58.4217H342.701V66.9177H345.173C345.765 66.9177 346.298 66.8217 346.773 66.6297C347.248 66.4377 347.65 66.1604 347.981 65.7977C348.317 65.4297 348.573 64.9844 348.749 64.4617C348.93 63.9337 349.021 63.3364 349.021 62.6697Z" fill="#3F4041"/>
<path d="M330.791 45.6297C331.125 45.6297 331.388 45.723 331.581 45.9097C331.775 46.0897 331.871 46.3297 331.871 46.6297V48.4297H321.631V47.4297C321.631 47.2364 321.671 47.0297 321.751 46.8097C321.831 46.5897 321.971 46.3897 322.171 46.2097L326.371 41.9797C326.731 41.6197 327.045 41.2764 327.311 40.9497C327.578 40.623 327.798 40.303 327.971 39.9897C328.145 39.6697 328.275 39.353 328.361 39.0397C328.448 38.7197 328.491 38.383 328.491 38.0297C328.491 37.4497 328.351 37.0064 328.071 36.6997C327.798 36.3864 327.378 36.2297 326.811 36.2297C326.351 36.2297 325.961 36.353 325.641 36.5997C325.328 36.8397 325.111 37.1397 324.991 37.4997C324.851 37.8664 324.668 38.1097 324.441 38.2297C324.215 38.3497 323.891 38.3764 323.471 38.3097L321.831 38.0197C321.938 37.293 322.141 36.6597 322.441 36.1197C322.748 35.5797 323.125 35.1297 323.571 34.7697C324.025 34.4097 324.541 34.143 325.121 33.9697C325.701 33.7897 326.325 33.6997 326.991 33.6997C327.711 33.6997 328.358 33.8064 328.931 34.0197C329.511 34.2264 330.005 34.5164 330.411 34.8897C330.818 35.263 331.128 35.7097 331.341 36.2297C331.561 36.743 331.671 37.3097 331.671 37.9297C331.671 38.463 331.595 38.9564 331.441 39.4097C331.295 39.863 331.091 40.2964 330.831 40.7097C330.571 41.1164 330.268 41.513 329.921 41.8997C329.581 42.2797 329.218 42.6664 328.831 43.0597L325.981 45.9797C326.348 45.8664 326.711 45.7797 327.071 45.7197C327.431 45.6597 327.765 45.6297 328.071 45.6297H330.791ZM343.143 46.1897V48.4297H334.843V46.1897H337.643V38.8397C337.643 38.653 337.646 38.4664 337.653 38.2797C337.659 38.0864 337.669 37.893 337.683 37.6997L336.023 39.0797C335.876 39.193 335.729 39.263 335.583 39.2897C335.443 39.3097 335.309 39.3097 335.183 39.2897C335.056 39.263 334.943 39.2197 334.843 39.1597C334.743 39.093 334.669 39.0264 334.623 38.9597L333.643 37.6597L338.183 33.8497H340.743V46.1897H343.143Z" fill="#3F4041"/>
<path d="M406.585 58.4697H402.993V68.4297H401.129V58.4697H397.529V56.9097H406.585V58.4697ZM417.724 56.9097V68.4297H415.852V63.3017H410.068V68.4297H408.188V56.9097H410.068V61.9497H415.852V56.9097H417.724ZM425.014 66.9177C425.456 66.9177 425.851 66.843 426.198 66.6937C426.55 66.5444 426.846 66.3364 427.086 66.0697C427.331 65.803 427.518 65.483 427.646 65.1097C427.774 64.731 427.838 64.3124 427.838 63.8537V56.9097H429.702V63.8537C429.702 64.531 429.592 65.1577 429.374 65.7337C429.16 66.3097 428.851 66.8084 428.446 67.2297C428.04 67.6457 427.547 67.9737 426.966 68.2137C426.39 68.4484 425.739 68.5657 425.014 68.5657C424.288 68.5657 423.635 68.4484 423.054 68.2137C422.478 67.9737 421.987 67.6457 421.582 67.2297C421.176 66.8084 420.864 66.3097 420.646 65.7337C420.432 65.1577 420.326 64.531 420.326 63.8537V56.9097H422.198V63.8457C422.198 64.3044 422.262 64.723 422.39 65.1017C422.518 65.475 422.702 65.7977 422.942 66.0697C423.182 66.3364 423.475 66.5444 423.822 66.6937C424.174 66.843 424.571 66.9177 425.014 66.9177Z" fill="#3F4041"/>
<path d="M412.049 45.6297C412.382 45.6297 412.646 45.723 412.839 45.9097C413.032 46.0897 413.129 46.3297 413.129 46.6297V48.4297H402.889V47.4297C402.889 47.2364 402.929 47.0297 403.009 46.8097C403.089 46.5897 403.229 46.3897 403.429 46.2097L407.629 41.9797C407.989 41.6197 408.302 41.2764 408.569 40.9497C408.836 40.623 409.056 40.303 409.229 39.9897C409.402 39.6697 409.532 39.353 409.619 39.0397C409.706 38.7197 409.749 38.383 409.749 38.0297C409.749 37.4497 409.609 37.0064 409.329 36.6997C409.056 36.3864 408.636 36.2297 408.069 36.2297C407.609 36.2297 407.219 36.353 406.899 36.5997C406.586 36.8397 406.369 37.1397 406.249 37.4997C406.109 37.8664 405.926 38.1097 405.699 38.2297C405.472 38.3497 405.149 38.3764 404.729 38.3097L403.089 38.0197C403.196 37.293 403.399 36.6597 403.699 36.1197C404.006 35.5797 404.382 35.1297 404.829 34.7697C405.282 34.4097 405.799 34.143 406.379 33.9697C406.959 33.7897 407.582 33.6997 408.249 33.6997C408.969 33.6997 409.616 33.8064 410.189 34.0197C410.769 34.2264 411.262 34.5164 411.669 34.8897C412.076 35.263 412.386 35.7097 412.599 36.2297C412.819 36.743 412.929 37.3097 412.929 37.9297C412.929 38.463 412.852 38.9564 412.699 39.4097C412.552 39.863 412.349 40.2964 412.089 40.7097C411.829 41.1164 411.526 41.513 411.179 41.8997C410.839 42.2797 410.476 42.6664 410.089 43.0597L407.239 45.9797C407.606 45.8664 407.969 45.7797 408.329 45.7197C408.689 45.6597 409.022 45.6297 409.329 45.6297H412.049ZM423.651 45.6297C423.984 45.6297 424.247 45.723 424.441 45.9097C424.634 46.0897 424.731 46.3297 424.731 46.6297V48.4297H414.491V47.4297C414.491 47.2364 414.531 47.0297 414.611 46.8097C414.691 46.5897 414.831 46.3897 415.031 46.2097L419.231 41.9797C419.591 41.6197 419.904 41.2764 420.171 40.9497C420.437 40.623 420.657 40.303 420.831 39.9897C421.004 39.6697 421.134 39.353 421.221 39.0397C421.307 38.7197 421.351 38.383 421.351 38.0297C421.351 37.4497 421.211 37.0064 420.931 36.6997C420.657 36.3864 420.237 36.2297 419.671 36.2297C419.211 36.2297 418.821 36.353 418.501 36.5997C418.187 36.8397 417.971 37.1397 417.851 37.4997C417.711 37.8664 417.527 38.1097 417.301 38.2297C417.074 38.3497 416.751 38.3764 416.331 38.3097L414.691 38.0197C414.797 37.293 415.001 36.6597 415.301 36.1197C415.607 35.5797 415.984 35.1297 416.431 34.7697C416.884 34.4097 417.401 34.143 417.981 33.9697C418.561 33.7897 419.184 33.6997 419.851 33.6997C420.571 33.6997 421.217 33.8064 421.791 34.0197C422.371 34.2264 422.864 34.5164 423.271 34.8897C423.677 35.263 423.987 35.7097 424.201 36.2297C424.421 36.743 424.531 37.3097 424.531 37.9297C424.531 38.463 424.454 38.9564 424.301 39.4097C424.154 39.863 423.951 40.2964 423.691 40.7097C423.431 41.1164 423.127 41.513 422.781 41.8997C422.441 42.2797 422.077 42.6664 421.691 43.0597L418.841 45.9797C419.207 45.8664 419.571 45.7797 419.931 45.7197C420.291 45.6597 420.624 45.6297 420.931 45.6297H423.651Z" fill="#3F4041"/>
<path d="M479.295 58.4217V62.1097H483.799V63.6217H479.295V68.4297H477.415V56.9097H484.599V58.4217H479.295ZM489.806 62.4297C490.232 62.4297 490.606 62.379 490.926 62.2777C491.246 62.171 491.512 62.0244 491.726 61.8377C491.939 61.651 492.099 61.4297 492.206 61.1737C492.312 60.9124 492.366 60.6244 492.366 60.3097C492.366 59.6804 492.158 59.2004 491.742 58.8697C491.326 58.539 490.696 58.3737 489.854 58.3737H488.334V62.4297H489.806ZM495.23 68.4297H493.558C493.227 68.4297 492.987 68.3017 492.838 68.0457L490.15 64.1657C490.059 64.0324 489.96 63.9364 489.854 63.8777C489.747 63.819 489.587 63.7897 489.374 63.7897H488.334V68.4297H486.462V56.9097H489.854C490.611 56.9097 491.262 56.987 491.806 57.1417C492.355 57.2964 492.806 57.5177 493.158 57.8057C493.51 58.0884 493.768 58.4297 493.934 58.8297C494.104 59.2297 494.19 59.675 494.19 60.1657C494.19 60.5657 494.128 60.939 494.006 61.2857C493.888 61.6324 493.715 61.947 493.486 62.2297C493.262 62.5124 492.984 62.7577 492.654 62.9657C492.323 63.1737 491.947 63.3364 491.526 63.4537C491.755 63.5924 491.952 63.787 492.118 64.0377L495.23 68.4297ZM498.498 68.4297H496.618V56.9097H498.498V68.4297Z" fill="#3F4041"/>
<path d="M485.807 45.6297C486.14 45.6297 486.404 45.723 486.597 45.9097C486.79 46.0897 486.887 46.3297 486.887 46.6297V48.4297H476.647V47.4297C476.647 47.2364 476.687 47.0297 476.767 46.8097C476.847 46.5897 476.987 46.3897 477.187 46.2097L481.387 41.9797C481.747 41.6197 482.06 41.2764 482.327 40.9497C482.594 40.623 482.814 40.303 482.987 39.9897C483.16 39.6697 483.29 39.353 483.377 39.0397C483.464 38.7197 483.507 38.383 483.507 38.0297C483.507 37.4497 483.367 37.0064 483.087 36.6997C482.814 36.3864 482.394 36.2297 481.827 36.2297C481.367 36.2297 480.977 36.353 480.657 36.5997C480.344 36.8397 480.127 37.1397 480.007 37.4997C479.867 37.8664 479.684 38.1097 479.457 38.2297C479.23 38.3497 478.907 38.3764 478.487 38.3097L476.847 38.0197C476.954 37.293 477.157 36.6597 477.457 36.1197C477.764 35.5797 478.14 35.1297 478.587 34.7697C479.04 34.4097 479.557 34.143 480.137 33.9697C480.717 33.7897 481.34 33.6997 482.007 33.6997C482.727 33.6997 483.374 33.8064 483.947 34.0197C484.527 34.2264 485.02 34.5164 485.427 34.8897C485.834 35.263 486.144 35.7097 486.357 36.2297C486.577 36.743 486.687 37.3097 486.687 37.9297C486.687 38.463 486.61 38.9564 486.457 39.4097C486.31 39.863 486.107 40.2964 485.847 40.7097C485.587 41.1164 485.284 41.513 484.937 41.8997C484.597 42.2797 484.234 42.6664 483.847 43.0597L480.997 45.9797C481.364 45.8664 481.727 45.7797 482.087 45.7197C482.447 45.6597 482.78 45.6297 483.087 45.6297H485.807ZM488.528 38.0197C488.635 37.293 488.838 36.6597 489.138 36.1197C489.445 35.5797 489.822 35.1297 490.268 34.7697C490.722 34.4097 491.238 34.143 491.818 33.9697C492.398 33.7897 493.022 33.6997 493.688 33.6997C494.408 33.6997 495.048 33.803 495.608 34.0097C496.168 34.2097 496.642 34.483 497.028 34.8297C497.415 35.1764 497.708 35.5797 497.908 36.0397C498.108 36.493 498.208 36.973 498.208 37.4797C498.208 37.9397 498.162 38.3464 498.068 38.6997C497.975 39.0464 497.835 39.3497 497.648 39.6097C497.468 39.863 497.242 40.0797 496.968 40.2597C496.702 40.433 496.395 40.5797 496.048 40.6997C497.662 41.2664 498.468 42.3664 498.468 43.9997C498.468 44.773 498.328 45.4464 498.048 46.0197C497.768 46.593 497.392 47.0697 496.918 47.4497C496.452 47.8297 495.908 48.1164 495.288 48.3097C494.668 48.4964 494.022 48.5897 493.348 48.5897C492.655 48.5897 492.038 48.5164 491.498 48.3697C490.958 48.2164 490.478 47.983 490.058 47.6697C489.638 47.3497 489.268 46.943 488.948 46.4497C488.635 45.9564 488.362 45.3697 488.128 44.6897L489.508 44.1297C489.868 43.9897 490.202 43.953 490.508 44.0197C490.815 44.0864 491.035 44.2397 491.168 44.4797C491.468 45.033 491.785 45.4364 492.118 45.6897C492.458 45.9364 492.855 46.0597 493.308 46.0597C493.655 46.0597 493.955 46.003 494.208 45.8897C494.468 45.7697 494.682 45.6197 494.848 45.4397C495.022 45.253 495.152 45.043 495.238 44.8097C495.325 44.5764 495.368 44.3397 495.368 44.0997C495.368 43.7864 495.345 43.5064 495.298 43.2597C495.258 43.0064 495.138 42.7897 494.938 42.6097C494.738 42.4297 494.435 42.293 494.028 42.1997C493.628 42.0997 493.068 42.0497 492.348 42.0497V39.9097C492.955 39.9097 493.445 39.863 493.818 39.7697C494.192 39.6764 494.478 39.5497 494.678 39.3897C494.885 39.223 495.022 39.023 495.088 38.7897C495.155 38.5564 495.188 38.2997 495.188 38.0197C495.188 37.4464 495.048 37.0064 494.768 36.6997C494.495 36.3864 494.075 36.2297 493.508 36.2297C493.048 36.2297 492.658 36.353 492.338 36.5997C492.025 36.8397 491.808 37.1397 491.688 37.4997C491.548 37.8664 491.365 38.1097 491.138 38.2297C490.912 38.3497 490.588 38.3764 490.168 38.3097L488.528 38.0197Z" fill="#3F4041"/>
<path d="M552.197 58.8777C552.138 58.9737 552.077 59.0457 552.013 59.0937C551.949 59.1364 551.869 59.1577 551.773 59.1577C551.671 59.1577 551.557 59.115 551.429 59.0297C551.306 58.9444 551.151 58.851 550.965 58.7497C550.783 58.643 550.567 58.547 550.317 58.4617C550.066 58.371 549.767 58.3257 549.421 58.3257C549.101 58.3257 548.818 58.3657 548.573 58.4457C548.333 58.5257 548.13 58.6377 547.965 58.7817C547.799 58.9257 547.674 59.0964 547.589 59.2937C547.509 59.4857 547.469 59.6964 547.469 59.9257C547.469 60.219 547.546 60.4644 547.701 60.6617C547.855 60.8537 548.058 61.019 548.309 61.1577C548.565 61.2964 548.855 61.419 549.181 61.5257C549.506 61.627 549.837 61.7364 550.173 61.8537C550.514 61.971 550.847 62.1044 551.173 62.2537C551.498 62.403 551.786 62.5924 552.037 62.8217C552.293 63.051 552.498 63.331 552.653 63.6617C552.807 63.9924 552.885 64.395 552.885 64.8697C552.885 65.3817 552.797 65.8617 552.621 66.3097C552.445 66.7577 552.189 67.1497 551.853 67.4857C551.522 67.8164 551.111 68.0777 550.621 68.2697C550.135 68.4617 549.581 68.5577 548.957 68.5577C548.589 68.5577 548.229 68.5204 547.877 68.4457C547.53 68.3764 547.197 68.2777 546.877 68.1497C546.562 68.0164 546.266 67.8564 545.989 67.6697C545.711 67.483 545.463 67.275 545.245 67.0457L545.789 66.1497C545.837 66.075 545.898 66.0164 545.973 65.9737C546.047 65.931 546.13 65.9097 546.221 65.9097C546.343 65.9097 546.479 65.9684 546.629 66.0857C546.778 66.1977 546.957 66.323 547.165 66.4617C547.378 66.595 547.634 66.7204 547.933 66.8377C548.231 66.9497 548.589 67.0057 549.005 67.0057C549.682 67.0057 550.205 66.8404 550.573 66.5097C550.946 66.179 551.133 65.723 551.133 65.1417C551.133 64.8164 551.055 64.5524 550.901 64.3497C550.746 64.1417 550.541 63.9684 550.285 63.8297C550.034 63.691 549.746 63.5737 549.421 63.4777C549.095 63.3817 548.765 63.2804 548.429 63.1737C548.093 63.0617 547.762 62.9337 547.437 62.7897C547.111 62.6404 546.821 62.4484 546.565 62.2137C546.314 61.9737 546.111 61.6804 545.957 61.3337C545.802 60.9817 545.725 60.5444 545.725 60.0217C545.725 59.6057 545.805 59.203 545.965 58.8137C546.13 58.4244 546.367 58.0804 546.677 57.7817C546.991 57.4777 547.378 57.235 547.837 57.0537C548.295 56.8724 548.818 56.7817 549.405 56.7817C550.066 56.7817 550.671 56.8857 551.221 57.0937C551.775 57.3017 552.253 57.5977 552.653 57.9817L552.197 58.8777ZM560.784 64.1097L559.2 59.9017C559.072 59.5764 558.942 59.163 558.808 58.6617C558.75 58.9124 558.686 59.1444 558.616 59.3577C558.547 59.5657 558.483 59.7497 558.424 59.9097L556.84 64.1097H560.784ZM564.328 68.4297H562.88C562.715 68.4297 562.582 68.3897 562.48 68.3097C562.379 68.2244 562.302 68.1204 562.248 67.9977L561.288 65.4537H556.328L555.368 67.9977C555.326 68.1044 555.251 68.203 555.144 68.2937C555.038 68.3844 554.904 68.4297 554.744 68.4297H553.296L557.864 56.9097H559.76L564.328 68.4297ZM572.476 58.4697H568.884V68.4297H567.02V58.4697H563.42V56.9097H572.476V58.4697Z" fill="#3F4041"/>
<path d="M556.565 45.6297C556.898 45.6297 557.161 45.723 557.355 45.9097C557.548 46.0897 557.645 46.3297 557.645 46.6297V48.4297H547.405V47.4297C547.405 47.2364 547.445 47.0297 547.525 46.8097C547.605 46.5897 547.745 46.3897 547.945 46.2097L552.145 41.9797C552.505 41.6197 552.818 41.2764 553.085 40.9497C553.351 40.623 553.571 40.303 553.745 39.9897C553.918 39.6697 554.048 39.353 554.135 39.0397C554.221 38.7197 554.265 38.383 554.265 38.0297C554.265 37.4497 554.125 37.0064 553.845 36.6997C553.571 36.3864 553.151 36.2297 552.585 36.2297C552.125 36.2297 551.735 36.353 551.415 36.5997C551.101 36.8397 550.885 37.1397 550.765 37.4997C550.625 37.8664 550.441 38.1097 550.215 38.2297C549.988 38.3497 549.665 38.3764 549.245 38.3097L547.605 38.0197C547.711 37.293 547.915 36.6597 548.215 36.1197C548.521 35.5797 548.898 35.1297 549.345 34.7697C549.798 34.4097 550.315 34.143 550.895 33.9697C551.475 33.7897 552.098 33.6997 552.765 33.6997C553.485 33.6997 554.131 33.8064 554.705 34.0197C555.285 34.2264 555.778 34.5164 556.185 34.8897C556.591 35.263 556.901 35.7097 557.115 36.2297C557.335 36.743 557.445 37.3097 557.445 37.9297C557.445 38.463 557.368 38.9564 557.215 39.4097C557.068 39.863 556.865 40.2964 556.605 40.7097C556.345 41.1164 556.041 41.513 555.695 41.8997C555.355 42.2797 554.991 42.6664 554.605 43.0597L551.755 45.9797C552.121 45.8664 552.485 45.7797 552.845 45.7197C553.205 45.6597 553.538 45.6297 553.845 45.6297H556.565ZM565.356 42.7697V38.9697C565.356 38.7364 565.363 38.4864 565.376 38.2197C565.396 37.9464 565.423 37.663 565.456 37.3697L561.606 42.7697H565.356ZM569.556 42.7697V44.5097C569.556 44.663 569.503 44.7964 569.396 44.9097C569.296 45.023 569.15 45.0797 568.956 45.0797H568.056V48.4297H565.356V45.0797H559.496C559.303 45.0797 559.126 45.0197 558.966 44.8997C558.813 44.7797 558.716 44.6297 558.676 44.4497L558.356 42.9197L565.096 33.8597H568.056V42.7697H569.556Z" fill="#3F4041"/>
<path d="M81.6498 58.8777C81.5911 58.9737 81.5298 59.0457 81.4658 59.0937C81.4018 59.1364 81.3218 59.1577 81.2258 59.1577C81.1245 59.1577 81.0098 59.115 80.8818 59.0297C80.7591 58.9444 80.6045 58.851 80.4178 58.7497C80.2365 58.643 80.0205 58.547 79.7698 58.4617C79.5191 58.371 79.2205 58.3257 78.8738 58.3257C78.5538 58.3257 78.2711 58.3657 78.0258 58.4457C77.7858 58.5257 77.5831 58.6377 77.4178 58.7817C77.2525 58.9257 77.1271 59.0964 77.0418 59.2937C76.9618 59.4857 76.9218 59.6964 76.9218 59.9257C76.9218 60.219 76.9991 60.4644 77.1538 60.6617C77.3085 60.8537 77.5111 61.019 77.7618 61.1577C78.0178 61.2964 78.3085 61.419 78.6338 61.5257C78.9591 61.627 79.2898 61.7364 79.6258 61.8537C79.9671 61.971 80.3005 62.1044 80.6258 62.2537C80.9511 62.403 81.2391 62.5924 81.4898 62.8217C81.7458 63.051 81.9511 63.331 82.1058 63.6617C82.2605 63.9924 82.3378 64.395 82.3378 64.8697C82.3378 65.3817 82.2498 65.8617 82.0738 66.3097C81.8978 66.7577 81.6418 67.1497 81.3058 67.4857C80.9751 67.8164 80.5645 68.0777 80.0738 68.2697C79.5885 68.4617 79.0338 68.5577 78.4098 68.5577C78.0418 68.5577 77.6818 68.5204 77.3298 68.4457C76.9831 68.3764 76.6498 68.2777 76.3298 68.1497C76.0151 68.0164 75.7191 67.8564 75.4418 67.6697C75.1645 67.483 74.9165 67.275 74.6978 67.0457L75.2418 66.1497C75.2898 66.075 75.3511 66.0164 75.4258 65.9737C75.5005 65.931 75.5831 65.9097 75.6738 65.9097C75.7965 65.9097 75.9325 65.9684 76.0818 66.0857C76.2311 66.1977 76.4098 66.323 76.6178 66.4617C76.8311 66.595 77.0871 66.7204 77.3858 66.8377C77.6845 66.9497 78.0418 67.0057 78.4578 67.0057C79.1351 67.0057 79.6578 66.8404 80.0258 66.5097C80.3991 66.179 80.5858 65.723 80.5858 65.1417C80.5858 64.8164 80.5085 64.5524 80.3538 64.3497C80.1991 64.1417 79.9938 63.9684 79.7378 63.8297C79.4871 63.691 79.1991 63.5737 78.8738 63.4777C78.5485 63.3817 78.2178 63.2804 77.8818 63.1737C77.5458 63.0617 77.2151 62.9337 76.8898 62.7897C76.5645 62.6404 76.2738 62.4484 76.0178 62.2137C75.7671 61.9737 75.5645 61.6804 75.4098 61.3337C75.2551 60.9817 75.1778 60.5444 75.1778 60.0217C75.1778 59.6057 75.2578 59.203 75.4178 58.8137C75.5831 58.4244 75.8205 58.0804 76.1298 57.7817C76.4445 57.4777 76.8311 57.235 77.2898 57.0537C77.7485 56.8724 78.2711 56.7817 78.8578 56.7817C79.5191 56.7817 80.1245 56.8857 80.6738 57.0937C81.2285 57.3017 81.7058 57.5977 82.1058 57.9817L81.6498 58.8777ZM88.9042 66.9177C89.3469 66.9177 89.7415 66.843 90.0882 66.6937C90.4402 66.5444 90.7362 66.3364 90.9762 66.0697C91.2215 65.803 91.4082 65.483 91.5362 65.1097C91.6642 64.731 91.7282 64.3124 91.7282 63.8537V56.9097H93.5922V63.8537C93.5922 64.531 93.4829 65.1577 93.2642 65.7337C93.0509 66.3097 92.7415 66.8084 92.3362 67.2297C91.9309 67.6457 91.4375 67.9737 90.8562 68.2137C90.2802 68.4484 89.6295 68.5657 88.9042 68.5657C88.1789 68.5657 87.5255 68.4484 86.9442 68.2137C86.3682 67.9737 85.8775 67.6457 85.4722 67.2297C85.0669 66.8084 84.7549 66.3097 84.5362 65.7337C84.3229 65.1577 84.2162 64.531 84.2162 63.8537V56.9097H86.0882V63.8457C86.0882 64.3044 86.1522 64.723 86.2802 65.1017C86.4082 65.475 86.5922 65.7977 86.8322 66.0697C87.0722 66.3364 87.3655 66.5444 87.7122 66.6937C88.0642 66.843 88.4615 66.9177 88.9042 66.9177ZM105.724 56.9097V68.4297H104.772C104.628 68.4297 104.506 68.4057 104.404 68.3577C104.303 68.3044 104.207 68.219 104.116 68.1017L97.7883 59.9737C97.8043 60.1284 97.815 60.283 97.8203 60.4377C97.831 60.587 97.8363 60.7257 97.8363 60.8537V68.4297H96.1883V56.9097H97.1643C97.2443 56.9097 97.311 56.915 97.3643 56.9257C97.423 56.931 97.4763 56.9444 97.5243 56.9657C97.5723 56.987 97.6176 57.019 97.6603 57.0617C97.703 57.1044 97.7483 57.1577 97.7963 57.2217L104.132 65.3577C104.116 65.1924 104.103 65.0297 104.092 64.8697C104.087 64.7097 104.084 64.5604 104.084 64.4217V56.9097H105.724Z" fill="#3F4041"/>
<path d="M89.2678 46.1897V48.4297H80.9678V46.1897H83.7678V38.8397C83.7678 38.653 83.7711 38.4664 83.7778 38.2797C83.7845 38.0864 83.7945 37.893 83.8078 37.6997L82.1478 39.0797C82.0011 39.193 81.8545 39.263 81.7078 39.2897C81.5678 39.3097 81.4345 39.3097 81.3078 39.2897C81.1811 39.263 81.0678 39.2197 80.9678 39.1597C80.8678 39.093 80.7945 39.0264 80.7478 38.9597L79.7678 37.6597L84.3078 33.8497H86.8678V46.1897H89.2678ZM96.1594 46.2497C96.506 46.2497 96.806 46.1964 97.0594 46.0897C97.3127 45.983 97.5194 45.8397 97.6794 45.6597C97.846 45.473 97.966 45.2564 98.0394 45.0097C98.1194 44.7564 98.1594 44.4864 98.1594 44.1997C98.1594 43.8864 98.126 43.5997 98.0594 43.3397C97.9927 43.0797 97.8827 42.8597 97.7294 42.6797C97.576 42.493 97.3694 42.3497 97.1094 42.2497C96.856 42.143 96.5394 42.0897 96.1594 42.0897C95.7794 42.0897 95.4594 42.143 95.1994 42.2497C94.946 42.3497 94.7427 42.493 94.5894 42.6797C94.436 42.8597 94.326 43.0797 94.2594 43.3397C94.1927 43.5997 94.1594 43.8864 94.1594 44.1997C94.1594 44.4864 94.196 44.7564 94.2694 45.0097C94.3494 45.2564 94.4694 45.473 94.6294 45.6597C94.796 45.8397 95.0027 45.983 95.2494 46.0897C95.5027 46.1964 95.806 46.2497 96.1594 46.2497ZM96.1594 35.9597C95.846 35.9597 95.5827 36.0097 95.3694 36.1097C95.156 36.2097 94.9794 36.343 94.8394 36.5097C94.706 36.6697 94.6094 36.8564 94.5494 37.0697C94.4894 37.283 94.4594 37.503 94.4594 37.7297C94.4594 37.983 94.4827 38.2297 94.5294 38.4697C94.576 38.7097 94.6627 38.923 94.7894 39.1097C94.916 39.2964 95.0894 39.4464 95.3094 39.5597C95.5294 39.673 95.8127 39.7297 96.1594 39.7297C96.506 39.7297 96.7894 39.673 97.0094 39.5597C97.2294 39.4464 97.4027 39.2964 97.5294 39.1097C97.656 38.923 97.7427 38.7097 97.7894 38.4697C97.836 38.2297 97.8594 37.983 97.8594 37.7297C97.8594 37.503 97.8294 37.283 97.7694 37.0697C97.7094 36.8564 97.6094 36.6697 97.4694 36.5097C97.336 36.343 97.1594 36.2097 96.9394 36.1097C96.726 36.0097 96.466 35.9597 96.1594 35.9597ZM98.9094 40.8297C99.3427 40.983 99.7127 41.173 100.019 41.3997C100.333 41.6264 100.586 41.8864 100.779 42.1797C100.979 42.473 101.126 42.7964 101.219 43.1497C101.313 43.4964 101.359 43.8664 101.359 44.2597C101.359 44.913 101.233 45.5064 100.979 46.0397C100.733 46.573 100.379 47.0297 99.9194 47.4097C99.466 47.783 98.9194 48.073 98.2794 48.2797C97.6394 48.4864 96.9327 48.5897 96.1594 48.5897C95.386 48.5897 94.6794 48.4864 94.0394 48.2797C93.3994 48.073 92.8494 47.783 92.3894 47.4097C91.936 47.0297 91.5827 46.573 91.3294 46.0397C91.0827 45.5064 90.9594 44.913 90.9594 44.2597C90.9594 43.8664 91.006 43.4964 91.0994 43.1497C91.1927 42.7964 91.336 42.473 91.5294 42.1797C91.7294 41.8864 91.9827 41.6264 92.2894 41.3997C92.6027 41.173 92.976 40.983 93.4094 40.8297C92.7494 40.5297 92.256 40.1164 91.9294 39.5897C91.6027 39.0564 91.4394 38.4164 91.4394 37.6697C91.4394 37.103 91.556 36.5797 91.7894 36.0997C92.0227 35.613 92.3494 35.193 92.7694 34.8397C93.1894 34.4864 93.686 34.2097 94.2594 34.0097C94.8394 33.803 95.4727 33.6997 96.1594 33.6997C96.846 33.6997 97.476 33.803 98.0494 34.0097C98.6294 34.2097 99.1294 34.4864 99.5494 34.8397C99.9694 35.193 100.296 35.613 100.529 36.0997C100.763 36.5797 100.879 37.103 100.879 37.6697C100.879 38.4164 100.716 39.0564 100.389 39.5897C100.063 40.1164 99.5694 40.5297 98.9094 40.8297Z" fill="#3F4041"/>
<rect x="62.5898" y="95.1699" width="62.5352" height="109.812" rx="6" fill="#3C57AF" fill-opacity="0.6"/>
<rect x="133.32" y="152.197" width="78.5625" height="65.7871" rx="6" fill="#5ED6A4" fill-opacity="0.6"/>
<rect x="295.449" y="91.1719" width="78.5625" height="65.7871" rx="6" fill="#CC5151" fill-opacity="0.6"/>
<rect x="295.449" y="185.092" width="78.5625" height="65.7871" rx="6" fill="#3D44EE" fill-opacity="0.6"/>
<rect x="379.676" y="112.426" width="73.1055" height="88.5586" rx="6" fill="#D97E2A" fill-opacity="0.6"/>
<rect x="458.879" y="181.127" width="73.1055" height="128.002" rx="6" fill="#3C57AF" fill-opacity="0.6"/>
<rect x="537.336" y="91.1719" width="60.3359" height="84.9434" rx="6" fill="#5ED6A4" fill-opacity="0.6"/>
</svg>
