<svg width="33" height="33" viewBox="0 0 33 33" fill="none" xmlns="http://www.w3.org/2000/svg">
<g clip-path="url(#clip0_252_14)">
<path d="M33 16.5C33 20.8761 31.2616 25.0729 28.1673 28.1673C25.0729 31.2616 20.8761 33 16.5 33C12.1239 33 7.92709 31.2616 4.83274 28.1673C1.73839 25.0729 0 20.8761 0 16.5C0 12.1239 1.73839 7.92709 4.83274 4.83274C7.92709 1.73839 12.1239 0 16.5 0C20.8761 0 25.0729 1.73839 28.1673 4.83274C31.2616 7.92709 33 12.1239 33 16.5ZM24.8119 10.2506C24.6645 10.1038 24.4891 9.98822 24.2961 9.91076C24.1031 9.83329 23.8964 9.79555 23.6885 9.79979C23.4805 9.80402 23.2756 9.85015 23.0859 9.93541C22.8962 10.0207 22.7256 10.1433 22.5844 10.296L15.4213 19.4226L11.1045 15.1037C10.8113 14.8304 10.4234 14.6817 10.0227 14.6888C9.62193 14.6958 9.23957 14.8582 8.95615 15.1416C8.67274 15.425 8.5104 15.8074 8.50333 16.2081C8.49626 16.6089 8.64501 16.9967 8.91825 17.2899L14.3756 22.7494C14.5226 22.8961 14.6977 23.0118 14.8904 23.0894C15.0831 23.167 15.2894 23.205 15.4971 23.2012C15.7048 23.1973 15.9096 23.1517 16.0992 23.067C16.2889 22.9823 16.4596 22.8602 16.6011 22.7081L24.8346 12.4162C25.1153 12.1244 25.2703 11.7341 25.2665 11.3292C25.2626 10.9243 25.1001 10.5371 24.8139 10.2506H24.8119Z" fill="white"/>
</g>
<defs>
<clipPath id="clip0_252_14">
<rect width="33" height="33" fill="white"/>
</clipPath>
</defs>
</svg>
