<svg width="33" height="33" viewBox="0 0 33 33" fill="none" xmlns="http://www.w3.org/2000/svg">
<g clip-path="url(#clip0_401_7)">
<path d="M16.5 30.9375C12.6709 30.9375 8.9987 29.4164 6.29115 26.7089C3.58359 24.0013 2.0625 20.3291 2.0625 16.5C2.0625 12.6709 3.58359 8.9987 6.29115 6.29115C8.9987 3.58359 12.6709 2.0625 16.5 2.0625C20.3291 2.0625 24.0013 3.58359 26.7089 6.29115C29.4164 8.9987 30.9375 12.6709 30.9375 16.5C30.9375 20.3291 29.4164 24.0013 26.7089 26.7089C24.0013 29.4164 20.3291 30.9375 16.5 30.9375ZM16.5 33C20.8761 33 25.0729 31.2616 28.1673 28.1673C31.2616 25.0729 33 20.8761 33 16.5C33 12.1239 31.2616 7.92709 28.1673 4.83274C25.0729 1.73839 20.8761 0 16.5 0C12.1239 0 7.92709 1.73839 4.83274 4.83274C1.73839 7.92709 0 12.1239 0 16.5C0 20.8761 1.73839 25.0729 4.83274 28.1673C7.92709 31.2616 12.1239 33 16.5 33Z" fill="#5ED6A4"/>
<path d="M22.6264 10.251L22.5852 10.2964L15.4221 19.423L11.1053 15.1041C10.8121 14.8308 10.4242 14.6821 10.0235 14.6892C9.62275 14.6962 9.24039 14.8586 8.95698 15.142C8.67356 15.4254 8.51122 15.8078 8.50415 16.2085C8.49708 16.6093 8.64583 16.9971 8.91907 17.2903L14.3764 22.7498C14.5235 22.8965 14.6985 23.0122 14.8912 23.0898C15.0839 23.1674 15.2902 23.2054 15.4979 23.2016C15.7056 23.1977 15.9104 23.1521 16.1001 23.0674C16.2897 22.9827 16.4604 22.8606 16.6019 22.7085L24.8354 12.4166C25.1157 12.1224 25.269 11.7296 25.2621 11.3232C25.2552 10.9169 25.0886 10.5296 24.7984 10.245C24.5081 9.9605 24.1176 9.80162 23.7112 9.80274C23.3048 9.80386 22.9151 9.96489 22.6264 10.251Z" fill="#5ED6A4"/>
</g>
<defs>
<clipPath id="clip0_401_7">
<rect width="33" height="33" fill="white"/>
</clipPath>
</defs>
</svg>
