<svg width="36" height="36" viewBox="0 0 36 36" fill="none" xmlns="http://www.w3.org/2000/svg">
<path fill-rule="evenodd" clip-rule="evenodd" d="M25.3388 4.1016C25.4407 4.2032 25.5215 4.3239 25.5766 4.45678C25.6318 4.58966 25.6602 4.73211 25.6602 4.87598C25.6602 5.01984 25.6318 5.1623 25.5766 5.29518C25.5215 5.42806 25.4407 5.54875 25.3388 5.65035L12.986 18.001L25.3388 30.3516C25.5442 30.557 25.6596 30.8355 25.6596 31.126C25.6596 31.4164 25.5442 31.695 25.3388 31.9004C25.1335 32.1057 24.8549 32.2211 24.5645 32.2211C24.274 32.2211 23.9955 32.1057 23.7901 31.9004L10.6651 18.7754C10.5632 18.6738 10.4824 18.5531 10.4273 18.4202C10.3721 18.2873 10.3438 18.1448 10.3438 18.001C10.3438 17.8571 10.3721 17.7147 10.4273 17.5818C10.4824 17.4489 10.5632 17.3282 10.6651 17.2266L23.7901 4.1016C23.8917 3.99975 24.0124 3.91893 24.1453 3.8638C24.2781 3.80866 24.4206 3.78027 24.5645 3.78027C24.7083 3.78027 24.8508 3.80866 24.9837 3.8638C25.1165 3.91893 25.2372 3.99975 25.3388 4.1016Z" fill="#0C223D"/>
</svg>
