<svg width="35" height="36" viewBox="0 0 35 36" fill="none" xmlns="http://www.w3.org/2000/svg">
<path fill-rule="evenodd" clip-rule="evenodd" d="M16.4458 10.9327C16.5474 10.8308 16.6681 10.75 16.8009 10.6948C16.9338 10.6397 17.0763 10.6113 17.2201 10.6113C17.364 10.6113 17.5064 10.6397 17.6393 10.6948C17.7722 10.75 17.8929 10.8308 17.9945 10.9327L31.1195 24.0577C31.3249 24.263 31.4403 24.5416 31.4403 24.832C31.4403 25.1225 31.3249 25.401 31.1195 25.6064C30.9141 25.8118 30.6356 25.9272 30.3451 25.9272C30.0547 25.9272 29.7761 25.8118 29.5708 25.6064L17.2201 13.2536L4.86951 25.6064C4.66413 25.8118 4.38558 25.9272 4.09513 25.9272C3.80468 25.9272 3.52613 25.8118 3.32076 25.6064C3.11538 25.401 3 25.1225 3 24.832C3 24.5416 3.11538 24.263 3.32076 24.0577L16.4458 10.9327Z" fill="#5ED6A4"/>
</svg>
