<svg width="35" height="36" viewBox="0 0 35 36" fill="none" xmlns="http://www.w3.org/2000/svg">
<path fill-rule="evenodd" clip-rule="evenodd" d="M10.6612 4.60063C10.7628 4.49877 10.8835 4.41796 11.0163 4.36282C11.1492 4.30768 11.2917 4.2793 11.4355 4.2793C11.5794 4.2793 11.7219 4.30768 11.8547 4.36282C11.9876 4.41796 12.1083 4.49877 12.2099 4.60063L25.3349 17.7256C25.4368 17.8272 25.5176 17.9479 25.5727 18.0808C25.6279 18.2137 25.6563 18.3561 25.6563 18.5C25.6563 18.6439 25.6279 18.7863 25.5727 18.9192C25.5176 19.0521 25.4368 19.1728 25.3349 19.2744L12.2099 32.3994C12.0045 32.6048 11.726 32.7201 11.4355 32.7201C11.1451 32.7201 10.8666 32.6048 10.6612 32.3994C10.4558 32.194 10.3404 31.9154 10.3404 31.625C10.3404 31.3346 10.4558 31.056 10.6612 30.8506L23.014 18.5L10.6612 6.14938C10.5593 6.04778 10.4785 5.92708 10.4234 5.7942C10.3682 5.66132 10.3398 5.51887 10.3398 5.375C10.3398 5.23114 10.3682 5.08868 10.4234 4.9558C10.4785 4.82292 10.5593 4.70223 10.6612 4.60063Z" fill="#0C223D"/>
</svg>
