<svg width="35" height="36" viewBox="0 0 35 36" fill="none" xmlns="http://www.w3.org/2000/svg">
<path fill-rule="evenodd" clip-rule="evenodd" d="M3.32133 10.9327C3.42293 10.8308 3.54363 10.75 3.67651 10.6948C3.80939 10.6397 3.95184 10.6113 4.09571 10.6113C4.23957 10.6113 4.38202 10.6397 4.5149 10.6948C4.64778 10.75 4.76848 10.8308 4.87008 10.9327L17.2207 23.2855L29.5713 10.9327C29.673 10.831 29.7937 10.7503 29.9266 10.6953C30.0595 10.6402 30.2019 10.6119 30.3457 10.6119C30.4895 10.6119 30.6319 10.6402 30.7648 10.6953C30.8977 10.7503 31.0184 10.831 31.1201 10.9327C31.2218 11.0344 31.3024 11.1551 31.3575 11.2879C31.4125 11.4208 31.4408 11.5632 31.4408 11.707C31.4408 11.8508 31.4125 11.9933 31.3575 12.1261C31.3024 12.259 31.2218 12.3797 31.1201 12.4814L17.9951 25.6064C17.8935 25.7083 17.7728 25.7891 17.6399 25.8442C17.507 25.8994 17.3646 25.9277 17.2207 25.9277C17.0768 25.9277 16.9344 25.8994 16.8015 25.8442C16.6686 25.7891 16.5479 25.7083 16.4463 25.6064L3.32133 12.4814C3.21947 12.3798 3.13866 12.2591 3.08352 12.1262C3.02838 11.9934 3 11.8509 3 11.707C3 11.5632 3.02838 11.4207 3.08352 11.2878C3.13866 11.155 3.21947 11.0343 3.32133 10.9327Z" fill="#5ED6A4"/>
</svg>
