<svg width="679" height="792" viewBox="0 0 679 792" fill="none" xmlns="http://www.w3.org/2000/svg">
<mask id="mask0_181_1116" style="mask-type:alpha" maskUnits="userSpaceOnUse" x="0" y="0" width="679" height="792">
<rect x="0.222656" y="0.166016" width="678.777" height="791.445" fill="#0C223D"/>
</mask>
<g mask="url(#mask0_181_1116)">
<g filter="url(#filter0_f_181_1116)">
<rect x="90.6133" y="233.108" width="454.019" height="286.325" fill="url(#paint0_linear_181_1116)"/>
</g>
<path fill-rule="evenodd" clip-rule="evenodd" d="M565.214 262.718C565.62 299.765 541.343 336.885 492.385 365.151C395.273 421.219 237.824 421.219 140.713 365.152C91.7541 336.885 67.4779 299.765 67.8839 262.718H67.8789V232.183H67.884C68.2868 195.748 92.563 159.385 140.713 131.586C237.824 75.5183 395.273 75.5183 492.385 131.586C540.534 159.385 564.811 195.748 565.213 232.183H565.219V262.718H565.214ZM492.385 334.624C395.273 390.691 237.824 390.691 140.713 334.624C105.277 314.165 82.7721 289.068 73.197 262.718H559.9C550.325 289.068 527.82 314.165 492.385 334.624ZM559.211 232.183C549.272 206.504 526.996 182.096 492.385 162.113C395.273 106.046 237.824 106.046 140.713 162.113C106.101 182.096 83.8259 206.504 73.886 232.183H559.211Z" fill="#49A98A"/>
<path d="M492.545 335.341C395.434 391.408 237.985 391.408 140.873 335.341C43.7614 279.273 43.7614 188.37 140.873 132.303C237.985 76.2353 395.434 76.2353 492.545 132.303C589.657 188.37 589.657 279.273 492.545 335.341Z" fill="#5ED6A4"/>
<path d="M475.471 324.77C387.789 375.393 245.629 375.393 157.947 324.77C70.2657 274.147 70.2657 192.071 157.947 141.448C245.629 90.8246 387.789 90.8246 475.471 141.448C563.152 192.071 563.152 274.147 475.471 324.77Z" fill="#0C223D"/>
<path d="M434.986 189.996C432.26 187.323 427.069 185.987 423.392 187.012L305.204 219.933C301.527 220.957 296.336 219.621 293.61 216.948L256.395 180.46C253.67 177.788 248.479 176.452 244.801 177.476L219.277 184.586C215.6 185.61 214.829 188.607 217.554 191.279L283.56 255.995C286.285 258.668 291.476 260.004 295.153 258.979L452.182 215.239C455.859 214.215 456.631 211.218 453.905 208.546L434.986 189.996Z" fill="#5ED6A4"/>
<rect width="130" height="130" rx="27" transform="matrix(0.866025 0.5 -0.866025 0.5 169.512 449.314)" fill="#3C57AF"/>
<rect width="130" height="130" rx="27" transform="matrix(0.866025 0.5 -0.866025 0.5 169.516 422.586)" fill="#6281EC"/>
<path fill-rule="evenodd" clip-rule="evenodd" d="M70.957 489.473L70.957 723.837H268.262V489.888C267.356 493.921 264.22 497.82 258.853 500.919L193.035 538.919C180.121 546.375 159.184 546.375 146.27 538.919L80.4517 500.919C74.9009 497.714 71.736 493.653 70.957 489.473Z" fill="url(#paint1_diamond_181_1116)"/>
<rect width="130" height="130" rx="27" transform="matrix(0.866025 0.5 -0.866025 0.5 508.344 508.211)" fill="#3C57AF"/>
<rect width="130" height="130" rx="27" transform="matrix(0.866025 0.5 -0.866025 0.5 508.348 481.482)" fill="#6281EC"/>
<path fill-rule="evenodd" clip-rule="evenodd" d="M409.789 548.369L409.789 782.733H607.094V548.784C606.188 552.818 603.052 556.717 597.685 559.815L531.867 597.815C518.953 605.271 498.016 605.271 485.102 597.815L419.284 559.815C413.733 556.611 410.568 552.55 409.789 548.369Z" fill="url(#paint2_diamond_181_1116)"/>
<rect width="130" height="130" rx="27" transform="matrix(0.866025 0.5 -0.866025 0.5 699.832 157.761)" fill="#3C57AF"/>
<rect width="130" height="130" rx="27" transform="matrix(0.866025 0.5 -0.866025 0.5 699.836 131.032)" fill="#6281EC"/>
<path fill-rule="evenodd" clip-rule="evenodd" d="M601.277 197.919L601.277 432.283H798.583V198.334C797.677 202.368 794.54 206.267 789.173 209.365L723.355 247.365C710.441 254.821 689.504 254.821 676.59 247.365L610.772 209.365C605.221 206.16 602.056 202.1 601.277 197.919Z" fill="url(#paint3_diamond_181_1116)"/>
</g>
<defs>
<filter id="filter0_f_181_1116" x="0.613281" y="143.108" width="634.02" height="466.325" filterUnits="userSpaceOnUse" color-interpolation-filters="sRGB">
<feFlood flood-opacity="0" result="BackgroundImageFix"/>
<feBlend mode="normal" in="SourceGraphic" in2="BackgroundImageFix" result="shape"/>
<feGaussianBlur stdDeviation="45" result="effect1_foregroundBlur_181_1116"/>
</filter>
<linearGradient id="paint0_linear_181_1116" x1="317.623" y1="233.108" x2="317.623" y2="465.446" gradientUnits="userSpaceOnUse">
<stop stop-color="#5ED6A4" stop-opacity="0.45"/>
<stop offset="1" stop-color="#5ED6A4" stop-opacity="0.05"/>
</linearGradient>
<radialGradient id="paint1_diamond_181_1116" cx="0" cy="0" r="1" gradientUnits="userSpaceOnUse" gradientTransform="translate(169.61 404.375) rotate(90) scale(444.281 374.029)">
<stop offset="0.299539" stop-color="#0C223D" stop-opacity="0.88"/>
<stop offset="0.75211" stop-color="#6281EC" stop-opacity="0"/>
</radialGradient>
<radialGradient id="paint2_diamond_181_1116" cx="0" cy="0" r="1" gradientUnits="userSpaceOnUse" gradientTransform="translate(508.442 463.271) rotate(90) scale(444.281 374.029)">
<stop offset="0.299539" stop-color="#0C223D" stop-opacity="0.88"/>
<stop offset="0.75211" stop-color="#6281EC" stop-opacity="0"/>
</radialGradient>
<radialGradient id="paint3_diamond_181_1116" cx="0" cy="0" r="1" gradientUnits="userSpaceOnUse" gradientTransform="translate(699.93 112.821) rotate(90) scale(444.281 374.029)">
<stop offset="0.299539" stop-color="#0C223D" stop-opacity="0.88"/>
<stop offset="0.75211" stop-color="#6281EC" stop-opacity="0"/>
</radialGradient>
</defs>
</svg>
