<svg xmlns="http://www.w3.org/2000/svg" xmlns:xlink="http://www.w3.org/1999/xlink" width="678.78" height="791" viewBox="0 0 678.78 791">
  <defs>
    <clipPath id="clip-path">
      <rect id="Rectangle_635" data-name="Rectangle 635" width="678.78" height="791" transform="translate(145 1509)" fill="#fff"/>
    </clipPath>
    <filter id="Path_672" x="-5.172" y="55.906" width="611.34" height="431.667" filterUnits="userSpaceOnUse">
      <feOffset dy="25" input="SourceAlpha"/>
      <feGaussianBlur stdDeviation="19" result="blur"/>
      <feFlood flood-color="#5ed6a4" flood-opacity="0.31"/>
      <feComposite operator="in" in2="blur"/>
      <feComposite in="SourceGraphic"/>
    </filter>
    <linearGradient id="linear-gradient" x1="0.564" y1="-1.39" x2="0.465" y2="1.532" gradientUnits="objectBoundingBox">
      <stop offset="0.3" stop-color="#0c223d" stop-opacity="0.659"/>
      <stop offset="0.852" stop-color="#6281ec" stop-opacity="0"/>
    </linearGradient>
    <linearGradient id="linear-gradient-2" x1="0.564" y1="-1.39" x2="0.465" y2="1.532" xlink:href="#linear-gradient"/>
  </defs>
  <g id="Mask_Group_3" data-name="Mask Group 3" transform="translate(-145 -1509)" clip-path="url(#clip-path)">
    <g id="clock_img" transform="translate(128.629 1506.702)">
      <g id="Group_39" data-name="Group 39">
        <g transform="matrix(1, 0, 0, 1, 16.37, 2.3)" filter="url(#Path_672)">
          <path id="Path_672-2" data-name="Path 672" d="M565.534,263.387c.406,37.047-23.87,74.167-72.829,102.433-97.111,56.068-254.56,56.068-351.672,0C92.074,337.554,67.8,300.434,68.2,263.387h0V232.852H68.2c.4-36.435,24.679-72.8,72.829-100.6,97.112-56.068,254.561-56.068,351.672,0,48.15,27.8,72.426,64.162,72.829,100.6h.005v30.535ZM492.7,335.293c-97.111,56.067-254.56,56.067-351.672,0-35.435-20.459-57.941-45.556-67.516-71.906h486.7C550.646,289.737,528.14,314.834,492.7,335.293Zm66.827-102.441c-9.94-25.679-32.216-50.087-66.827-70.07-97.111-56.067-254.56-56.067-351.672,0-34.611,19.983-56.887,44.391-66.827,70.07Z" transform="translate(-16.37 -2.3)" fill="#49a98a" fill-rule="evenodd"/>
        </g>
        <path id="Path_673" data-name="Path 673" d="M492.866,336.01c-97.112,56.067-254.561,56.067-351.673,0s-97.111-146.971,0-203.038,254.561-56.068,351.673,0S589.977,279.942,492.866,336.01Z" fill="#5ed6a4"/>
        <path id="Path_674" data-name="Path 674" d="M475.791,325.439c-87.682,50.623-229.842,50.623-317.523,0s-87.682-132.7,0-183.322,229.841-50.624,317.523,0S563.473,274.816,475.791,325.439Z" fill="#0c223d"/>
        <path id="Path_675" data-name="Path 675" d="M435.306,190.665a13.228,13.228,0,0,0-11.594-2.984L305.525,220.6a13.23,13.23,0,0,1-11.594-2.985l-37.215-36.488a13.234,13.234,0,0,0-11.594-2.984l-25.524,7.11c-3.678,1.024-4.449,4.021-1.723,6.693l66.005,64.716a13.227,13.227,0,0,0,11.594,2.984L452.5,215.908c3.677-1.024,4.449-4.021,1.723-6.693Z" fill="#5ed6a4"/>
      </g>
      <g id="Group_40" data-name="Group 40">
        <path id="Path_676" data-name="Path 676" d="M123.874,454.39c12.914-7.456,33.852-7.456,46.766,0l65.818,38c12.914,7.456,12.914,19.544,0,27l-65.818,38c-12.914,7.456-33.852,7.456-46.766,0l-65.818-38c-12.914-7.456-12.914-19.544,0-27Z" fill="#3c57af"/>
        <path id="Path_677" data-name="Path 677" d="M123.878,427.661c12.914-7.456,33.852-7.456,46.766,0l65.818,38c12.914,7.456,12.914,19.544,0,27l-65.818,38c-12.914,7.456-33.852,7.456-46.766,0l-65.818-38c-12.914-7.456-12.914-19.544,0-27Z" fill="#6281ec"/>
        <path id="Path_678" data-name="Path 678" d="M48.7,481.048v229.82a8,8,0,0,0,3.9,6.871l90.223,53.8a8,8,0,0,0,8.166.017l91.083-53.817a8,8,0,0,0,3.931-6.888V481.463c-.906,4.034-4.043,7.932-9.41,11.031l-65.818,38c-12.913,7.456-33.851,7.456-46.765,0l-65.818-38C52.646,489.289,49.481,485.229,48.7,481.048Z" fill="url(#linear-gradient)"/>
      </g>
      <g id="Group_41" data-name="Group 41">
        <path id="Path_679" data-name="Path 679" d="M505.531,568.641c12.914-7.456,33.851-7.456,46.765,0l65.818,38c12.914,7.456,12.914,19.544,0,27l-65.818,38c-12.914,7.456-33.851,7.456-46.765,0l-65.818-38c-12.914-7.456-12.914-19.544,0-27Z" fill="#3c57af"/>
        <path id="Path_680" data-name="Path 680" d="M505.535,541.912c12.914-7.456,33.851-7.456,46.765,0l65.818,38c12.914,7.456,12.914,19.544,0,27l-65.818,38c-12.914,7.456-33.852,7.456-46.765,0l-65.818-38c-12.914-7.456-12.914-19.544,0-27Z" fill="#6281ec"/>
        <path id="Path_681" data-name="Path 681" d="M430.359,595.3v229.82a8,8,0,0,0,3.9,6.871l90.222,53.8a8,8,0,0,0,8.166.017l91.084-53.817a8,8,0,0,0,3.93-6.888V595.714c-.906,4.034-4.042,7.932-9.409,11.031l-65.818,38c-12.914,7.456-33.852,7.456-46.766,0l-65.818-38C434.3,603.54,431.138,599.48,430.359,595.3Z" fill="url(#linear-gradient-2)"/>
      </g>
      <g id="Group_42" data-name="Group 42">
        <path id="Path_682" data-name="Path 682" d="M669.89,171.866c12.914-7.456,33.852-7.456,46.765,0l65.818,38c12.914,7.456,12.914,19.544,0,27l-65.818,38c-12.913,7.456-33.851,7.456-46.765,0l-65.818-38c-12.914-7.456-12.914-19.544,0-27Z" fill="#3c57af"/>
        <path id="Path_683" data-name="Path 683" d="M669.894,145.138c12.914-7.456,33.851-7.456,46.765,0l65.818,38c12.914,7.456,12.914,19.544,0,27l-65.818,38c-12.914,7.456-33.851,7.456-46.765,0l-65.818-38c-12.914-7.456-12.914-19.544,0-27Z" fill="#6281ec"/>
        <path id="Path_684" data-name="Path 684" d="M594.718,198.524V428.345a8,8,0,0,0,3.9,6.871l90.222,53.8a8,8,0,0,0,8.167.016l91.083-53.817a8,8,0,0,0,3.93-6.887V198.939c-.906,4.034-4.042,7.933-9.409,11.032l-65.818,38c-12.914,7.456-33.851,7.456-46.765,0l-65.818-38C598.662,206.766,595.5,202.705,594.718,198.524Z" fill="url(#linear-gradient)"/>
      </g>
    </g>
  </g>
</svg>
