<svg width="450" height="285" viewBox="0 0 450 285" fill="none" xmlns="http://www.w3.org/2000/svg">
<path d="M2.22389 232.95C1.67313 232.909 1.19345 233.322 1.1525 233.873L0.485146 242.848C0.444195 243.399 0.85748 243.879 1.40825 243.92C1.95901 243.961 2.43869 243.548 2.47964 242.997L3.07284 235.019L11.0508 235.612C11.6016 235.653 12.0813 235.24 12.1222 234.689C12.1632 234.138 11.7499 233.658 11.1991 233.617L2.22389 232.95ZM278.778 227.308L279.606 227.868L278.778 227.308ZM251.182 148.803L251.015 149.789L251.182 148.803ZM224.524 241.195L225.05 240.344L224.524 241.195ZM351.128 251.173L351.474 252.112L351.128 251.173ZM435.959 178.735L436.856 179.177L435.959 178.735ZM132.789 282.841L132.845 281.842L132.789 282.841ZM379.19 0.157088C378.718 -0.130633 378.103 0.0182782 377.815 0.489701C377.527 0.961114 377.676 1.57652 378.148 1.86424L379.19 0.157088ZM442.272 79.8543L441.31 80.1272L442.272 79.8543ZM7.35753 240.354C7.77412 240.717 8.40577 240.673 8.76836 240.256C9.13094 239.84 9.08717 239.208 8.67057 238.845L7.35753 240.354ZM27.6163 252.428C27.1429 252.144 26.5285 252.297 26.2441 252.77C25.9597 253.244 26.1129 253.858 26.5863 254.143L27.6163 252.428ZM54.9415 267.916C55.4564 268.116 56.0357 267.861 56.2354 267.346C56.4351 266.831 56.1796 266.252 55.6647 266.052L54.9415 267.916ZM71.0197 271.335C70.4911 271.175 69.9329 271.474 69.7728 272.003C69.6128 272.531 69.9115 273.09 70.4401 273.25L71.0197 271.335ZM93.3804 278.958C93.9221 279.065 94.4484 278.713 94.5558 278.171C94.6633 277.629 94.3112 277.103 93.7695 276.996L93.3804 278.958ZM124.715 281.28C124.164 281.235 123.681 281.644 123.636 282.194C123.59 282.745 123.999 283.228 124.55 283.273L124.715 281.28ZM142.091 284.175C142.643 284.184 143.098 283.743 143.107 283.191C143.116 282.639 142.675 282.184 142.123 282.175L142.091 284.175ZM168.773 281.002C168.224 281.06 167.825 281.552 167.883 282.101C167.942 282.651 168.434 283.049 168.983 282.991L168.773 281.002ZM204.204 276.142C204.734 275.989 205.04 275.434 204.886 274.904C204.732 274.373 204.178 274.068 203.647 274.221L204.204 276.142ZM221.139 268.198C220.627 268.404 220.379 268.987 220.585 269.499C220.791 270.011 221.374 270.259 221.886 270.053L221.139 268.198ZM246.018 258.033C246.49 257.746 246.64 257.131 246.353 256.659C246.066 256.187 245.451 256.037 244.979 256.324L246.018 258.033ZM272.329 233.992C271.965 234.407 272.007 235.039 272.422 235.403C272.837 235.767 273.469 235.725 273.833 235.31L272.329 233.992ZM282.559 222.934C282.816 222.446 282.629 221.841 282.14 221.584C281.652 221.326 281.047 221.514 280.789 222.002L282.559 222.934ZM286.007 206.989C285.903 207.531 286.259 208.055 286.801 208.159C287.344 208.262 287.868 207.906 287.971 207.364L286.007 206.989ZM287.977 185.45C287.873 184.908 287.349 184.553 286.807 184.657C286.264 184.761 285.909 185.285 286.013 185.828L287.977 185.45ZM282.8 175.255C283.017 175.763 283.605 175.999 284.113 175.782C284.621 175.565 284.856 174.977 284.639 174.469L282.8 175.255ZM275.647 160.617C275.268 160.216 274.635 160.198 274.233 160.578C273.832 160.957 273.815 161.59 274.194 161.991L275.647 160.617ZM256.395 151.045C256.924 151.204 257.481 150.904 257.64 150.375C257.799 149.846 257.5 149.289 256.971 149.13L256.395 151.045ZM243.069 146.924C242.517 146.899 242.05 147.327 242.026 147.879C242.002 148.431 242.429 148.897 242.981 148.922L243.069 146.924ZM220.442 152.873C220.947 152.65 221.176 152.06 220.953 151.555C220.73 151.049 220.14 150.82 219.635 151.043L220.442 152.873ZM197.282 173.123C197.054 173.626 197.276 174.219 197.779 174.448C198.282 174.676 198.875 174.454 199.103 173.951L197.282 173.123ZM195.254 189.391C195.291 188.84 194.874 188.364 194.322 188.327C193.771 188.291 193.295 188.708 193.259 189.259L195.254 189.391ZM197.423 212.699C197.642 213.206 198.231 213.439 198.738 213.22C199.245 213.001 199.478 212.412 199.259 211.905L197.423 212.699ZM218.379 235.744C217.941 235.407 217.313 235.489 216.976 235.927C216.639 236.364 216.721 236.992 217.158 237.329L218.379 235.744ZM230.575 245.899C231.058 246.167 231.667 245.993 231.935 245.51C232.203 245.027 232.028 244.419 231.545 244.151L230.575 245.899ZM251.17 253.224C250.652 253.032 250.077 253.296 249.884 253.814C249.692 254.332 249.956 254.907 250.474 255.099L251.17 253.224ZM278.842 262.112C279.389 262.181 279.89 261.794 279.96 261.246C280.029 260.698 279.642 260.197 279.094 260.128L278.842 262.112ZM294.067 261.119C293.515 261.116 293.064 261.56 293.061 262.113C293.057 262.665 293.502 263.116 294.054 263.119L294.067 261.119ZM315.923 261.503C316.469 261.42 316.844 260.911 316.761 260.365C316.679 259.818 316.169 259.443 315.623 259.526L315.923 261.503ZM343.666 252.716C343.142 252.888 342.856 253.453 343.028 253.978C343.201 254.503 343.766 254.788 344.291 254.616L343.666 252.716ZM357.616 249.72C358.127 249.51 358.371 248.926 358.161 248.415C357.951 247.904 357.367 247.66 356.856 247.87L357.616 249.72ZM373.769 239.816C373.284 240.08 373.106 240.688 373.371 241.173C373.636 241.657 374.243 241.836 374.728 241.571L373.769 239.816ZM395.919 227.789C396.357 227.453 396.439 226.825 396.103 226.387C395.767 225.949 395.139 225.866 394.701 226.203L395.919 227.789ZM404.676 217.859C404.268 218.231 404.239 218.864 404.611 219.272C404.983 219.68 405.615 219.71 406.023 219.338L404.676 217.859ZM419.22 205.703C419.578 205.282 419.527 204.651 419.106 204.293C418.686 203.936 418.055 203.987 417.697 204.407L419.22 205.703ZM432.027 184.023C431.755 184.504 431.924 185.114 432.404 185.386C432.885 185.658 433.495 185.489 433.767 185.008L432.027 184.023ZM439.326 173.851C439.546 173.344 439.314 172.755 438.808 172.535C438.301 172.315 437.712 172.547 437.492 173.054L439.326 173.851ZM443.031 157.412C442.883 157.944 443.195 158.496 443.727 158.643C444.259 158.791 444.81 158.48 444.958 157.948L443.031 157.412ZM449.004 135.839C449.055 135.289 448.651 134.802 448.102 134.75C447.552 134.699 447.064 135.103 447.013 135.653L449.004 135.839ZM447.588 124.127C447.584 124.68 448.028 125.131 448.581 125.135C449.133 125.139 449.584 124.694 449.588 124.142L447.588 124.127ZM448.727 107.318C448.668 106.769 448.175 106.372 447.626 106.431C447.076 106.491 446.68 106.984 446.739 107.533L448.727 107.318ZM442.804 85.7042C442.938 86.2399 443.481 86.5652 444.017 86.4308C444.553 86.2963 444.878 85.7531 444.744 85.2174L442.804 85.7042ZM441.399 73.88C441.213 73.3599 440.641 73.0888 440.121 73.2746C439.601 73.4604 439.33 74.0326 439.516 74.5527L441.399 73.88ZM432.655 59.062C432.912 59.5507 433.517 59.7384 434.006 59.4811C434.494 59.2239 434.682 58.6192 434.425 58.1304L432.655 59.062ZM422.118 38.7758C421.786 38.3348 421.159 38.2469 420.718 38.5795C420.277 38.912 420.189 39.539 420.522 39.98L422.118 38.7758ZM413.043 30.858C413.41 31.2706 414.043 31.3075 414.455 30.9405C414.868 30.5734 414.905 29.9413 414.538 29.5287L413.043 30.858ZM402.396 17.3565C401.984 16.9882 401.352 17.0232 400.984 17.4347C400.615 17.8463 400.651 18.4785 401.062 18.8468L402.396 17.3565ZM383.135 5.0339C383.596 5.33861 384.216 5.2122 384.521 4.75157C384.826 4.29094 384.699 3.67052 384.239 3.36583L383.135 5.0339ZM2.14974 233.947C1.39215 234.6 1.39224 234.6 1.39234 234.6C1.39238 234.6 1.39249 234.601 1.39257 234.601C1.39274 234.601 1.39293 234.601 1.39316 234.601C1.39362 234.602 1.39418 234.602 1.39486 234.603C1.39623 234.605 1.39807 234.607 1.40036 234.61C1.40495 234.615 1.41139 234.622 1.4197 234.632C1.43631 234.651 1.46037 234.678 1.49192 234.713C1.55502 234.784 1.6481 234.888 1.77154 235.022C2.01843 235.29 2.38679 235.68 2.87974 236.179C3.86563 237.176 5.34992 238.607 7.35753 240.354L8.67057 238.845C6.7024 237.132 5.25454 235.736 4.30222 234.773C3.82606 234.291 3.4738 233.918 3.24235 233.666C3.12662 233.541 3.0411 233.446 2.98539 233.383C2.95754 233.352 2.93714 233.329 2.92414 233.314C2.91765 233.307 2.913 233.301 2.9102 233.298C2.9088 233.296 2.90787 233.295 2.90739 233.295C2.90715 233.294 2.90702 233.294 2.90701 233.294C2.90701 233.294 2.90704 233.294 2.90709 233.294C2.90712 233.294 2.90718 233.294 2.90719 233.294C2.90726 233.295 2.90733 233.295 2.14974 233.947ZM26.5863 254.143C34.1735 258.701 43.5786 263.509 54.9415 267.916L55.6647 266.052C44.4127 261.688 35.1099 256.93 27.6163 252.428L26.5863 254.143ZM70.4401 273.25C77.491 275.385 85.1304 277.321 93.3804 278.958L93.7695 276.996C85.5839 275.372 78.0081 273.451 71.0197 271.335L70.4401 273.25ZM124.55 283.273C127.229 283.495 129.956 283.684 132.733 283.839L132.845 281.842C130.086 281.688 127.376 281.5 124.715 281.28L124.55 283.273ZM132.733 283.839C135.89 284.016 139.01 284.127 142.091 284.175L142.123 282.175C139.068 282.127 135.975 282.017 132.845 281.842L132.733 283.839ZM168.983 282.991C181.572 281.66 193.344 279.288 204.204 276.142L203.647 274.221C192.9 277.334 181.244 279.683 168.773 281.002L168.983 282.991ZM221.886 270.053C230.742 266.488 238.81 262.416 246.018 258.033L244.979 256.324C237.866 260.649 229.897 264.673 221.139 268.198L221.886 270.053ZM273.833 235.31C276.013 232.821 277.941 230.332 279.606 227.868L277.949 226.748C276.334 229.137 274.458 231.56 272.329 233.992L273.833 235.31ZM279.606 227.868C280.684 226.273 281.668 224.625 282.559 222.934L280.789 222.002C279.932 223.63 278.986 225.215 277.949 226.748L279.606 227.868ZM287.971 207.364C289.36 200.088 289.35 192.586 287.977 185.45L286.013 185.828C287.338 192.714 287.348 199.961 286.007 206.989L287.971 207.364ZM284.639 174.469C282.453 169.352 279.452 164.639 275.647 160.617L274.194 161.991C277.823 165.828 280.699 170.337 282.8 175.255L284.639 174.469ZM256.971 149.13C255.169 148.588 253.295 148.148 251.35 147.817L251.015 149.789C252.88 150.106 254.674 150.527 256.395 151.045L256.971 149.13ZM251.35 147.817C248.507 147.334 245.745 147.041 243.069 146.924L242.981 148.922C245.572 149.035 248.251 149.319 251.015 149.789L251.35 147.817ZM219.635 151.043C209.298 155.602 201.635 163.543 197.282 173.123L199.103 173.951C203.259 164.803 210.569 157.228 220.442 152.873L219.635 151.043ZM193.259 189.259C192.751 196.919 194.068 204.938 197.423 212.699L199.259 211.905C196.028 204.432 194.768 196.73 195.254 189.391L193.259 189.259ZM217.158 237.329C219.287 238.969 221.566 240.544 223.999 242.046L225.05 240.344C222.674 238.878 220.452 237.341 218.379 235.744L217.158 237.329ZM223.999 242.046C226.192 243.4 228.384 244.684 230.575 245.899L231.545 244.151C229.382 242.95 227.217 241.682 225.05 240.344L223.999 242.046ZM250.474 255.099C259.913 258.603 269.357 260.906 278.842 262.112L279.094 260.128C269.763 258.942 260.467 256.676 251.17 253.224L250.474 255.099ZM294.054 263.119C301.309 263.168 308.593 262.614 315.923 261.503L315.623 259.526C308.391 260.621 301.211 261.167 294.067 261.119L294.054 263.119ZM344.291 254.616C346.678 253.831 349.072 252.996 351.474 252.112L350.782 250.235C348.403 251.111 346.031 251.939 343.666 252.716L344.291 254.616ZM351.474 252.112C353.556 251.345 355.604 250.547 357.616 249.72L356.856 247.87C354.867 248.688 352.842 249.476 350.782 250.235L351.474 252.112ZM374.728 241.571C382.43 237.363 389.491 232.723 395.919 227.789L394.701 226.203C388.354 231.075 381.379 235.658 373.769 239.816L374.728 241.571ZM406.023 219.338C410.872 214.921 415.269 210.348 419.22 205.703L417.697 204.407C413.801 208.988 409.462 213.5 404.676 217.859L406.023 219.338ZM433.767 185.008C434.873 183.054 435.903 181.108 436.856 179.177L435.062 178.292C434.126 180.189 433.114 182.101 432.027 184.023L433.767 185.008ZM436.856 179.177C437.733 177.4 438.555 175.624 439.326 173.851L437.492 173.054C436.734 174.797 435.925 176.544 435.062 178.292L436.856 179.177ZM444.958 157.948C447.065 150.362 448.339 142.941 449.004 135.839L447.013 135.653C446.358 142.647 445.104 149.95 443.031 157.412L444.958 157.948ZM449.588 124.142C449.631 118.177 449.292 112.533 448.727 107.318L446.739 107.533C447.296 112.68 447.631 118.247 447.588 124.127L449.588 124.142ZM444.744 85.2174C444.214 83.1061 443.699 81.2192 443.234 79.5815L441.31 80.1272C441.771 81.75 442.28 83.6168 442.804 85.7042L444.744 85.2174ZM443.234 79.5815C442.753 77.8828 442.146 75.9711 441.399 73.88L439.516 74.5527C440.248 76.6036 440.841 78.4729 441.31 80.1272L443.234 79.5815ZM434.425 58.1304C431.247 52.0924 427.203 45.5176 422.118 38.7758L420.522 39.98C425.537 46.63 429.524 53.1128 432.655 59.062L434.425 58.1304ZM414.538 29.5287C410.905 25.4444 406.87 21.3604 402.396 17.3565L401.062 18.8468C405.478 22.7985 409.459 26.8284 413.043 30.858L414.538 29.5287ZM384.239 3.36583C382.598 2.28036 380.915 1.21011 379.19 0.157088L378.148 1.86424C379.852 2.90457 381.515 3.96179 383.135 5.0339L384.239 3.36583Z" fill="#5ED6A4"/>
</svg>
