<svg width="387" height="245" viewBox="0 0 387 245" fill="none" xmlns="http://www.w3.org/2000/svg">
<path d="M384.534 200.403C385.085 200.362 385.564 200.775 385.605 201.326L386.273 210.301C386.314 210.852 385.9 211.332 385.349 211.372C384.799 211.413 384.319 211 384.278 210.449L383.685 202.471L375.707 203.065C375.156 203.106 374.676 202.692 374.636 202.141C374.595 201.591 375.008 201.111 375.559 201.07L384.534 200.403ZM147.43 195.707L148.258 195.147L147.43 195.707ZM171.09 128.398L171.257 129.384L171.09 128.398ZM193.946 207.614L193.421 206.763L193.946 207.614ZM85.3975 216.169L85.052 217.108L85.3975 216.169ZM12.6643 154.061L11.7676 154.504L12.6643 154.061ZM272.599 243.321L272.544 242.322L272.599 243.321ZM61.2634 0.828809C61.7348 0.541088 62.3502 0.689999 62.6379 1.16141C62.9256 1.63283 62.7767 2.24824 62.3053 2.53596L61.2634 0.828809ZM7.2513 69.2822L6.28924 69.0093L7.2513 69.2822ZM380.236 207.001C379.82 207.363 379.188 207.319 378.826 206.903C378.463 206.486 378.507 205.854 378.923 205.492L380.236 207.001ZM362.7 217.123C363.173 216.839 363.788 216.992 364.072 217.465C364.356 217.939 364.203 218.553 363.73 218.837L362.7 217.123ZM339.396 230.658C338.882 230.857 338.302 230.602 338.103 230.087C337.903 229.572 338.158 228.993 338.673 228.793L339.396 230.658ZM325.518 233.32C326.047 233.16 326.605 233.458 326.765 233.987C326.925 234.515 326.626 235.074 326.098 235.234L325.518 233.32ZM306.415 240.131C305.874 240.239 305.347 239.886 305.24 239.345C305.133 238.803 305.485 238.277 306.026 238.169L306.415 240.131ZM279.51 241.84C280.061 241.795 280.544 242.204 280.589 242.755C280.635 243.305 280.225 243.788 279.675 243.834L279.51 241.84ZM264.626 244.607C264.074 244.616 263.619 244.176 263.61 243.623C263.601 243.071 264.042 242.616 264.594 242.608L264.626 244.607ZM241.762 241.602C242.311 241.66 242.709 242.153 242.651 242.702C242.593 243.251 242.101 243.649 241.552 243.591L241.762 241.602ZM211.329 237.715C210.799 237.561 210.493 237.006 210.647 236.476C210.801 235.945 211.355 235.64 211.886 235.794L211.329 237.715ZM196.902 230.634C197.414 230.84 197.662 231.422 197.456 231.935C197.25 232.447 196.667 232.695 196.155 232.489L196.902 230.634ZM175.444 222.173C174.972 221.886 174.822 221.271 175.109 220.799C175.396 220.327 176.011 220.177 176.483 220.464L175.444 222.173ZM153.067 201.344C153.431 201.76 153.389 202.391 152.973 202.755C152.558 203.119 151.926 203.077 151.562 202.662L153.067 201.344ZM144.062 192.024C143.804 191.535 143.992 190.931 144.48 190.673C144.969 190.416 145.574 190.603 145.831 191.092L144.062 192.024ZM141.372 178.259C141.476 178.802 141.12 179.325 140.577 179.429C140.035 179.533 139.511 179.177 139.408 178.634L141.372 178.259ZM139.402 159.792C139.506 159.25 140.031 158.895 140.573 158.999C141.115 159.103 141.47 159.627 141.366 160.17L139.402 159.792ZM144.112 151.134C143.895 151.642 143.308 151.878 142.8 151.661C142.292 151.444 142.056 150.856 142.273 150.348L144.112 151.134ZM150.01 138.429C150.39 138.028 151.023 138.01 151.424 138.39C151.825 138.77 151.843 139.402 151.463 139.804L150.01 138.429ZM166.662 130.457C166.133 130.616 165.575 130.316 165.416 129.787C165.257 129.258 165.557 128.701 166.086 128.542L166.662 130.457ZM178.04 126.644C178.592 126.62 179.059 127.048 179.083 127.599C179.107 128.151 178.68 128.618 178.128 128.642L178.04 126.644ZM197.389 132.018C196.884 131.795 196.655 131.205 196.878 130.7C197.1 130.194 197.691 129.965 198.196 130.188L197.389 132.018ZM217.433 149.191C217.662 149.694 217.439 150.287 216.936 150.515C216.434 150.744 215.841 150.521 215.612 150.018L217.433 149.191ZM218.9 163.207C218.863 162.656 219.281 162.18 219.832 162.143C220.383 162.107 220.859 162.524 220.895 163.075L218.9 163.207ZM217.313 183.238C217.094 183.745 216.506 183.979 215.999 183.76C215.492 183.54 215.258 182.952 215.478 182.445L217.313 183.238ZM199.128 202.828C199.566 202.491 200.194 202.572 200.531 203.01C200.868 203.447 200.786 204.075 200.349 204.412L199.128 202.828ZM188.828 211.772C188.345 212.04 187.736 211.866 187.468 211.383C187.2 210.9 187.374 210.291 187.857 210.023L188.828 211.772ZM171.051 217.794C171.569 217.602 172.144 217.866 172.336 218.384C172.529 218.901 172.265 219.477 171.747 219.669L171.051 217.794ZM147.393 225.689C146.845 225.759 146.345 225.371 146.275 224.823C146.205 224.276 146.593 223.775 147.141 223.705L147.393 225.689ZM134.32 224.554C134.872 224.551 135.323 224.995 135.326 225.548C135.33 226.1 134.885 226.551 134.333 226.554L134.32 224.554ZM115.561 225.167C115.015 225.084 114.639 224.574 114.722 224.028C114.805 223.482 115.315 223.107 115.861 223.189L115.561 225.167ZM91.8397 217.356C92.3644 217.529 92.65 218.094 92.4776 218.618C92.3051 219.143 91.74 219.429 91.2153 219.256L91.8397 217.356ZM79.7805 215.055C79.2696 214.845 79.0257 214.261 79.2355 213.75C79.4454 213.239 80.0297 212.996 80.5405 213.205L79.7805 215.055ZM66.0538 206.306C66.5385 206.571 66.7168 207.179 66.452 207.663C66.1872 208.148 65.5797 208.326 65.095 208.061L66.0538 206.306ZM46.9077 196.233C46.4696 195.897 46.3871 195.269 46.7234 194.831C47.0596 194.393 47.6874 194.31 48.1255 194.647L46.9077 196.233ZM39.5816 187.501C39.9899 187.873 40.0194 188.505 39.6475 188.913C39.2755 189.322 38.643 189.351 38.2348 188.979L39.5816 187.501ZM26.9074 177.276C26.5495 176.855 26.6005 176.224 27.0212 175.866C27.4419 175.509 28.073 175.559 28.4308 175.98L26.9074 177.276ZM16.16 158.525C16.432 159.006 16.2629 159.616 15.7823 159.888C15.3016 160.16 14.6915 159.991 14.4194 159.51L16.16 158.525ZM9.64658 149.931C9.42639 149.424 9.65847 148.835 10.165 148.615C10.6715 148.395 11.2606 148.627 11.4807 149.133L9.64658 149.931ZM6.73798 135.741C6.88579 136.274 6.57424 136.825 6.04211 136.973C5.50997 137.12 4.95876 136.809 4.81096 136.277L6.73798 135.741ZM1.33763 117.296C1.28617 116.746 1.6902 116.259 2.24009 116.207C2.78996 116.156 3.27747 116.56 3.32894 117.11L1.33763 117.296ZM2.83627 107.24C2.84028 107.793 2.39583 108.244 1.84355 108.248C1.2913 108.252 0.840351 107.807 0.836318 107.255L2.83627 107.24ZM1.57506 92.814C1.63449 92.2649 2.12777 91.8679 2.67683 91.9273C3.22592 91.9868 3.62287 92.48 3.56347 93.0291L1.57506 92.814ZM6.93392 74.3325C6.79948 74.8682 6.25626 75.1935 5.72059 75.059C5.18492 74.9246 4.85964 74.3814 4.99408 73.8457L6.93392 74.3325ZM7.8657 64.1118C8.05148 63.5917 8.6237 63.3207 9.14379 63.5065C9.66389 63.6922 9.93493 64.2645 9.74914 64.7846L7.8657 64.1118ZM15.6233 51.5214C15.366 52.0101 14.7613 52.1978 14.2726 51.9406C13.7839 51.6833 13.5962 51.0786 13.8535 50.5899L15.6233 51.5214ZM24.4171 33.9759C24.7497 33.535 25.3767 33.4471 25.8177 33.7796C26.2586 34.1122 26.3465 34.7392 26.014 35.1802L24.4171 33.9759ZM32.4184 27.3679C32.0513 27.7806 31.4193 27.8175 31.0066 27.4505C30.594 27.0834 30.557 26.4513 30.9241 26.0387L32.4184 27.3679ZM41.3459 15.5908C41.7574 15.2225 42.3896 15.2576 42.758 15.6691C43.1263 16.0806 43.0912 16.7128 42.6797 17.0811L41.3459 15.5908ZM58.0335 5.25081C57.5729 5.55551 56.9525 5.42911 56.6477 4.96848C56.343 4.50785 56.4694 3.88743 56.9301 3.58274L58.0335 5.25081ZM384.608 201.4C385.366 202.053 385.365 202.053 385.365 202.053C385.365 202.053 385.365 202.053 385.365 202.053C385.365 202.053 385.365 202.054 385.365 202.054C385.364 202.054 385.364 202.055 385.363 202.056C385.362 202.057 385.36 202.059 385.358 202.061C385.354 202.066 385.348 202.072 385.341 202.081C385.327 202.097 385.306 202.121 385.278 202.152C385.224 202.213 385.144 202.302 385.037 202.418C384.824 202.649 384.507 202.985 384.084 203.413C383.236 204.271 381.961 205.5 380.236 207.001L378.923 205.492C380.608 204.026 381.847 202.831 382.661 202.008C383.068 201.596 383.369 201.277 383.566 201.062C383.665 200.955 383.738 200.874 383.785 200.821C383.809 200.795 383.826 200.775 383.837 200.763C383.842 200.757 383.846 200.752 383.848 200.75C383.849 200.748 383.85 200.747 383.851 200.747C383.851 200.747 383.851 200.747 383.851 200.747C383.851 200.747 383.851 200.747 383.851 200.747C383.851 200.747 383.851 200.747 383.851 200.747C383.85 200.747 383.85 200.747 384.608 201.4ZM363.73 218.837C357.218 222.75 349.147 226.876 339.396 230.658L338.673 228.793C348.313 225.054 356.281 220.979 362.7 217.123L363.73 218.837ZM326.098 235.234C320.048 237.066 313.494 238.727 306.415 240.131L306.026 238.169C313.04 236.778 319.531 235.132 325.518 233.32L326.098 235.234ZM279.675 243.834C277.377 244.024 275.037 244.186 272.655 244.319L272.544 242.322C274.908 242.19 277.23 242.029 279.51 241.84L279.675 243.834ZM272.655 244.319C269.947 244.47 267.27 244.566 264.626 244.607L264.594 242.608C267.212 242.566 269.862 242.472 272.544 242.322L272.655 244.319ZM241.552 243.591C230.75 242.449 220.649 240.414 211.329 237.715L211.886 235.794C221.092 238.46 231.078 240.473 241.762 241.602L241.552 243.591ZM196.155 232.489C188.555 229.43 181.631 225.935 175.444 222.173L176.483 220.464C182.574 224.168 189.4 227.614 196.902 230.634L196.155 232.489ZM151.562 202.662C149.69 200.524 148.033 198.385 146.601 196.267L148.258 195.147C149.639 197.19 151.244 199.264 153.067 201.344L151.562 202.662ZM146.601 196.267C145.674 194.896 144.828 193.478 144.062 192.024L145.831 191.092C146.564 192.483 147.373 193.837 148.258 195.147L146.601 196.267ZM139.408 178.634C138.214 172.379 138.222 165.928 139.402 159.792L141.366 160.17C140.234 166.056 140.225 172.251 141.372 178.259L139.408 178.634ZM142.273 150.348C144.153 145.946 146.736 141.891 150.01 138.429L151.463 139.804C148.364 143.08 145.907 146.931 144.112 151.134L142.273 150.348ZM166.086 128.542C167.636 128.075 169.249 127.696 170.922 127.412L171.257 129.384C169.664 129.655 168.132 130.015 166.662 130.457L166.086 128.542ZM170.922 127.412C173.365 126.997 175.74 126.745 178.04 126.644L178.128 128.642C175.913 128.739 173.621 128.982 171.257 129.384L170.922 127.412ZM198.196 130.188C207.092 134.112 213.687 140.946 217.433 149.191L215.612 150.018C212.063 142.206 205.82 135.737 197.389 132.018L198.196 130.188ZM220.895 163.075C221.332 169.666 220.199 176.563 217.313 183.238L215.478 182.445C218.239 176.057 219.315 169.476 218.9 163.207L220.895 163.075ZM200.349 204.412C198.519 205.821 196.561 207.175 194.472 208.465L193.421 206.763C195.454 205.508 197.355 204.193 199.128 202.828L200.349 204.412ZM194.472 208.465C192.589 209.627 190.708 210.729 188.828 211.772L187.857 210.023C189.71 208.995 191.565 207.909 193.421 206.763L194.472 208.465ZM171.747 219.669C163.644 222.677 155.536 224.655 147.393 225.689L147.141 223.705C155.13 222.69 163.09 220.75 171.051 217.794L171.747 219.669ZM134.333 226.554C128.105 226.596 121.852 226.12 115.561 225.167L115.861 223.189C122.055 224.128 128.203 224.596 134.32 224.554L134.333 226.554ZM91.2153 219.256C89.1666 218.583 87.1123 217.866 85.052 217.108L85.7431 215.231C87.7821 215.982 89.8141 216.691 91.8397 217.356L91.2153 219.256ZM85.052 217.108C83.2645 216.449 81.5074 215.765 79.7805 215.055L80.5405 213.205C82.2446 213.906 83.9787 214.581 85.7431 215.231L85.052 217.108ZM65.095 208.061C58.485 204.45 52.4246 200.468 46.9077 196.233L48.1255 194.647C53.5615 198.82 59.5355 202.745 66.0538 206.306L65.095 208.061ZM38.2348 188.979C34.0733 185.188 30.2987 181.263 26.9074 177.276L28.4308 175.98C31.7674 179.903 35.483 183.767 39.5816 187.501L38.2348 188.979ZM14.4194 159.51C13.4697 157.832 12.5859 156.162 11.7676 154.504L13.5611 153.619C14.3624 155.242 15.2285 156.879 16.16 158.525L14.4194 159.51ZM11.7676 154.504C11.0146 152.978 10.3083 151.453 9.64658 149.931L11.4807 149.133C12.1298 150.626 12.8225 152.122 13.5611 153.619L11.7676 154.504ZM4.81096 136.277C3.00185 129.764 1.90829 123.393 1.33763 117.296L3.32894 117.11C3.88955 123.099 4.96334 129.352 6.73798 135.741L4.81096 136.277ZM0.836318 107.255C0.799141 102.135 1.09078 97.2901 1.57506 92.814L3.56347 93.0291C3.08651 97.4375 2.79972 102.205 2.83627 107.24L0.836318 107.255ZM4.99408 73.8457C5.44881 72.0337 5.8907 70.4145 6.28924 69.0093L8.21336 69.555C7.81903 70.9454 7.38265 72.5445 6.93392 74.3325L4.99408 73.8457ZM6.28924 69.0093C6.70321 67.5497 7.22425 65.9076 7.8657 64.1118L9.74914 64.7846C9.12206 66.5401 8.61471 68.1398 8.21336 69.555L6.28924 69.0093ZM13.8535 50.5899C16.5816 45.4066 20.053 39.7629 24.4171 33.9759L26.014 35.1802C21.7191 40.8753 18.3047 46.427 15.6233 51.5214L13.8535 50.5899ZM30.9241 26.0387C34.0426 22.5329 37.5058 19.0275 41.3459 15.5908L42.6797 17.0811C38.898 20.4656 35.4882 23.917 32.4184 27.3679L30.9241 26.0387ZM56.9301 3.58274C58.3385 2.65111 59.7826 1.73255 61.2634 0.828809L62.3053 2.53596C60.8454 3.42702 59.4217 4.33254 58.0335 5.25081L56.9301 3.58274Z" fill="#5ED6A4"/>
</svg>
