<svg width="965" height="846" viewBox="0 0 965 846" fill="none" xmlns="http://www.w3.org/2000/svg">
<path fill-rule="evenodd" clip-rule="evenodd" d="M14.1641 619.553L14.1641 779.59L112.816 845.767L211.469 779.59V619.968C210.563 624.002 207.427 627.9 202.06 630.999L136.242 668.999C123.328 676.455 102.391 676.455 89.4767 668.999L23.6588 630.999C18.1079 627.794 14.943 623.734 14.1641 619.553Z" fill="url(#paint0_linear_665_171)"/>
<rect width="130" height="130" rx="27" transform="matrix(0.866025 0.5 -0.866025 0.5 112.719 579.395)" fill="#0D74AE"/>
<rect x="-2.98023e-08" y="0.5" width="129" height="129" rx="26.5" transform="matrix(0.866025 0.5 -0.866025 0.5 113.156 552.916)" fill="#0084CE" stroke="#2B8FC7"/>
<path d="M120.502 579.933C117.951 581.406 117.951 583.794 120.502 585.266C123.053 586.739 127.189 586.739 129.74 585.266C132.291 583.794 132.291 581.406 129.74 579.933C127.189 578.46 123.053 578.46 120.502 579.933ZM144.526 593.803L145.392 594.303L146.258 593.803L145.392 593.303L144.526 593.803ZM72.7223 635.259L71.8563 634.759L70.9903 635.259L71.8563 635.759L72.7223 635.259ZM92.711 646.799C90.1601 648.272 90.1601 650.66 92.711 652.133C95.2619 653.605 99.3977 653.605 101.949 652.133C104.5 650.66 104.5 648.272 101.949 646.799C99.3977 645.327 95.2619 645.327 92.711 646.799ZM128.613 626.071C126.062 627.544 126.062 629.932 128.613 631.405C131.164 632.878 135.3 632.878 137.85 631.405C140.401 629.932 140.401 627.544 137.85 626.071C135.3 624.599 131.164 624.599 128.613 626.071ZM124.255 583.1L143.66 594.303L145.392 593.303L125.987 582.1L124.255 583.1ZM71.8563 635.759L96.4638 649.966L98.1959 648.966L73.5883 634.759L71.8563 635.759ZM143.66 593.303L107.758 614.031L109.49 615.031L145.392 594.303L143.66 593.303ZM107.758 614.031L71.8563 634.759L73.5883 635.759L109.49 615.031L107.758 614.031ZM107.758 615.031L132.366 629.238L134.098 628.238L109.49 614.031L107.758 615.031Z" fill="#5ED6A4"/>
<path fill-rule="evenodd" clip-rule="evenodd" d="M675.699 67.7266L675.699 226.739C675.699 227.382 676.008 227.986 676.53 228.362L773.088 297.911C773.785 298.413 774.726 298.414 775.424 297.912L872.172 228.362C872.695 227.986 873.005 227.382 873.005 226.738V68.1415C872.099 72.1754 868.962 76.0741 863.595 79.1728L797.777 117.173C784.863 124.629 763.926 124.629 751.012 117.173L685.194 79.1728C679.643 75.968 676.478 71.9073 675.699 67.7266Z" fill="url(#paint1_linear_665_171)"/>
<rect width="130" height="130" rx="27" transform="matrix(0.866025 0.5 -0.866025 0.5 774.254 27.5684)" fill="#5A79E3"/>
<rect x="-2.98023e-08" y="0.5" width="129" height="129" rx="26.5" transform="matrix(0.866025 0.5 -0.866025 0.5 774.691 1.08984)" fill="#6281EC" stroke="#718DEE"/>
<path d="M771.198 45.0698C768.647 46.5426 768.647 48.9304 771.198 50.4031C773.748 51.8759 777.884 51.8759 780.435 50.4031C782.986 48.9304 782.986 46.5426 780.435 45.0698C777.884 43.597 773.748 43.597 771.198 45.0698ZM752.564 89.902C750.013 91.3747 750.013 93.7625 752.564 95.2353C755.115 96.708 759.251 96.708 761.802 95.2353C764.353 93.7625 764.353 91.3747 761.802 89.902C759.251 88.4292 755.115 88.4292 752.564 89.902ZM723.055 72.8648C720.504 74.3376 720.504 76.7254 723.055 78.1982C725.606 79.6709 729.742 79.6709 732.293 78.1982C734.844 76.7254 734.844 74.3376 732.293 72.8648C729.742 71.3921 725.606 71.3921 723.055 72.8648ZM805.521 40.2766C802.97 41.7493 802.97 44.1371 805.521 45.6099C808.071 47.0827 812.207 47.0827 814.758 45.6099C817.309 44.1371 817.309 41.7493 814.758 40.2766C812.207 38.8038 808.071 38.8038 805.521 40.2766ZM776.635 76.0044C774.085 77.4772 774.085 79.865 776.635 81.3378C779.186 82.8105 783.322 82.8105 785.873 81.3378C788.424 79.865 788.424 77.4772 785.873 76.0044C783.322 74.5317 779.186 74.5317 776.635 76.0044ZM774.95 48.2365L787.961 55.748L789.693 54.748L776.682 47.2365L774.95 48.2365ZM739.818 83.5431L756.317 93.0686L758.049 92.0686L741.55 82.5431L739.818 83.5431ZM741.55 82.5431L728.54 75.0315L726.808 76.0315L739.818 83.5431L741.55 82.5431ZM789.693 55.748L811.005 43.4432L809.273 42.4432L787.961 54.748L789.693 55.748ZM787.961 54.748L763.89 68.6456L765.622 69.6456L789.693 55.748L787.961 54.748ZM763.89 68.6456L739.818 82.5431L741.55 83.5431L765.622 69.6456L763.89 68.6456ZM763.89 69.6456L780.388 79.1711L782.12 78.1711L765.622 68.6456L763.89 69.6456Z" fill="#5ED6A4"/>
<path fill-rule="evenodd" clip-rule="evenodd" d="M752.309 619.553L752.309 779.59L850.961 845.767L949.614 779.59V619.968C948.708 624.002 945.572 627.9 940.205 630.999L874.387 668.999C861.473 676.455 840.535 676.455 827.621 668.999L761.803 630.999C756.252 627.794 753.088 623.734 752.309 619.553Z" fill="url(#paint2_linear_665_171)"/>
<rect width="130" height="130" rx="27" transform="matrix(0.866025 0.5 -0.866025 0.5 850.863 579.395)" fill="#E58D5B"/>
<rect x="-2.98023e-08" y="0.5" width="129" height="129" rx="26.5" transform="matrix(0.866025 0.5 -0.866025 0.5 851.3 552.916)" fill="#E9915F" stroke="#EE9A6B"/>
<path d="M856.819 582.771C854.268 584.244 854.268 586.631 856.819 588.104C859.37 589.577 863.505 589.577 866.056 588.104C868.607 586.631 868.607 584.244 866.056 582.771C863.505 581.298 859.37 581.298 856.819 582.771ZM815.237 631.868L814.371 631.368L813.505 631.868L814.371 632.368L815.237 631.868ZM832.315 641.728C829.764 643.201 829.764 645.589 832.315 647.061C834.866 648.534 839.001 648.534 841.552 647.061C844.103 645.589 844.103 643.201 841.552 641.728C839.001 640.255 834.866 640.255 832.315 641.728ZM895.625 605.176C893.074 606.649 893.074 609.036 895.625 610.509C898.176 611.982 902.312 611.982 904.863 610.509C907.414 609.036 907.414 606.649 904.863 605.176C902.312 603.703 898.176 603.703 895.625 605.176ZM825.163 601.047C822.613 602.52 822.613 604.908 825.163 606.38C827.714 607.853 831.85 607.853 834.401 606.38C836.952 604.908 836.952 602.52 834.401 601.047C831.85 599.574 827.714 599.574 825.163 601.047ZM860.571 585.938L877.681 595.816L879.413 594.816L862.304 584.937L860.571 585.938ZM814.371 632.368L836.067 644.895L837.799 643.895L816.103 631.368L814.371 632.368ZM877.681 595.816L899.378 608.342L901.11 607.342L879.413 594.816L877.681 595.816ZM877.681 594.816L846.026 613.092L847.758 614.092L879.413 595.816L877.681 594.816ZM846.026 613.092L814.371 631.368L816.103 632.368L847.758 614.092L846.026 613.092ZM847.758 613.092L830.648 603.214L828.916 604.214L846.026 614.092L847.758 613.092Z" fill="white"/>
<g filter="url(#filter0_d_665_171)">
<path fill-rule="evenodd" clip-rule="evenodd" d="M494.06 210.271C510.329 200.878 536.706 200.878 552.975 210.271L916.131 419.939V414.252H940.632V444.019C940.632 444.038 940.632 444.058 940.632 444.077C940.632 444.092 940.632 444.106 940.632 444.12C940.601 450.252 936.533 456.377 928.431 461.056L552.975 677.825C536.706 687.218 510.329 687.218 494.06 677.825L118.604 461.056C110.332 456.28 106.266 449.995 106.406 443.736L106.406 414.447H130.885V419.95L494.06 210.271Z" fill="#B03A3A"/>
<rect width="501.569" height="501.569" rx="34.015" transform="matrix(0.866025 0.5 -0.866025 0.5 523.516 163.635)" fill="#D45656"/>
</g>
<circle cx="173.436" cy="173.436" r="173.436" transform="matrix(0.866025 0.5 -0.866025 0.5 523.516 239.398)" fill="#B03A3A"/>
<circle cx="19.4946" cy="19.4946" r="19.4946" transform="matrix(0.866025 0.5 0.866025 -0.5 422.66 451.562)" fill="white"/>
<path d="M481.39 418.495C473.344 423.723 473.749 431.667 482.316 436.613V436.613C490.882 441.558 504.64 441.793 513.697 437.147L606.169 389.712C619.156 383.05 619.749 371.45 607.465 364.358V364.358C595.18 357.266 575.089 357.608 563.55 365.106L481.39 418.495Z" fill="white"/>
<defs>
<filter id="filter0_d_665_171" x="82.3017" y="164.921" width="882.432" height="559.473" filterUnits="userSpaceOnUse" color-interpolation-filters="sRGB">
<feFlood flood-opacity="0" result="BackgroundImageFix"/>
<feColorMatrix in="SourceAlpha" type="matrix" values="0 0 0 0 0 0 0 0 0 0 0 0 0 0 0 0 0 0 127 0" result="hardAlpha"/>
<feOffset dy="15.4244"/>
<feGaussianBlur stdDeviation="12.0503"/>
<feColorMatrix type="matrix" values="0 0 0 0 0 0 0 0 0 0 0 0 0 0 0 0 0 0 0.35 0"/>
<feBlend mode="normal" in2="BackgroundImageFix" result="effect1_dropShadow_665_171"/>
<feBlend mode="normal" in="SourceGraphic" in2="effect1_dropShadow_665_171" result="shape"/>
</filter>
<linearGradient id="paint0_linear_665_171" x1="112.817" y1="229.062" x2="112.817" y2="837.392" gradientUnits="userSpaceOnUse">
<stop offset="0.595" stop-color="#0084CE"/>
<stop offset="0.899673" stop-color="#0084CE" stop-opacity="0"/>
</linearGradient>
<linearGradient id="paint1_linear_665_171" x1="774.352" y1="-330.269" x2="774.352" y2="255.801" gradientUnits="userSpaceOnUse">
<stop offset="0.582355" stop-color="#6281EC"/>
<stop offset="0.958855" stop-color="#6281EC" stop-opacity="0"/>
</linearGradient>
<linearGradient id="paint2_linear_665_171" x1="850.961" y1="229.062" x2="850.961" y2="837.392" gradientUnits="userSpaceOnUse">
<stop offset="0.595" stop-color="#E9915F"/>
<stop offset="0.899673" stop-color="#E9915F" stop-opacity="0"/>
</linearGradient>
</defs>
</svg>
