<svg width="1360" height="609" viewBox="0 0 1360 609" fill="none" xmlns="http://www.w3.org/2000/svg">
<mask id="mask0_202_278" style="mask-type:alpha" maskUnits="userSpaceOnUse" x="0" y="0" width="1360" height="609">
<path d="M0 29.8398C0 13.8236 12.9837 0.839844 29 0.839844H1331C1347.02 0.839844 1360 13.8236 1360 29.8398V609H0V29.8398Z" fill="url(#paint0_linear_202_278)"/>
</mask>
<g mask="url(#mask0_202_278)">
<rect width="188.26" height="246.571" rx="4" transform="matrix(0.927948 -0.372709 0.408478 0.912768 521.891 -14.1221)" fill="url(#paint1_linear_202_278)" fill-opacity="0.1"/>
<rect width="188.26" height="246.571" rx="4" transform="matrix(0.927948 -0.372709 0.408478 0.912768 443.562 -36.3369)" fill="url(#paint2_linear_202_278)" fill-opacity="0.1"/>
<rect width="188.26" height="246.571" rx="4" transform="matrix(0.927948 -0.372709 0.408478 0.912768 -70.7227 28.0039)" fill="url(#paint3_linear_202_278)" fill-opacity="0.1"/>
<rect width="188.26" height="246.571" rx="4" transform="matrix(0.927948 -0.372709 0.408478 0.912768 0 44.0049)" fill="url(#paint4_linear_202_278)" fill-opacity="0.1"/>
<rect width="301.552" height="293.779" rx="4" transform="matrix(0.872842 0.488003 -0.528743 0.848782 1098.11 -113.157)" fill="url(#paint5_linear_202_278)" fill-opacity="0.1"/>
<rect width="301.552" height="293.779" rx="4" transform="matrix(0.872842 0.488003 -0.528743 0.848782 1131.8 -15.6699)" fill="url(#paint6_linear_202_278)" fill-opacity="0.1"/>
<rect width="301.552" height="293.779" rx="4" transform="matrix(0.872842 0.488003 -0.528743 0.848782 1291.56 -94.4463)" fill="url(#paint7_linear_202_278)" fill-opacity="0.1"/>
<path fill-rule="evenodd" clip-rule="evenodd" d="M995.134 518.001C993.116 518.901 992.277 521.234 993.26 523.212L1146.56 831.789C1147.54 833.767 1149.97 834.642 1151.99 833.742L1303.86 766.026C1305.88 765.127 1306.72 762.794 1305.74 760.815L1225.61 599.523L1321.48 556.778C1323.49 555.879 1324.33 553.546 1323.35 551.567L1252.21 408.374C1251.23 406.396 1248.8 405.521 1246.78 406.421L1149.14 449.957C1148.43 449.878 1147.69 449.979 1147.01 450.285L995.134 518.001Z" fill="url(#paint8_linear_202_278)" fill-opacity="0.1"/>
<path fill-rule="evenodd" clip-rule="evenodd" d="M1088.33 528.254C1086.31 529.154 1085.47 531.487 1086.46 533.465L1239.75 842.042C1240.74 844.02 1243.17 844.895 1245.19 843.995L1397.06 776.279C1399.08 775.38 1399.91 773.046 1398.93 771.068L1318.8 609.776L1414.67 567.031C1416.69 566.132 1417.53 563.799 1416.55 561.82L1345.41 418.627C1344.43 416.649 1341.99 415.774 1339.98 416.674L1242.33 460.21C1241.62 460.131 1240.89 460.232 1240.2 460.538L1088.33 528.254Z" fill="url(#paint9_linear_202_278)" fill-opacity="0.1"/>
<rect width="199.325" height="311.071" rx="4" transform="matrix(0.950466 -0.310829 0.342355 0.939571 557.605 523.64)" fill="url(#paint10_linear_202_278)" fill-opacity="0.1"/>
<rect width="199.325" height="311.071" rx="4" transform="matrix(0.950466 -0.310829 0.342355 0.939571 620.434 551.928)" fill="url(#paint11_linear_202_278)" fill-opacity="0.1"/>
<rect width="284.727" height="277.388" rx="4" transform="matrix(0.872842 0.488003 -0.528743 0.848782 51.3281 407.607)" fill="url(#paint12_linear_202_278)" fill-opacity="0.1"/>
<rect width="284.727" height="277.388" rx="4" transform="matrix(0.872842 0.488003 -0.528743 0.848782 83.1328 499.653)" fill="url(#paint13_linear_202_278)" fill-opacity="0.1"/>
<rect width="284.727" height="277.388" rx="4" transform="matrix(0.872842 0.488003 -0.528743 0.848782 233.984 425.275)" fill="url(#paint14_linear_202_278)" fill-opacity="0.1"/>
</g>
<defs>
<linearGradient id="paint0_linear_202_278" x1="680" y1="0.839844" x2="680" y2="609" gradientUnits="userSpaceOnUse">
<stop stop-color="#57DEBE"/>
<stop offset="1" stop-color="#5ED6A4"/>
</linearGradient>
<linearGradient id="paint1_linear_202_278" x1="94.1302" y1="0" x2="94.1302" y2="246.571" gradientUnits="userSpaceOnUse">
<stop stop-color="white" stop-opacity="0"/>
<stop offset="1" stop-color="white"/>
</linearGradient>
<linearGradient id="paint2_linear_202_278" x1="94.1302" y1="0" x2="94.1302" y2="246.571" gradientUnits="userSpaceOnUse">
<stop stop-color="white" stop-opacity="0"/>
<stop offset="1" stop-color="white"/>
</linearGradient>
<linearGradient id="paint3_linear_202_278" x1="94.1302" y1="0" x2="94.1302" y2="246.571" gradientUnits="userSpaceOnUse">
<stop stop-color="white" stop-opacity="0"/>
<stop offset="1" stop-color="white"/>
</linearGradient>
<linearGradient id="paint4_linear_202_278" x1="94.1302" y1="0" x2="94.1302" y2="246.571" gradientUnits="userSpaceOnUse">
<stop stop-color="white" stop-opacity="0"/>
<stop offset="1" stop-color="white"/>
</linearGradient>
<linearGradient id="paint5_linear_202_278" x1="150.776" y1="0" x2="0.309248" y2="231.502" gradientUnits="userSpaceOnUse">
<stop stop-color="white" stop-opacity="0.17"/>
<stop offset="1" stop-color="white"/>
</linearGradient>
<linearGradient id="paint6_linear_202_278" x1="150.776" y1="0" x2="0.309248" y2="231.502" gradientUnits="userSpaceOnUse">
<stop stop-color="white" stop-opacity="0.17"/>
<stop offset="1" stop-color="white"/>
</linearGradient>
<linearGradient id="paint7_linear_202_278" x1="150.776" y1="0" x2="0.309248" y2="231.502" gradientUnits="userSpaceOnUse">
<stop stop-color="white" stop-opacity="0.17"/>
<stop offset="1" stop-color="white"/>
</linearGradient>
<linearGradient id="paint8_linear_202_278" x1="1094.85" y1="534.199" x2="1406.71" y2="688.79" gradientUnits="userSpaceOnUse">
<stop stop-color="white"/>
<stop offset="1" stop-color="white" stop-opacity="0.1"/>
</linearGradient>
<linearGradient id="paint9_linear_202_278" x1="1188.05" y1="544.452" x2="1499.9" y2="699.043" gradientUnits="userSpaceOnUse">
<stop stop-color="white"/>
<stop offset="1" stop-color="white" stop-opacity="0.1"/>
</linearGradient>
<linearGradient id="paint10_linear_202_278" x1="99.6626" y1="0" x2="99.6626" y2="311.071" gradientUnits="userSpaceOnUse">
<stop stop-color="white"/>
<stop offset="1" stop-color="white" stop-opacity="0.17"/>
</linearGradient>
<linearGradient id="paint11_linear_202_278" x1="99.6626" y1="0" x2="99.6626" y2="311.071" gradientUnits="userSpaceOnUse">
<stop stop-color="white"/>
<stop offset="1" stop-color="white" stop-opacity="0.17"/>
</linearGradient>
<linearGradient id="paint12_linear_202_278" x1="179.334" y1="27.4453" x2="6.04292" y2="296.489" gradientUnits="userSpaceOnUse">
<stop stop-color="white"/>
<stop offset="1" stop-color="white" stop-opacity="0"/>
</linearGradient>
<linearGradient id="paint13_linear_202_278" x1="179.334" y1="27.4453" x2="6.04292" y2="296.489" gradientUnits="userSpaceOnUse">
<stop stop-color="white"/>
<stop offset="1" stop-color="white" stop-opacity="0"/>
</linearGradient>
<linearGradient id="paint14_linear_202_278" x1="179.334" y1="27.4453" x2="6.04292" y2="296.489" gradientUnits="userSpaceOnUse">
<stop stop-color="white"/>
<stop offset="1" stop-color="white" stop-opacity="0"/>
</linearGradient>
</defs>
</svg>
