<svg width="37" height="37" viewBox="0 0 37 37" fill="none" xmlns="http://www.w3.org/2000/svg">
<g clip-path="url(#clip0_442_160)">
<path d="M18.7137 11.25C17.7545 11.25 16.8048 11.4389 15.9187 11.8059C15.0326 12.173 14.2275 12.711 13.5493 13.3891C12.8711 14.0673 12.3331 14.8725 11.9661 15.7586C11.5991 16.6447 11.4102 17.5944 11.4102 18.5535C11.4102 19.5126 11.5991 20.4623 11.9661 21.3484C12.3331 22.2345 12.8711 23.0397 13.5493 23.7179C14.2275 24.396 15.0326 24.934 15.9187 25.3011C16.8048 25.6681 17.7545 25.857 18.7137 25.857C20.6507 25.857 22.5083 25.0875 23.878 23.7179C25.2477 22.3482 26.0172 20.4905 26.0172 18.5535C26.0172 16.6165 25.2477 14.7588 23.878 13.3891C22.5083 12.0195 20.6507 11.25 18.7137 11.25ZM13.6602 18.5535C13.6602 17.2132 14.1926 15.9279 15.1403 14.9801C16.088 14.0324 17.3734 13.5 18.7137 13.5C20.0539 13.5 21.3393 14.0324 22.287 14.9801C23.2347 15.9279 23.7672 17.2132 23.7672 18.5535C23.7672 19.8938 23.2347 21.1791 22.287 22.1269C21.3393 23.0746 20.0539 23.607 18.7137 23.607C17.3734 23.607 16.088 23.0746 15.1403 22.1269C14.1926 21.1791 13.6602 19.8938 13.6602 18.5535Z" fill="#0C223D" fill-opacity="0.5"/>
<path d="M22.7547 3.57531C21.569 -0.452188 15.8585 -0.452188 14.6727 3.57531L14.4612 4.29306C14.3784 4.5742 14.2337 4.83325 14.0378 5.05122C13.8419 5.26918 13.5996 5.44054 13.3289 5.55273C13.0581 5.66492 12.7657 5.71509 12.473 5.69958C12.1803 5.68406 11.8949 5.60325 11.6375 5.46306L10.9805 5.10306C7.29047 3.09606 3.25622 7.13256 5.26547 10.8203L5.62322 11.4773C5.76341 11.7347 5.84422 12.0202 5.85973 12.3129C5.87525 12.6055 5.82507 12.898 5.71289 13.1687C5.6007 13.4395 5.42934 13.6817 5.21137 13.8777C4.99341 14.0736 4.73436 14.2183 4.45322 14.3011L3.73547 14.5126C-0.292031 15.6983 -0.292031 21.4088 3.73547 22.5946L4.45322 22.8061C4.73436 22.8889 4.99341 23.0335 5.21137 23.2295C5.42934 23.4254 5.6007 23.6676 5.71289 23.9384C5.82507 24.2092 5.87525 24.5016 5.85973 24.7943C5.84422 25.0869 5.76341 25.3724 5.62322 25.6298L5.26322 26.2868C3.25622 29.9768 7.29047 34.0133 10.9805 32.0018L11.6375 31.6441C11.8949 31.5039 12.1803 31.4231 12.473 31.4075C12.7657 31.392 13.0581 31.4422 13.3289 31.5544C13.5996 31.6666 13.8419 31.8379 14.0378 32.0559C14.2337 32.2739 14.3784 32.5329 14.4612 32.8141L14.6727 33.5318C15.8585 37.5593 21.569 37.5593 22.7547 33.5318L22.9662 32.8141C23.049 32.5329 23.1937 32.2739 23.3896 32.0559C23.5856 31.8379 23.8278 31.6666 24.0986 31.5544C24.3693 31.4422 24.6617 31.392 24.9544 31.4075C25.2471 31.4231 25.5326 31.5039 25.79 31.6441L26.447 32.0041C30.137 34.0133 34.1735 29.9746 32.162 26.2868L31.8042 25.6298C31.664 25.3724 31.5832 25.0869 31.5677 24.7943C31.5522 24.5016 31.6024 24.2092 31.7146 23.9384C31.8267 23.6676 31.9981 23.4254 32.2161 23.2295C32.434 23.0335 32.6931 22.8889 32.9742 22.8061L33.692 22.5946C37.7195 21.4088 37.7195 15.6983 33.692 14.5126L32.9742 14.3011C32.6931 14.2183 32.434 14.0736 32.2161 13.8777C31.9981 13.6817 31.8267 13.4395 31.7146 13.1687C31.6024 12.898 31.5522 12.6055 31.5677 12.3129C31.5832 12.0202 31.664 11.7347 31.8042 11.4773L32.1642 10.8203C34.1735 7.13031 30.1347 3.09606 26.447 5.10531L25.79 5.46306C25.5326 5.60325 25.2471 5.68406 24.9544 5.69958C24.6617 5.71509 24.3693 5.66492 24.0986 5.55273C23.8278 5.44054 23.5856 5.26918 23.3896 5.05122C23.1937 4.83325 23.049 4.5742 22.9662 4.29306L22.7547 3.57531ZM16.8305 4.21206C17.384 2.33331 20.0435 2.33331 20.597 4.21206L20.8085 4.92981C20.9863 5.533 21.2968 6.08876 21.7173 6.55634C22.1378 7.02391 22.6576 7.39145 23.2386 7.63202C23.8197 7.87258 24.4471 7.98006 25.0751 7.94659C25.7031 7.91312 26.3156 7.73953 26.8677 7.43856L27.5225 7.07856C29.2415 6.14481 31.1225 8.02356 30.1865 9.74481L29.8287 10.4018C29.5282 10.954 29.355 11.5665 29.3219 12.1943C29.2888 12.8221 29.3966 13.4494 29.6374 14.0301C29.8781 14.6109 30.2458 15.1304 30.7134 15.5507C31.181 15.9709 31.7366 16.2812 32.3397 16.4588L33.0552 16.6703C34.934 17.2238 34.934 19.8833 33.0552 20.4368L32.3375 20.6483C31.7343 20.8261 31.1785 21.1366 30.7109 21.5571C30.2434 21.9776 29.8758 22.4975 29.6353 23.0785C29.3947 23.6595 29.2872 24.287 29.3207 24.9149C29.3542 25.5429 29.5278 26.1554 29.8287 26.7076L30.1887 27.3623C31.1225 29.0813 29.2437 30.9623 27.5225 30.0263L26.8677 29.6686C26.3154 29.3676 25.7028 29.1941 25.0747 29.1608C24.4466 29.1275 23.819 29.2351 23.238 29.4759C22.6569 29.7167 22.1371 30.0845 21.7168 30.5523C21.2964 31.0202 20.986 31.5762 20.8085 32.1796L20.597 32.8951C20.0435 34.7738 17.384 34.7738 16.8305 32.8951L16.619 32.1773C16.4411 31.5744 16.1306 31.019 15.7103 30.5516C15.2899 30.0843 14.7703 29.7169 14.1896 29.4764C13.6089 29.2358 12.9817 29.1283 12.354 29.1615C11.7263 29.1948 11.114 29.368 10.562 29.6686L9.90497 30.0286C8.18597 30.9623 6.30497 29.0836 7.24097 27.3623L7.59872 26.7076C7.90011 26.1553 8.07403 25.5426 8.10773 24.9144C8.14142 24.2862 8.03404 23.6584 7.79344 23.0771C7.55285 22.4958 7.18516 21.9757 6.71735 21.555C6.24953 21.1344 5.69348 20.8238 5.08997 20.6461L4.37222 20.4346C2.49347 19.8811 2.49347 17.2216 4.37222 16.6681L5.08997 16.4566C5.69253 16.2786 6.24768 15.9682 6.71479 15.548C7.1819 15.1278 7.54914 14.6085 7.78964 14.028C8.03014 13.4476 8.13781 12.8207 8.10478 12.1933C8.07175 11.5659 7.89884 10.9538 7.59872 10.4018L7.23872 9.74481C6.30497 8.02581 8.18372 6.14481 9.90497 7.08081L10.562 7.43856C11.114 7.73911 11.7263 7.91235 12.354 7.94561C12.9817 7.97886 13.6089 7.87128 14.1896 7.63075C14.7703 7.39022 15.2899 7.02283 15.7103 6.55548C16.1306 6.08814 16.4411 5.53269 16.619 4.92981L16.8305 4.21206Z" fill="#0C223D" fill-opacity="0.5"/>
</g>
<defs>
<clipPath id="clip0_442_160">
<rect width="36" height="36" fill="white" transform="translate(0.714844 0.553711)"/>
</clipPath>
</defs>
</svg>
