<svg width="870" height="755" viewBox="0 0 870 755" fill="none" xmlns="http://www.w3.org/2000/svg">
<path d="M1.18359 204.775L868.849 297.958L868.158 754.947H1.18359V204.775Z" fill="url(#paint0_diamond_219_17)" fill-opacity="0.69"/>
<path d="M0.501064 231.808C0.292538 235.51 2.63533 239.251 7.52944 242.077L492.996 522.361C502.384 527.781 517.605 527.781 526.994 522.361L862.15 328.858C866.974 326.073 869.319 322.399 869.186 318.75V294.574H837.957V295.262L376.684 28.9454C367.295 23.5251 352.074 23.5251 342.686 28.9454L31.6564 208.518V207.338H0.501064L0.501064 231.808Z" fill="#325388"/>
<path d="M7.52944 217.366C-1.85877 211.946 -1.85877 203.158 7.52944 197.738L342.686 4.23513C352.074 -1.18516 367.295 -1.18514 376.684 4.23515L862.15 284.519C871.538 289.94 871.538 298.728 862.15 304.148L526.994 497.651C517.605 503.071 502.384 503.071 492.996 497.651L7.52944 217.366Z" fill="url(#paint1_linear_219_17)"/>
<path d="M175.149 174.832C184.537 169.412 199.759 169.412 209.147 174.832L256.996 202.458C266.384 207.878 266.384 216.666 256.996 222.086L209.147 249.712C199.759 255.132 184.537 255.132 175.149 249.712L127.301 222.086C117.912 216.666 117.912 207.878 127.301 202.458L175.149 174.832Z" fill="white" fill-opacity="0.42"/>
<path d="M277.167 119.693C286.555 114.273 301.777 114.273 311.165 119.693L359.014 147.318C368.402 152.739 368.402 161.527 359.014 166.947L311.165 194.572C301.777 199.993 286.555 199.993 277.167 194.572L229.318 166.947C219.93 161.527 219.93 152.739 229.318 147.318L277.167 119.693Z" fill="white" fill-opacity="0.42"/>
<path d="M463.714 238.853C473.102 233.433 488.324 233.433 497.712 238.853L545.561 266.479C554.949 271.899 554.949 280.687 545.561 286.107L472.824 328.101C463.436 333.522 448.215 333.522 438.827 328.101L390.978 300.476C381.59 295.056 381.59 286.268 390.978 280.847L463.714 238.853Z" fill="white" fill-opacity="0.42"/>
<path d="M563.301 300.476C572.689 295.055 587.911 295.055 597.299 300.476L645.148 328.101C654.536 333.521 654.536 342.31 645.148 347.73L597.299 375.355C587.911 380.776 572.689 380.776 563.301 375.355L515.453 347.73C506.064 342.31 506.064 333.521 515.453 328.101L563.301 300.476Z" fill="white" fill-opacity="0.42"/>
<path d="M369.423 178.227C378.812 172.807 394.033 172.807 403.421 178.227L451.27 205.853C460.658 211.273 460.658 220.061 451.27 225.481L306.211 309.231C296.823 314.651 281.601 314.651 272.213 309.231L224.364 281.606C214.976 276.185 214.976 267.397 224.364 261.977L369.423 178.227Z" fill="white" fill-opacity="0.42"/>
<path d="M370.989 62.3838C380.378 56.9635 395.599 56.9635 404.987 62.3838L764.405 269.894C773.793 275.314 773.793 284.102 764.405 289.522L716.556 317.148C707.168 322.568 691.946 322.568 682.558 317.148L323.141 109.638C313.753 104.218 313.753 95.4296 323.141 90.0093L370.989 62.3838Z" fill="white" fill-opacity="0.42"/>
<defs>
<radialGradient id="paint0_diamond_219_17" cx="0" cy="0" r="1" gradientUnits="userSpaceOnUse" gradientTransform="translate(504.635 35.8954) rotate(89.8527) scale(958.181 1102.05)">
<stop offset="0.374839" stop-color="#3D58B2"/>
<stop offset="1" stop-color="#3D58B2" stop-opacity="0"/>
</radialGradient>
<linearGradient id="paint1_linear_219_17" x1="175.109" y1="151.889" x2="622.025" y2="666.263" gradientUnits="userSpaceOnUse">
<stop stop-color="#25466F"/>
<stop offset="1" stop-color="#3E58B5"/>
</linearGradient>
</defs>
</svg>
