<svg width="940" height="547" viewBox="0 0 940 547" fill="none" xmlns="http://www.w3.org/2000/svg">
<g filter="url(#filter0_d_625_1138)">
<path d="M208.621 295.855C210.775 294.612 210.775 292.595 208.621 291.352L131.719 246.952C129.565 245.709 126.072 245.709 123.918 246.952L12.5277 311.264C10.3736 312.507 10.3736 314.524 12.5277 315.767L89.4295 360.167C91.5836 361.41 95.0761 361.41 97.2303 360.167L208.621 295.855Z" fill="black" fill-opacity="0.25"/>
</g>
<path d="M210.233 293.499C210.281 294.349 209.744 295.207 208.621 295.855L97.2303 360.167C95.0762 361.41 91.5836 361.41 89.4295 360.167L12.5277 315.767C11.4209 315.128 10.8828 314.285 10.9134 313.448V307.901H18.0789V308.059L123.918 246.952C126.072 245.709 129.565 245.709 131.719 246.952L203.085 288.155V287.884H210.233L210.233 293.499Z" fill="#A85353"/>
<path d="M208.496 285.898L131.594 241.499C130.564 240.904 129.198 240.6 127.819 240.6C126.439 240.6 125.073 240.904 124.043 241.499L12.6527 305.81C11.6212 306.406 11.1621 307.151 11.1621 307.846C11.1621 308.54 11.6212 309.285 12.6527 309.881L89.5545 354.28C90.5846 354.875 91.9505 355.179 93.3299 355.179C94.7093 355.179 96.0752 354.875 97.1053 354.28L208.496 289.969C209.527 289.373 209.986 288.628 209.986 287.934C209.986 287.239 209.527 286.494 208.496 285.898Z" fill="#CA6A6A" stroke="#C77F7F" stroke-width="0.5"/>
<path d="M194.443 289.147C196.201 288.162 196.201 286.565 194.443 285.58L131.68 250.415C129.922 249.43 127.071 249.43 125.313 250.415L34.4025 301.35C32.6445 302.335 32.6445 303.932 34.4025 304.917L97.1655 340.082C98.9235 341.067 101.774 341.067 103.532 340.082L194.443 289.147Z" fill="#25272B" fill-opacity="0.87"/>
<g filter="url(#filter1_d_625_1138)">
<path d="M146.312 196.191C138.698 191.795 138.698 184.668 146.312 180.272L418.13 23.338C425.744 18.942 438.089 18.942 445.703 23.338L839.424 250.653C847.038 255.049 847.038 262.177 839.424 266.572L567.607 423.507C559.993 427.902 547.648 427.902 540.034 423.507L146.312 196.191Z" fill="black" fill-opacity="0.25"/>
<path d="M146.562 180.705L418.38 23.771C422.093 21.6272 426.991 20.541 431.916 20.541C436.841 20.541 441.739 21.6272 445.453 23.771L839.174 251.086C842.89 253.232 844.635 255.974 844.635 258.613C844.635 261.252 842.89 263.994 839.174 266.139L567.357 423.073C563.643 425.217 558.745 426.303 553.82 426.303C548.895 426.303 543.997 425.217 540.284 423.073L146.562 195.758C142.846 193.613 141.102 190.871 141.102 188.232C141.102 185.592 142.846 182.85 146.562 180.705Z" stroke="white" stroke-opacity="0.42"/>
</g>
<path d="M140.612 187.863C140.443 190.866 142.343 193.9 146.312 196.191L540.034 423.507C547.648 427.902 559.992 427.902 567.606 423.507L839.424 266.572C843.336 264.314 845.238 261.334 845.13 258.374V238.768H819.803V239.325L445.702 23.338C438.088 18.942 425.744 18.942 418.13 23.338L165.879 168.975V168.017H140.612L140.612 187.863Z" fill="#0E75AF"/>
<path d="M146.312 176.15C138.698 171.754 138.698 164.627 146.312 160.231L418.13 3.29695C425.744 -1.099 438.089 -1.09898 445.703 3.29697L839.424 230.612C847.038 235.008 847.038 242.136 839.424 246.531L567.607 403.465C559.993 407.861 547.648 407.861 540.034 403.465L146.312 176.15Z" fill="url(#paint0_linear_625_1138)"/>
<path d="M146.437 160.447L418.255 3.51346C422.015 1.34259 426.959 0.249996 431.916 0.25C436.874 0.250004 441.817 1.34261 445.578 3.51348L839.299 230.829C843.061 233.001 844.885 235.812 844.885 238.572C844.885 241.332 843.061 244.143 839.299 246.315L567.482 403.249C563.721 405.42 558.778 406.512 553.82 406.512C548.863 406.512 543.919 405.42 540.159 403.249L146.437 175.934C142.676 173.762 140.852 170.951 140.852 168.191C140.852 165.431 142.676 162.619 146.437 160.447Z" stroke="white" stroke-opacity="0.42" stroke-width="0.5"/>
<path d="M282.255 141.655C289.869 137.259 302.214 137.259 309.828 141.655L348.634 164.059C356.248 168.455 356.248 175.583 348.634 179.979L309.828 202.383C302.214 206.779 289.869 206.779 282.255 202.383L243.449 179.979C235.835 175.583 235.835 168.455 243.449 164.059L282.255 141.655Z" fill="white" fill-opacity="0.42"/>
<path d="M364.993 96.9357C372.607 92.5398 384.952 92.5398 392.566 96.9357L431.372 119.34C438.986 123.736 438.986 130.864 431.372 135.26L392.566 157.664C384.952 162.06 372.607 162.06 364.993 157.664L326.187 135.26C318.573 130.864 318.573 123.736 326.187 119.34L364.993 96.9357Z" fill="white" fill-opacity="0.42"/>
<path d="M516.286 193.577C523.9 189.181 536.245 189.181 543.859 193.577L582.665 215.981C590.279 220.377 590.279 227.505 582.665 231.901L523.675 265.959C516.061 270.355 503.716 270.355 496.102 265.959L457.296 243.554C449.682 239.158 449.682 232.031 457.296 227.635L516.286 193.577Z" fill="white" fill-opacity="0.42"/>
<path d="M597.053 243.554C604.667 239.158 617.012 239.158 624.626 243.554L663.432 265.958C671.046 270.354 671.046 277.482 663.432 281.878L624.626 304.282C617.012 308.678 604.667 308.678 597.053 304.282L558.247 281.878C550.633 277.482 550.633 270.354 558.247 265.958L597.053 243.554Z" fill="white" fill-opacity="0.42"/>
<path d="M439.814 144.408C447.428 140.012 459.773 140.012 467.387 144.408L506.193 166.813C513.807 171.209 513.807 178.336 506.193 182.732L388.548 250.655C380.934 255.05 368.589 255.05 360.975 250.654L322.169 228.25C314.555 223.854 314.555 216.727 322.169 212.331L439.814 144.408Z" fill="white" fill-opacity="0.42"/>
<path d="M441.085 50.4571C448.699 46.0612 461.043 46.0612 468.657 50.4571L760.151 218.751C767.765 223.147 767.765 230.274 760.151 234.67L721.345 257.075C713.731 261.471 701.386 261.471 693.772 257.075L402.279 88.781C394.665 84.385 394.665 77.2578 402.279 72.8618L441.085 50.4571Z" fill="white" fill-opacity="0.42"/>
<g filter="url(#filter2_d_625_1138)">
<ellipse cx="650.202" cy="499.519" rx="56.1475" ry="31.2811" fill="black" fill-opacity="0.25"/>
</g>
<path d="M712.968 413.04H587.436L594.065 500.133C594.653 517.125 619.561 530.8 650.202 530.8C680.795 530.8 705.673 517.168 706.336 500.213L712.968 413.04Z" fill="url(#paint1_linear_625_1138)"/>
<path d="M650.202 446.786C684.865 446.786 712.966 431.514 712.966 412.675C712.966 412.378 712.959 412.082 712.945 411.786L712.967 402.645L710.211 402.65C702.332 388.704 678.446 378.564 650.202 378.564C621.822 378.564 597.841 388.802 590.08 402.852L587.449 402.857L587.461 411.757C587.446 412.062 587.438 412.368 587.438 412.675C587.438 431.514 615.538 446.786 650.202 446.786Z" fill="#D3AF51"/>
<path d="M712.968 402.687C712.968 421.526 684.868 436.798 650.204 436.798C615.541 436.798 587.441 421.526 587.441 402.687C587.441 383.848 615.541 368.576 650.204 368.576C684.868 368.576 712.968 383.848 712.968 402.687Z" fill="#EFC760"/>
<path d="M704.636 402.687C704.636 417.449 680.266 429.416 650.204 429.416C620.142 429.416 595.772 417.449 595.772 402.687C595.772 387.925 620.142 375.958 650.204 375.958C680.266 375.958 704.636 387.925 704.636 402.687Z" fill="#0C223D" fill-opacity="0.32"/>
<path d="M660.045 369.096C666.198 398.604 654.86 415.947 651.342 420.462C650.828 421.122 649.558 420.68 648.667 419.529C642.567 411.66 621.652 383.072 615.5 353.563C609.372 324.17 620.227 305.073 623.679 299.934C624.18 299.189 625.553 299.668 626.468 300.907C632.772 309.447 653.917 339.702 660.045 369.096Z" fill="url(#paint2_linear_625_1138)" fill-opacity="0.88"/>
<path d="M640.652 369.096C634.5 398.604 645.838 415.947 649.355 420.462C649.869 421.122 651.139 420.68 652.031 419.529C658.13 411.66 679.045 383.072 685.197 353.563C691.326 324.17 680.47 305.073 677.018 299.934C676.518 299.189 675.144 299.668 674.229 300.907C667.926 309.447 646.78 339.702 640.652 369.096Z" fill="url(#paint3_linear_625_1138)" fill-opacity="0.88"/>
<path d="M658.351 368.871C642.827 394.709 647.822 414.817 649.657 420.239C649.926 421.032 651.27 421.032 652.491 420.239C660.841 414.817 690.002 394.709 705.527 368.871C720.991 343.135 717.028 321.528 715.461 315.539C715.234 314.671 713.779 314.671 712.507 315.539C703.743 321.528 673.816 343.135 658.351 368.871Z" fill="url(#paint4_linear_625_1138)" fill-opacity="0.88"/>
<path d="M642.055 368.871C657.58 394.709 652.584 414.817 650.749 420.239C650.481 421.032 649.136 421.032 647.916 420.239C639.565 414.817 610.404 394.709 594.879 368.871C579.415 343.135 583.378 321.528 584.945 315.539C585.173 314.671 586.628 314.671 587.899 315.539C596.663 321.528 626.591 343.135 642.055 368.871Z" fill="url(#paint5_linear_625_1138)" fill-opacity="0.84"/>
<g filter="url(#filter3_d_625_1138)">
<ellipse cx="866.9" cy="346.941" rx="62.6245" ry="34.0351" fill="black" fill-opacity="0.25" shape-rendering="crispEdges"/>
</g>
<path d="M929.526 346.941C929.526 365.738 901.488 380.977 866.902 380.977C832.315 380.977 804.277 365.738 804.277 346.941C804.277 328.144 832.315 312.906 866.902 312.906C901.488 312.906 929.526 328.144 929.526 346.941Z" fill="url(#paint6_linear_625_1138)"/>
<path d="M804.288 337.145L929.528 336.934L929.5 347.885H804.301L804.288 337.145Z" fill="url(#paint7_linear_625_1138)"/>
<ellipse cx="866.902" cy="336.975" rx="62.6245" ry="34.0351" fill="#0084CE"/>
<mask id="path-20-inside-1_625_1138" fill="white">
<path fill-rule="evenodd" clip-rule="evenodd" d="M825.461 192.484C826.044 191.026 827.482 190.111 829.053 190.111H904.757C906.328 190.111 907.765 191.026 908.349 192.484C910.493 197.849 911.784 203.506 911.784 209.351C911.784 234.869 887.168 256.81 874.397 266.475C885.518 274.891 905.622 292.616 910.631 313.907C919.2 319.362 924.374 326.441 924.374 334.176C924.374 351.426 898.643 365.41 866.904 365.41C835.164 365.41 809.434 351.426 809.434 334.176C809.434 326.44 814.608 319.361 823.18 313.905C828.189 292.615 848.292 274.891 859.413 266.475C846.642 256.81 822.025 234.869 822.025 209.351C822.025 203.506 823.317 197.849 825.461 192.484Z"/>
</mask>
<path fill-rule="evenodd" clip-rule="evenodd" d="M825.461 192.484C826.044 191.026 827.482 190.111 829.053 190.111H904.757C906.328 190.111 907.765 191.026 908.349 192.484C910.493 197.849 911.784 203.506 911.784 209.351C911.784 234.869 887.168 256.81 874.397 266.475C885.518 274.891 905.622 292.616 910.631 313.907C919.2 319.362 924.374 326.441 924.374 334.176C924.374 351.426 898.643 365.41 866.904 365.41C835.164 365.41 809.434 351.426 809.434 334.176C809.434 326.44 814.608 319.361 823.18 313.905C828.189 292.615 848.292 274.891 859.413 266.475C846.642 256.81 822.025 234.869 822.025 209.351C822.025 203.506 823.317 197.849 825.461 192.484Z" fill="#E0F5EC"/>
<path d="M825.461 192.484L824.997 192.299L824.997 192.299L825.461 192.484ZM908.349 192.484L908.813 192.299L908.349 192.484ZM874.397 266.475L874.096 266.076L873.569 266.475L874.096 266.873L874.397 266.475ZM910.631 313.907L910.144 314.022L910.191 314.22L910.362 314.329L910.631 313.907ZM823.18 313.905L823.448 314.327L823.62 314.218L823.666 314.02L823.18 313.905ZM859.413 266.475L859.714 266.873L860.241 266.475L859.714 266.076L859.413 266.475ZM829.053 189.611C827.291 189.611 825.661 190.638 824.997 192.299L825.926 192.67C826.428 191.413 827.673 190.611 829.053 190.611V189.611ZM904.757 189.611H829.053V190.611H904.757V189.611ZM908.813 192.299C908.149 190.638 906.519 189.611 904.757 189.611V190.611C906.137 190.611 907.382 191.413 907.884 192.67L908.813 192.299ZM912.284 209.351C912.284 203.432 910.977 197.712 908.813 192.299L907.884 192.67C910.01 197.987 911.284 203.581 911.284 209.351H912.284ZM874.699 266.873C881.102 262.027 890.486 254.096 898.273 244.166C906.056 234.242 912.284 222.27 912.284 209.351H911.284C911.284 221.951 905.204 233.708 897.486 243.549C889.773 253.385 880.463 261.257 874.096 266.076L874.699 266.873ZM911.117 313.793C908.587 303.038 902.254 293.212 895.184 285.036C888.112 276.856 880.276 270.297 874.699 266.076L874.096 266.873C879.639 271.069 887.416 277.581 894.428 285.69C901.443 293.803 907.665 303.486 910.144 314.022L911.117 313.793ZM910.362 314.329C918.86 319.738 923.874 326.683 923.874 334.176H924.874C924.874 326.199 919.54 318.986 910.899 313.485L910.362 314.329ZM923.874 334.176C923.874 342.531 917.635 350.206 907.302 355.822C896.989 361.427 882.707 364.91 866.904 364.91V365.91C882.84 365.91 897.293 362.4 907.78 356.701C918.247 351.012 924.874 343.07 924.874 334.176H923.874ZM866.904 364.91C851.101 364.91 836.818 361.427 826.505 355.822C816.172 350.206 809.934 342.531 809.934 334.176H808.934C808.934 343.07 815.56 351.012 826.027 356.701C836.514 362.4 850.967 365.91 866.904 365.91V364.91ZM809.934 334.176C809.934 326.682 814.949 319.737 823.448 314.327L822.911 313.483C814.268 318.985 808.934 326.198 808.934 334.176H809.934ZM859.111 266.076C853.534 270.297 845.699 276.856 838.626 285.035C831.557 293.211 825.223 303.036 822.693 313.791L823.666 314.02C826.145 303.484 832.368 293.802 839.383 285.689C846.394 277.581 854.171 271.069 859.714 266.873L859.111 266.076ZM821.525 209.351C821.525 222.27 827.754 234.242 835.537 244.166C843.324 254.096 852.708 262.027 859.111 266.873L859.714 266.076C853.347 261.257 844.037 253.385 836.323 243.549C828.605 233.708 822.525 221.951 822.525 209.351H821.525ZM824.997 192.299C822.833 197.712 821.525 203.432 821.525 209.351H822.525C822.525 203.581 823.8 197.987 825.926 192.67L824.997 192.299Z" fill="#0084CE" mask="url(#path-20-inside-1_625_1138)"/>
<path d="M912.383 332.231C912.383 345.883 892.02 356.95 866.9 356.95C841.781 356.95 821.418 345.883 821.418 332.231C821.418 318.58 841.781 307.513 866.9 307.513C892.02 307.513 912.383 318.58 912.383 332.231Z" fill="url(#paint8_linear_625_1138)"/>
<path d="M840.06 339.086C836.918 339.086 833.995 337.269 833.049 334.273C831.99 330.916 831.381 327.432 831.381 323.86C831.381 302.359 853.463 284.067 862.804 277.292C865.272 275.502 868.526 275.502 870.993 277.292C880.334 284.067 902.417 302.359 902.417 323.86C902.417 327.432 901.808 330.916 900.748 334.273C899.803 337.269 896.879 339.086 893.738 339.086H840.06Z" fill="url(#paint9_linear_625_1138)"/>
<path fill-rule="evenodd" clip-rule="evenodd" d="M866.9 229.129C901.486 229.129 929.524 213.891 929.524 195.094C929.524 194.793 929.517 194.494 929.503 194.196L929.526 185.086L926.776 185.09C918.914 171.175 895.081 161.059 866.9 161.059C838.583 161.059 814.655 171.273 806.911 185.292L804.286 185.297L804.297 194.188C804.283 194.489 804.275 194.791 804.275 195.094C804.275 213.891 832.313 229.129 866.9 229.129Z" fill="url(#paint10_linear_625_1138)"/>
<ellipse cx="866.906" cy="185.127" rx="62.6245" ry="34.0351" fill="#0084CE"/>
<path d="M862.907 261.154C865.249 263.105 868.553 263.105 870.896 261.154C875.006 257.731 880.813 251.675 880.813 244.775C880.813 243.81 873.346 245.619 869.353 246.655C867.752 247.071 866.072 247.006 864.5 246.491C860.52 245.186 852.99 242.958 852.99 244.775C852.99 251.675 858.797 257.731 862.907 261.154Z" fill="#53C8E1"/>
<path d="M880.817 244.737C880.817 249.019 874.587 252.49 866.902 252.49C859.217 252.49 852.986 249.019 852.986 244.737C852.986 240.455 859.217 236.984 866.902 236.984C874.587 236.984 880.817 240.455 880.817 244.737Z" fill="#92ECF5"/>
<g filter="url(#filter4_d_625_1138)">
<path d="M356.042 376.484C358.185 375.247 358.185 373.24 356.042 372.003L279.513 327.819C277.37 326.581 273.894 326.581 271.75 327.819L160.901 391.818C158.757 393.056 158.757 395.062 160.901 396.3L237.429 440.484C239.573 441.721 243.048 441.721 245.192 440.484L356.042 376.484Z" fill="black" fill-opacity="0.25"/>
</g>
<path d="M357.646 374.14C357.694 374.985 357.159 375.839 356.042 376.484L245.192 440.484C243.048 441.721 239.573 441.721 237.429 440.484L160.901 396.3C159.799 395.664 159.264 394.825 159.294 393.992V388.472H166.425V388.629L271.75 327.819C273.894 326.581 277.37 326.581 279.513 327.819L350.533 368.822V368.552H357.646V374.14Z" fill="#0E75AF"/>
<path d="M279.263 322.609L355.792 366.793C356.772 367.359 357.149 368.031 357.149 368.601C357.149 369.17 356.772 369.843 355.792 370.409L244.942 434.408C243.964 434.973 242.651 435.269 241.311 435.269C239.97 435.269 238.657 434.973 237.679 434.408L161.151 390.224C160.17 389.658 159.793 388.986 159.793 388.416C159.793 387.847 160.17 387.175 161.151 386.608L272 322.609C272.978 322.045 274.291 321.748 275.632 321.748C276.972 321.748 278.285 322.045 279.263 322.609Z" fill="#D7F1E6" stroke="#0E75AF"/>
<path d="M279.127 334.746C276.137 333.02 271.289 333.02 268.298 334.746C265.308 336.472 265.308 339.271 268.298 340.998L321.314 371.606C324.305 373.333 329.152 373.333 332.143 371.606C335.133 369.88 335.133 367.081 332.143 365.355L279.127 334.746Z" fill="#5ED6A4"/>
<path d="M257.047 347.086C254.057 345.36 249.209 345.36 246.219 347.086C243.229 348.812 243.229 351.611 246.219 353.338L299.235 383.947C302.225 385.673 307.073 385.673 310.063 383.947C313.053 382.22 313.053 379.421 310.063 377.695L257.047 347.086Z" fill="#5ED6A4"/>
<path d="M225.519 359.047C228.509 357.321 233.357 357.321 236.347 359.047L289.363 389.656C292.353 391.382 292.353 394.181 289.363 395.908C286.373 397.634 281.525 397.634 278.535 395.908L225.519 365.299C222.529 363.573 222.529 360.774 225.519 359.047Z" fill="#5ED6A4"/>
<path d="M212.518 373.154C209.528 371.428 204.68 371.428 201.69 373.154C198.7 374.881 198.7 377.68 201.69 379.406L254.706 410.015C257.696 411.741 262.544 411.741 265.534 410.015C268.524 408.288 268.524 405.489 265.534 403.763L212.518 373.154Z" fill="#5ED6A4"/>
<g filter="url(#filter5_d_625_1138)">
<path d="M281.017 438.08C281.039 438.065 281.063 438.05 281.088 438.036L350.34 398.053C350.591 397.908 350.938 397.833 351.292 397.847L361.147 398.245C361.756 398.27 362.24 398.55 362.283 398.901L362.973 404.591C362.997 404.796 362.868 404.996 362.617 405.141L293.364 445.124C293.339 445.138 293.314 445.152 293.288 445.164C292.41 445.784 290.819 446.014 288.782 445.699C284.997 445.113 281.106 442.867 280.091 440.681C279.546 439.505 279.944 438.587 281.017 438.08Z" fill="black" fill-opacity="0.25"/>
</g>
<path d="M281.198 436.006L280.031 438.945C279.776 439.42 279.779 440.009 280.091 440.681C281.106 442.867 284.997 445.114 288.782 445.699C290.817 446.014 292.408 445.785 293.286 445.166C293.313 445.153 293.339 445.139 293.364 445.124L362.617 405.141C362.694 405.097 362.76 405.047 362.813 404.993C362.855 404.955 362.891 404.908 362.919 404.854C362.935 404.825 362.948 404.795 362.957 404.765L364.099 401.905C364.2 401.651 364.079 401.363 363.826 401.258L362.502 400.709L362.283 398.902C362.241 398.55 361.756 398.271 361.147 398.246L351.292 397.848C350.938 397.834 350.591 397.909 350.341 398.053L283.126 436.859L281.198 436.006Z" fill="#0E75AF"/>
<path d="M282.199 435.105C282.221 435.09 282.244 435.076 282.269 435.061L351.522 395.078C351.772 394.933 352.12 394.859 352.473 394.873L362.328 395.271C362.937 395.295 363.422 395.575 363.464 395.927L364.154 401.617C364.179 401.821 364.049 402.021 363.798 402.166L294.546 442.149C294.521 442.163 294.495 442.177 294.469 442.19C293.592 442.81 292.001 443.039 289.964 442.724C286.178 442.139 282.287 439.892 281.273 437.707C280.727 436.531 281.125 435.612 282.199 435.105Z" fill="#0084CE"/>
<defs>
<filter id="filter0_d_625_1138" x="0.912109" y="242.02" width="219.324" height="135.08" filterUnits="userSpaceOnUse" color-interpolation-filters="sRGB">
<feFlood flood-opacity="0" result="BackgroundImageFix"/>
<feColorMatrix in="SourceAlpha" type="matrix" values="0 0 0 0 0 0 0 0 0 0 0 0 0 0 0 0 0 0 127 0" result="hardAlpha"/>
<feOffset dy="6"/>
<feGaussianBlur stdDeviation="5"/>
<feColorMatrix type="matrix" values="0 0 0 0 0 0 0 0 0 0 0 0 0 0 0 0 0 0 0.25 0"/>
<feBlend mode="normal" in2="BackgroundImageFix" result="effect1_dropShadow_625_1138"/>
<feBlend mode="normal" in="SourceGraphic" in2="effect1_dropShadow_625_1138" result="shape"/>
</filter>
<filter id="filter1_d_625_1138" x="130.602" y="16.041" width="724.533" height="426.762" filterUnits="userSpaceOnUse" color-interpolation-filters="sRGB">
<feFlood flood-opacity="0" result="BackgroundImageFix"/>
<feColorMatrix in="SourceAlpha" type="matrix" values="0 0 0 0 0 0 0 0 0 0 0 0 0 0 0 0 0 0 127 0" result="hardAlpha"/>
<feOffset dy="6"/>
<feGaussianBlur stdDeviation="5"/>
<feColorMatrix type="matrix" values="0 0 0 0 0 0 0 0 0 0 0 0 0 0 0 0 0 0 0.25 0"/>
<feBlend mode="normal" in2="BackgroundImageFix" result="effect1_dropShadow_625_1138"/>
<feBlend mode="normal" in="SourceGraphic" in2="effect1_dropShadow_625_1138" result="shape"/>
</filter>
<filter id="filter2_d_625_1138" x="584.055" y="464.238" width="132.295" height="82.5625" filterUnits="userSpaceOnUse" color-interpolation-filters="sRGB">
<feFlood flood-opacity="0" result="BackgroundImageFix"/>
<feColorMatrix in="SourceAlpha" type="matrix" values="0 0 0 0 0 0 0 0 0 0 0 0 0 0 0 0 0 0 127 0" result="hardAlpha"/>
<feOffset dy="6"/>
<feGaussianBlur stdDeviation="5"/>
<feColorMatrix type="matrix" values="0 0 0 0 0 0 0 0 0 0 0 0 0 0 0 0 0 0 0.25 0"/>
<feBlend mode="normal" in2="BackgroundImageFix" result="effect1_dropShadow_625_1138"/>
<feBlend mode="normal" in="SourceGraphic" in2="effect1_dropShadow_625_1138" result="shape"/>
</filter>
<filter id="filter3_d_625_1138" x="794.275" y="308.906" width="145.25" height="88.0703" filterUnits="userSpaceOnUse" color-interpolation-filters="sRGB">
<feFlood flood-opacity="0" result="BackgroundImageFix"/>
<feColorMatrix in="SourceAlpha" type="matrix" values="0 0 0 0 0 0 0 0 0 0 0 0 0 0 0 0 0 0 127 0" result="hardAlpha"/>
<feOffset dy="6"/>
<feGaussianBlur stdDeviation="5"/>
<feComposite in2="hardAlpha" operator="out"/>
<feColorMatrix type="matrix" values="0 0 0 0 0 0 0 0 0 0 0 0 0 0 0 0 0 0 0.25 0"/>
<feBlend mode="normal" in2="BackgroundImageFix" result="effect1_dropShadow_625_1138"/>
<feBlend mode="normal" in="SourceGraphic" in2="effect1_dropShadow_625_1138" result="shape"/>
</filter>
<filter id="filter4_d_625_1138" x="149.293" y="322.891" width="218.355" height="134.521" filterUnits="userSpaceOnUse" color-interpolation-filters="sRGB">
<feFlood flood-opacity="0" result="BackgroundImageFix"/>
<feColorMatrix in="SourceAlpha" type="matrix" values="0 0 0 0 0 0 0 0 0 0 0 0 0 0 0 0 0 0 127 0" result="hardAlpha"/>
<feOffset dy="6"/>
<feGaussianBlur stdDeviation="5"/>
<feColorMatrix type="matrix" values="0 0 0 0 0 0 0 0 0 0 0 0 0 0 0 0 0 0 0.25 0"/>
<feBlend mode="normal" in2="BackgroundImageFix" result="effect1_dropShadow_625_1138"/>
<feBlend mode="normal" in="SourceGraphic" in2="effect1_dropShadow_625_1138" result="shape"/>
</filter>
<filter id="filter5_d_625_1138" x="275.848" y="395.846" width="91.127" height="55.9941" filterUnits="userSpaceOnUse" color-interpolation-filters="sRGB">
<feFlood flood-opacity="0" result="BackgroundImageFix"/>
<feColorMatrix in="SourceAlpha" type="matrix" values="0 0 0 0 0 0 0 0 0 0 0 0 0 0 0 0 0 0 127 0" result="hardAlpha"/>
<feOffset dy="2"/>
<feGaussianBlur stdDeviation="2"/>
<feColorMatrix type="matrix" values="0 0 0 0 0 0 0 0 0 0 0 0 0 0 0 0 0 0 0.25 0"/>
<feBlend mode="normal" in2="BackgroundImageFix" result="effect1_dropShadow_625_1138"/>
<feBlend mode="normal" in="SourceGraphic" in2="effect1_dropShadow_625_1138" result="shape"/>
</filter>
<linearGradient id="paint0_linear_625_1138" x1="282.222" y1="81.7642" x2="492.869" y2="446.616" gradientUnits="userSpaceOnUse">
<stop stop-color="#137AB4"/>
<stop offset="1" stop-color="#0084CE"/>
</linearGradient>
<linearGradient id="paint1_linear_625_1138" x1="650.202" y1="368.576" x2="650.202" y2="531.756" gradientUnits="userSpaceOnUse">
<stop stop-color="#EFC760"/>
<stop offset="1" stop-color="#D1AD50"/>
</linearGradient>
<linearGradient id="paint2_linear_625_1138" x1="624.681" y1="298.538" x2="589.189" y2="400.325" gradientUnits="userSpaceOnUse">
<stop stop-color="#5ED6A4"/>
<stop offset="1" stop-color="#5ECFD6"/>
</linearGradient>
<linearGradient id="paint3_linear_625_1138" x1="676.016" y1="298.538" x2="711.508" y2="400.325" gradientUnits="userSpaceOnUse">
<stop stop-color="#5ED6A4"/>
<stop offset="1" stop-color="#5ECFD6"/>
</linearGradient>
<linearGradient id="paint4_linear_625_1138" x1="714.975" y1="313.891" x2="714.975" y2="421.688" gradientUnits="userSpaceOnUse">
<stop stop-color="#5ED6A4"/>
<stop offset="1" stop-color="#5ECFD6"/>
</linearGradient>
<linearGradient id="paint5_linear_625_1138" x1="585.431" y1="313.891" x2="585.431" y2="421.688" gradientUnits="userSpaceOnUse">
<stop stop-color="#5ED6A4"/>
<stop offset="1" stop-color="#5ECFD6"/>
</linearGradient>
<linearGradient id="paint6_linear_625_1138" x1="804.277" y1="349.337" x2="922.118" y2="364.229" gradientUnits="userSpaceOnUse">
<stop stop-color="#036AA4"/>
<stop offset="1" stop-color="#147BB5"/>
</linearGradient>
<linearGradient id="paint7_linear_625_1138" x1="804.277" y1="349.337" x2="922.118" y2="364.229" gradientUnits="userSpaceOnUse">
<stop stop-color="#036AA4"/>
<stop offset="1" stop-color="#147BB5"/>
</linearGradient>
<linearGradient id="paint8_linear_625_1138" x1="866.9" y1="275.949" x2="866.9" y2="356.95" gradientUnits="userSpaceOnUse">
<stop stop-color="#92ECF5"/>
<stop offset="1" stop-color="#53C8E1"/>
</linearGradient>
<linearGradient id="paint9_linear_625_1138" x1="866.9" y1="275.949" x2="866.9" y2="356.95" gradientUnits="userSpaceOnUse">
<stop stop-color="#92ECF5"/>
<stop offset="1" stop-color="#53C8E1"/>
</linearGradient>
<linearGradient id="paint10_linear_625_1138" x1="818.873" y1="185.777" x2="922.121" y2="209.935" gradientUnits="userSpaceOnUse">
<stop stop-color="#036AA4"/>
<stop offset="1" stop-color="#147BB5"/>
</linearGradient>
</defs>
</svg>
