<svg width="1520" height="1080" viewBox="0 0 1520 1080" fill="none" xmlns="http://www.w3.org/2000/svg">
<mask id="mask0_181_819" style="mask-type:alpha" maskUnits="userSpaceOnUse" x="0" y="0" width="1520" height="1080">
<rect width="1520" height="1080" fill="url(#paint0_linear_181_819)"/>
</mask>
<g mask="url(#mask0_181_819)">
<rect width="188.26" height="246.571" rx="4" transform="matrix(0.927948 -0.372709 0.408478 0.912768 657.609 -24.834)" fill="url(#paint1_linear_181_819)" fill-opacity="0.1"/>
<rect width="188.26" height="246.571" rx="4" transform="matrix(0.927948 -0.372709 0.408478 0.912768 -70.7227 27.1641)" fill="url(#paint2_linear_181_819)" fill-opacity="0.1"/>
<rect width="188.26" height="246.571" rx="4" transform="matrix(0.927948 -0.372709 0.408478 0.912768 0 43.166)" fill="url(#paint3_linear_181_819)" fill-opacity="0.1"/>
<rect width="301.552" height="293.779" rx="4" transform="matrix(0.872842 0.488003 -0.528743 0.848782 1191.88 -90)" fill="url(#paint4_linear_181_819)" fill-opacity="0.1"/>
<rect width="301.552" height="293.779" rx="4" transform="matrix(0.872842 0.488003 -0.528743 0.848782 1225.57 7.48828)" fill="url(#paint5_linear_181_819)" fill-opacity="0.1"/>
<rect width="301.552" height="293.779" rx="4" transform="matrix(0.872842 0.488003 -0.528743 0.848782 1385.34 -71.2891)" fill="url(#paint6_linear_181_819)" fill-opacity="0.1"/>
<path fill-rule="evenodd" clip-rule="evenodd" d="M1073.99 812.297C1071.97 813.196 1071.13 815.53 1072.12 817.508L1249.25 1174.07C1250.24 1176.05 1252.67 1176.93 1254.69 1176.03L1430.75 1097.52C1432.77 1096.62 1433.61 1094.29 1432.63 1092.31L1340.05 905.962L1451.04 856.473C1453.06 855.573 1453.9 853.24 1452.92 851.261L1370.43 685.216C1369.45 683.238 1367.01 682.363 1365 683.263L1252.35 733.487C1251.59 733.373 1250.8 733.464 1250.06 733.794L1073.99 812.297Z" fill="url(#paint7_linear_181_819)" fill-opacity="0.1"/>
<path fill-rule="evenodd" clip-rule="evenodd" d="M1181.35 824.107C1179.33 825.007 1178.49 827.34 1179.47 829.319L1356.61 1185.88C1357.6 1187.86 1360.03 1188.74 1362.05 1187.84L1538.11 1109.33C1540.13 1108.43 1540.97 1106.1 1539.99 1104.12L1447.41 917.773L1558.4 868.283C1560.42 867.384 1561.26 865.05 1560.28 863.072L1477.79 697.027C1476.8 695.048 1474.37 694.174 1472.35 695.073L1359.71 745.298C1358.95 745.183 1358.15 745.275 1357.41 745.605L1181.35 824.107Z" fill="url(#paint8_linear_181_819)" fill-opacity="0.1"/>
<rect width="228.852" height="357.152" rx="4" transform="matrix(0.950466 -0.310829 0.342355 0.939571 653.387 874.754)" fill="url(#paint9_linear_181_819)" fill-opacity="0.1"/>
<rect width="228.852" height="357.152" rx="4" transform="matrix(0.950466 -0.310829 0.342355 0.939571 725.523 907.232)" fill="url(#paint10_linear_181_819)" fill-opacity="0.1"/>
<rect width="316.813" height="308.646" rx="4" transform="matrix(0.872842 0.488003 -0.528743 0.848782 79.8086 640)" fill="url(#paint11_linear_181_819)" fill-opacity="0.1"/>
<rect width="316.813" height="308.646" rx="4" transform="matrix(0.872842 0.488003 -0.528743 0.848782 115.199 742.418)" fill="url(#paint12_linear_181_819)" fill-opacity="0.1"/>
<rect width="316.813" height="308.646" rx="4" transform="matrix(0.872842 0.488003 -0.528743 0.848782 283.051 659.658)" fill="url(#paint13_linear_181_819)" fill-opacity="0.1"/>
</g>
<defs>
<linearGradient id="paint0_linear_181_819" x1="760" y1="0" x2="760" y2="1080" gradientUnits="userSpaceOnUse">
<stop stop-color="#57DEBE"/>
<stop offset="1" stop-color="#5ED6A4"/>
</linearGradient>
<linearGradient id="paint1_linear_181_819" x1="94.1302" y1="0" x2="94.1302" y2="246.571" gradientUnits="userSpaceOnUse">
<stop stop-color="white" stop-opacity="0"/>
<stop offset="1" stop-color="white"/>
</linearGradient>
<linearGradient id="paint2_linear_181_819" x1="94.1302" y1="0" x2="94.1302" y2="246.571" gradientUnits="userSpaceOnUse">
<stop stop-color="white" stop-opacity="0"/>
<stop offset="1" stop-color="white"/>
</linearGradient>
<linearGradient id="paint3_linear_181_819" x1="94.1302" y1="0" x2="94.1302" y2="246.571" gradientUnits="userSpaceOnUse">
<stop stop-color="white" stop-opacity="0"/>
<stop offset="1" stop-color="white"/>
</linearGradient>
<linearGradient id="paint4_linear_181_819" x1="150.776" y1="0" x2="0.309248" y2="231.502" gradientUnits="userSpaceOnUse">
<stop stop-color="white" stop-opacity="0.17"/>
<stop offset="1" stop-color="white"/>
</linearGradient>
<linearGradient id="paint5_linear_181_819" x1="150.776" y1="0" x2="0.309248" y2="231.502" gradientUnits="userSpaceOnUse">
<stop stop-color="white" stop-opacity="0.17"/>
<stop offset="1" stop-color="white"/>
</linearGradient>
<linearGradient id="paint6_linear_181_819" x1="150.776" y1="0" x2="0.309248" y2="231.502" gradientUnits="userSpaceOnUse">
<stop stop-color="white" stop-opacity="0.17"/>
<stop offset="1" stop-color="white"/>
</linearGradient>
<linearGradient id="paint7_linear_181_819" x1="1189.42" y1="830.709" x2="1548.67" y2="1008.8" gradientUnits="userSpaceOnUse">
<stop stop-color="white"/>
<stop offset="1" stop-color="white" stop-opacity="0.1"/>
</linearGradient>
<linearGradient id="paint8_linear_181_819" x1="1296.78" y1="842.519" x2="1656.03" y2="1020.61" gradientUnits="userSpaceOnUse">
<stop stop-color="white"/>
<stop offset="1" stop-color="white" stop-opacity="0.1"/>
</linearGradient>
<linearGradient id="paint9_linear_181_819" x1="114.426" y1="0" x2="114.426" y2="357.152" gradientUnits="userSpaceOnUse">
<stop stop-color="white"/>
<stop offset="1" stop-color="white" stop-opacity="0.17"/>
</linearGradient>
<linearGradient id="paint10_linear_181_819" x1="114.426" y1="0" x2="114.426" y2="357.152" gradientUnits="userSpaceOnUse">
<stop stop-color="white"/>
<stop offset="1" stop-color="white" stop-opacity="0.17"/>
</linearGradient>
<linearGradient id="paint11_linear_181_819" x1="199.543" y1="30.538" x2="6.72389" y2="329.9" gradientUnits="userSpaceOnUse">
<stop stop-color="white"/>
<stop offset="1" stop-color="white" stop-opacity="0"/>
</linearGradient>
<linearGradient id="paint12_linear_181_819" x1="199.543" y1="30.538" x2="6.72389" y2="329.9" gradientUnits="userSpaceOnUse">
<stop stop-color="white"/>
<stop offset="1" stop-color="white" stop-opacity="0"/>
</linearGradient>
<linearGradient id="paint13_linear_181_819" x1="199.543" y1="30.538" x2="6.72389" y2="329.9" gradientUnits="userSpaceOnUse">
<stop stop-color="white"/>
<stop offset="1" stop-color="white" stop-opacity="0"/>
</linearGradient>
</defs>
</svg>
