<svg width="870" height="634" viewBox="0 0 870 634" fill="none" xmlns="http://www.w3.org/2000/svg">
<path d="M1.28516 204.764L868.951 297.947V633.6H1.28516V204.764Z" fill="url(#paint0_diamond_267_45)" fill-opacity="0.69"/>
<path d="M0.602626 231.797C0.3941 235.499 2.73689 239.24 7.631 242.066L493.098 522.35C502.486 527.77 517.707 527.77 527.095 522.35L862.252 328.847C867.076 326.062 869.421 322.388 869.288 318.739V294.563H838.058V295.251L376.785 28.9344C367.397 23.5141 352.176 23.5141 342.788 28.9343L31.7579 208.507V207.327H0.602626L0.602626 231.797Z" fill="#325388"/>
<path d="M7.88101 198.159L343.038 4.65642C347.638 2.00049 353.699 0.658197 359.786 0.658203C365.874 0.658208 371.935 2.00051 376.535 4.65644L862.002 284.941C866.605 287.598 868.793 291.012 868.793 294.322C868.793 297.632 866.605 301.046 862.002 303.703L526.845 497.206C522.245 499.862 516.184 501.204 510.096 501.204C504.009 501.204 497.948 499.862 493.348 497.206L7.881 216.922C3.27799 214.264 1.08984 210.851 1.08984 207.54C1.08984 204.23 3.27799 200.817 7.88101 198.159Z" fill="url(#paint1_linear_267_45)" stroke="#486A8E"/>
<path d="M175.249 174.82C184.637 169.4 199.859 169.4 209.247 174.82L257.096 202.446C266.484 207.866 266.484 216.654 257.096 222.074L209.247 249.7C199.859 255.12 184.637 255.12 175.249 249.7L127.401 222.074C118.012 216.654 118.012 207.866 127.401 202.446L175.249 174.82Z" fill="white" fill-opacity="0.42"/>
<path d="M277.267 119.681C286.655 114.261 301.877 114.261 311.265 119.681L359.113 147.306C368.502 152.727 368.502 161.515 359.113 166.935L311.265 194.56C301.877 199.981 286.655 199.981 277.267 194.56L229.418 166.935C220.03 161.515 220.03 152.727 229.418 147.306L277.267 119.681Z" fill="white" fill-opacity="0.42"/>
<path d="M463.814 238.841C473.202 233.421 488.424 233.421 497.812 238.841L545.66 266.467C555.049 271.887 555.049 280.675 545.66 286.095L472.924 328.089C463.536 333.51 448.315 333.51 438.927 328.089L391.078 300.464C381.69 295.044 381.69 286.256 391.078 280.835L463.814 238.841Z" fill="white" fill-opacity="0.42"/>
<path d="M563.401 300.464C572.789 295.043 588.011 295.043 597.399 300.464L645.247 328.089C654.636 333.51 654.636 342.298 645.247 347.718L597.399 375.343C588.011 380.764 572.789 380.764 563.401 375.343L515.552 347.718C506.164 342.298 506.164 333.51 515.552 328.089L563.401 300.464Z" fill="white" fill-opacity="0.42"/>
<path d="M369.523 178.215C378.911 172.795 394.133 172.795 403.521 178.215L451.37 205.841C460.758 211.261 460.758 220.049 451.37 225.469L306.311 309.219C296.922 314.639 281.701 314.639 272.313 309.219L224.464 281.594C215.076 276.173 215.076 267.385 224.464 261.965L369.523 178.215Z" fill="white" fill-opacity="0.42"/>
<path d="M371.089 62.3719C380.478 56.9516 395.699 56.9516 405.087 62.3719L764.505 269.882C773.893 275.302 773.893 284.09 764.505 289.51L716.656 317.136C707.268 322.556 692.046 322.556 682.658 317.136L323.241 109.626C313.852 104.206 313.852 95.4176 323.241 89.9973L371.089 62.3719Z" fill="white" fill-opacity="0.42"/>
<defs>
<radialGradient id="paint0_diamond_267_45" cx="0" cy="0" r="1" gradientUnits="userSpaceOnUse" gradientTransform="translate(505.71 230.542) rotate(89.9699) scale(425.667 670.848)">
<stop offset="0.374839" stop-color="#3D58B2"/>
<stop offset="1" stop-color="#3D58B2" stop-opacity="0"/>
</radialGradient>
<linearGradient id="paint1_linear_267_45" x1="175.211" y1="100.975" x2="434.943" y2="550.844" gradientUnits="userSpaceOnUse">
<stop stop-color="#25466F"/>
<stop offset="1" stop-color="#3E58B5"/>
</linearGradient>
</defs>
</svg>
