<svg width="41" height="41" viewBox="0 0 41 41" fill="none" xmlns="http://www.w3.org/2000/svg">
<g clip-path="url(#clip0_202_267)">
<path fill-rule="evenodd" clip-rule="evenodd" d="M20.4284 3.58397C23.097 3.48386 25.7694 3.55819 28.4284 3.80647C29.7182 3.79064 30.9996 4.01706 32.2059 4.47397C33.8702 5.24959 35.2078 6.58716 35.9834 8.25147C36.4403 9.45777 36.6667 10.7391 36.6509 12.029C36.6509 14.029 36.8734 14.6965 36.8734 20.029C36.9735 22.6976 36.8992 25.37 36.6509 28.029C36.6667 29.3188 36.4403 30.6002 35.9834 31.8065C35.2078 33.4708 33.8702 34.8083 32.2059 35.584C30.9996 36.0409 29.7182 36.2673 28.4284 36.2515C26.4284 36.2515 25.7609 36.474 20.4284 36.474C17.7597 36.5741 15.0874 36.4997 12.4284 36.2515C11.1385 36.2673 9.85719 36.0409 8.65088 35.584C6.98658 34.8083 5.64901 33.4708 4.87338 31.8065C4.41647 30.6002 4.19005 29.3188 4.20588 28.029C4.20588 26.029 3.98338 25.3615 3.98338 20.029C3.88328 17.3603 3.9576 14.6879 4.20588 12.029C4.19005 10.7391 4.41647 9.45777 4.87338 8.25147C5.26108 7.42732 5.78701 6.67563 6.42838 6.02897C6.94923 5.25147 7.74197 4.69682 8.65088 4.47397C9.85719 4.01706 11.1385 3.79064 12.4284 3.80647C15.0874 3.55819 17.7597 3.48386 20.4284 3.58397ZM20.4284 0.0289659C17.6856 -0.068787 14.9394 0.00552542 12.2059 0.251466C10.5363 0.247452 8.87998 0.548214 7.31838 1.13897C5.96992 1.57893 4.74949 2.34191 3.76338 3.36147C2.74258 4.34801 1.97869 5.56936 1.53838 6.91897C0.841294 8.44916 0.536281 10.1289 0.65088 11.8065C0.404939 14.54 0.330627 17.2862 0.42838 20.029C0.330627 22.7718 0.404939 25.518 0.65088 28.2515C0.647361 29.9221 0.948976 31.5792 1.54088 33.1415C1.98084 34.4899 2.74383 35.7104 3.76338 36.6965C4.74949 37.716 5.96992 38.479 7.31838 38.919C8.8806 39.5109 10.5378 39.8125 12.2084 39.809C14.9411 40.054 17.6865 40.1274 20.4284 40.029C23.1712 40.1267 25.9174 40.0524 28.6509 39.8065C30.3215 39.81 31.9787 39.5084 33.5409 38.9165C34.8794 38.4553 36.0952 37.6954 37.0963 36.6944C38.0973 35.6933 38.8573 34.4775 39.3184 33.139C39.9103 31.5767 40.2119 29.9196 40.2084 28.249C40.2059 26.029 40.4284 25.3615 40.4284 20.029C40.5261 17.2862 40.4518 14.54 40.2059 11.8065C40.2094 10.1359 39.9078 8.47869 39.3159 6.91647C38.8759 5.56801 38.1129 4.34757 37.0934 3.36147C36.1073 2.34191 34.8868 1.57893 33.5384 1.13897C31.9768 0.548214 30.3205 0.247452 28.6509 0.251466C25.9174 0.00552542 23.1712 -0.068787 20.4284 0.0289659ZM20.4284 9.80647C19.0798 9.78415 17.7405 10.0333 16.4902 10.5392C15.2398 11.045 14.104 11.7971 13.1503 12.7509C12.1965 13.7046 11.4444 14.8404 10.9386 16.0907C10.4327 17.3411 10.1836 18.6804 10.2059 20.029C10.2059 22.0508 10.8054 24.0272 11.9287 25.7083C13.0519 27.3894 14.6485 28.6996 16.5164 29.4733C18.3843 30.247 20.4397 30.4495 22.4227 30.055C24.4057 29.6606 26.2271 28.687 27.6568 27.2574C29.0864 25.8277 30.06 24.0062 30.4545 22.0233C30.8489 20.0403 30.6465 17.9849 29.8727 16.117C29.099 14.2491 27.7888 12.6525 26.1077 11.5293C24.4266 10.406 22.4502 9.80647 20.4284 9.80647ZM20.4284 26.6965C19.5483 26.7127 18.674 26.5514 17.8577 26.2221C17.0414 25.8928 16.2999 25.4023 15.6775 24.7799C15.0551 24.1575 14.5645 23.4159 14.2352 22.5996C13.9059 21.7833 13.7446 20.909 13.7609 20.029C13.7446 19.1489 13.9059 18.2746 14.2352 17.4583C14.5645 16.642 15.0551 15.9005 15.6775 15.2781C16.2999 14.6557 17.0414 14.1651 17.8577 13.8358C18.674 13.5065 19.5483 13.3452 20.4284 13.3615C21.3084 13.3452 22.1828 13.5065 22.9991 13.8358C23.8154 14.1651 24.5569 14.6557 25.1793 15.2781C25.8017 15.9005 26.2922 16.642 26.6215 17.4583C26.9508 18.2746 27.1122 19.1489 27.0959 20.029C27.1122 20.909 26.9508 21.7833 26.6215 22.5996C26.2922 23.4159 25.8017 24.1575 25.1793 24.7799C24.5569 25.4023 23.8154 25.8928 22.9991 26.2221C22.1828 26.5514 21.3084 26.7127 20.4284 26.6965ZM31.0959 6.91897C30.6123 6.91897 30.1396 7.06236 29.7375 7.33102C29.3354 7.59968 29.0221 7.98154 28.837 8.4283C28.6519 8.87507 28.6035 9.36668 28.6979 9.84096C28.7922 10.3152 29.0251 10.7509 29.367 11.0928C29.7089 11.4348 30.1446 11.6676 30.6189 11.762C31.0932 11.8563 31.5848 11.8079 32.0315 11.6229C32.4783 11.4378 32.8602 11.1244 33.1288 10.7223C33.3975 10.3203 33.5409 9.84754 33.5409 9.36397C33.5357 8.71713 33.2764 8.09827 32.819 7.64087C32.3616 7.18347 31.7427 6.92419 31.0959 6.91897Z" fill="#0C223D"/>
</g>
<defs>
<clipPath id="clip0_202_267">
<rect width="40" height="40" fill="white" transform="translate(0.429688 0.0292969)"/>
</clipPath>
</defs>
</svg>
