<svg width="645" height="773" viewBox="0 0 645 773" fill="none" xmlns="http://www.w3.org/2000/svg">
<mask id="mask0_181_798" style="mask-type:alpha" maskUnits="userSpaceOnUse" x="0" y="0" width="645" height="773">
<rect x="0.5625" y="0.925781" width="644.438" height="771.873" fill="#D7F1E6"/>
</mask>
<g mask="url(#mask0_181_798)">
<path d="M579.426 614.329L553.566 627.079L548.68 268.013H576.33L579.426 614.329Z" fill="#5568A8"/>
<path d="M233.513 72.2348L259.372 59.4839L264.258 418.55H236.608L233.513 72.2348Z" fill="#5568A8"/>
<path d="M253.876 72.2836C253.876 59.4304 262.9 54.2206 274.031 60.6472L565.85 229.129C576.981 235.556 586.005 251.185 586.005 264.038V601.002C586.005 613.855 576.981 619.065 565.85 612.638L274.031 444.156C262.9 437.73 253.876 422.1 253.876 409.247L253.876 72.2836Z" fill="#3C57AF" fill-opacity="0.7"/>
<path d="M226.664 85.7617C226.664 72.9085 235.688 67.6988 246.819 74.1254L538.638 242.607C549.769 249.034 558.793 264.663 558.793 277.516V614.48C558.793 627.333 549.769 632.543 538.638 626.116L246.819 457.635C235.688 451.208 226.664 435.579 226.664 422.725L226.664 85.7617Z" fill="#3C57AF"/>
<path d="M264.26 150.955C264.26 146.67 267.268 144.934 270.978 147.076L367.798 202.975C371.508 205.117 374.516 210.327 374.516 214.611V246.445C374.516 250.729 371.508 252.466 367.798 250.324L270.978 194.425C267.268 192.283 264.26 187.073 264.26 182.789V150.955Z" fill="#5ED6A4" fill-opacity="0.42"/>
<path d="M392.728 227.87C392.728 223.585 395.736 221.849 399.447 223.991L496.266 279.89C499.977 282.032 502.985 287.242 502.985 291.526V323.36C502.985 327.644 499.977 329.381 496.266 327.239L399.447 271.34C395.736 269.198 392.728 263.988 392.728 259.704V227.87Z" fill="#5ED6A4" fill-opacity="0.42"/>
<path d="M264.26 219.717C264.26 215.432 267.268 213.696 270.978 215.838L492.081 343.491C495.791 345.634 498.799 350.843 498.799 355.128V386.962C498.799 391.246 495.791 392.983 492.081 390.841L270.978 263.187C267.268 261.045 264.26 255.835 264.26 251.55V219.717Z" fill="#5ED6A4" fill-opacity="0.42"/>
<path d="M264.26 283.372C264.26 279.088 267.268 277.351 270.978 279.494L492.081 407.147C495.791 409.29 498.799 414.499 498.799 418.784V450.618C498.799 454.902 495.791 456.639 492.081 454.496L270.978 326.843C267.268 324.701 264.26 319.491 264.26 315.206V283.372Z" fill="#5ED6A4" fill-opacity="0.42"/>
<path d="M264.26 355.128C264.26 350.843 267.268 349.107 270.978 351.249L492.081 478.903C495.791 481.045 498.799 486.255 498.799 490.539V522.373C498.799 526.657 495.791 528.394 492.081 526.252L270.978 398.598C267.268 396.456 264.26 391.246 264.26 386.962V355.128Z" fill="#5ED6A4" fill-opacity="0.42"/>
<path d="M274.031 60.6472C262.9 54.2206 253.876 59.4304 253.876 72.2836L253.876 78.2194L538.628 242.621C549.759 249.047 558.783 264.677 558.783 277.53V608.558L565.85 612.638C576.981 619.065 586.005 613.855 586.005 601.002V264.038C586.005 251.185 576.981 235.556 565.85 229.129L274.031 60.6472Z" fill="#5568A8"/>
<path fill-rule="evenodd" clip-rule="evenodd" d="M49.7812 490.09L49.7813 650.127H247.087V490.505C246.181 494.539 243.044 498.437 237.677 501.536L171.859 539.536C158.945 546.992 138.008 546.992 125.094 539.536L59.2759 501.536C53.7251 498.331 50.5602 494.271 49.7812 490.09Z" fill="url(#paint0_linear_181_798)"/>
<rect width="130" height="130" rx="27" transform="matrix(0.866025 0.5 -0.866025 0.5 148.336 449.932)" fill="#5ED6A4" fill-opacity="0.38"/>
<rect width="130" height="130" rx="27" transform="matrix(0.866025 0.5 -0.866025 0.5 148.34 423.203)" fill="#5ED6A4"/>
<path fill-rule="evenodd" clip-rule="evenodd" d="M274.945 614.109L274.945 774.146H472.251V614.524C471.345 618.558 468.208 622.457 462.841 625.556L397.023 663.556C384.109 671.011 363.172 671.011 350.258 663.556L284.44 625.556C278.889 622.351 275.724 618.29 274.945 614.109Z" fill="url(#paint1_linear_181_798)"/>
<rect width="130" height="130" rx="27" transform="matrix(0.866025 0.5 -0.866025 0.5 373.5 573.951)" fill="#5ED6A4" fill-opacity="0.38"/>
<rect width="130" height="130" rx="27" transform="matrix(0.866025 0.5 -0.866025 0.5 373.504 547.223)" fill="#5ED6A4"/>
</g>
<defs>
<linearGradient id="paint0_linear_181_798" x1="148.434" y1="213.834" x2="148.434" y2="620.636" gradientUnits="userSpaceOnUse">
<stop offset="0.706391" stop-color="#5ED6A4" stop-opacity="0.66"/>
<stop offset="1" stop-color="#5ED6A4" stop-opacity="0"/>
</linearGradient>
<linearGradient id="paint1_linear_181_798" x1="373.598" y1="337.853" x2="373.598" y2="744.655" gradientUnits="userSpaceOnUse">
<stop offset="0.706391" stop-color="#5ED6A4" stop-opacity="0.66"/>
<stop offset="1" stop-color="#5ED6A4" stop-opacity="0"/>
</linearGradient>
</defs>
</svg>
