<svg width="37" height="37" viewBox="0 0 37 37" fill="none" xmlns="http://www.w3.org/2000/svg">
<g clip-path="url(#clip0_442_156)">
<path d="M18.4414 34.3037C14.2642 34.3037 10.2582 32.6443 7.30447 29.6906C4.35078 26.7369 2.69141 22.7309 2.69141 18.5537C2.69141 14.3766 4.35078 10.3705 7.30447 7.41678C10.2582 4.46308 14.2642 2.80371 18.4414 2.80371C22.6186 2.80371 26.6246 4.46308 29.5783 7.41678C32.532 10.3705 34.1914 14.3766 34.1914 18.5537C34.1914 22.7309 32.532 26.7369 29.5783 29.6906C26.6246 32.6443 22.6186 34.3037 18.4414 34.3037ZM18.4414 36.5537C23.2153 36.5537 27.7937 34.6573 31.1693 31.2816C34.545 27.906 36.4414 23.3276 36.4414 18.5537C36.4414 13.7798 34.545 9.20144 31.1693 5.82579C27.7937 2.45013 23.2153 0.553711 18.4414 0.553711C13.6675 0.553711 9.08914 2.45013 5.71348 5.82579C2.33783 9.20144 0.441406 13.7798 0.441406 18.5537C0.441406 23.3276 2.33783 27.906 5.71348 31.2816C9.08914 34.6573 13.6675 36.5537 18.4414 36.5537Z" fill="#0C223D" fill-opacity="0.5"/>
<path d="M12.2661 13.5722C12.263 13.6449 12.2748 13.7174 12.3008 13.7853C12.3268 13.8532 12.3664 13.9151 12.4172 13.9672C12.468 14.0192 12.5289 14.0604 12.5962 14.088C12.6634 14.1157 12.7356 14.1293 12.8084 14.128H14.6646C14.9751 14.128 15.2226 13.8737 15.2631 13.5655C15.4656 12.0895 16.4781 11.014 18.2826 11.014C19.8261 11.014 21.2391 11.7857 21.2391 13.642C21.2391 15.0707 20.3976 15.7277 19.0679 16.7267C17.5536 17.827 16.3544 19.1117 16.4399 21.1975L16.4466 21.6857C16.449 21.8333 16.5093 21.9741 16.6145 22.0777C16.7197 22.1812 16.8615 22.2392 17.0091 22.2392H18.8339C18.983 22.2392 19.1261 22.1799 19.2316 22.0745C19.3371 21.969 19.3964 21.8259 19.3964 21.6767V21.4405C19.3964 19.825 20.0106 19.3547 21.6689 18.097C23.0391 17.0552 24.4679 15.8987 24.4679 13.471C24.4679 10.0712 21.5969 8.42871 18.4536 8.42871C15.6029 8.42871 12.4799 9.75621 12.2661 13.5722ZM15.7694 26.539C15.7694 27.7382 16.7256 28.6247 18.0419 28.6247C19.4121 28.6247 20.3549 27.7382 20.3549 26.539C20.3549 25.297 19.4099 24.424 18.0396 24.424C16.7256 24.424 15.7694 25.297 15.7694 26.539Z" fill="#0C223D" fill-opacity="0.5"/>
</g>
<defs>
<clipPath id="clip0_442_156">
<rect width="36" height="36" fill="white" transform="translate(0.441406 0.553711)"/>
</clipPath>
</defs>
</svg>
