<svg width="35" height="32" viewBox="0 0 35 32" fill="none" xmlns="http://www.w3.org/2000/svg">
<path d="M31.2506 31.7371C32.1623 31.7371 33.0366 31.3751 33.6813 30.7306C34.326 30.0862 34.6881 29.2121 34.6881 28.3007V19.909C34.6881 18.9977 34.326 18.1236 33.6813 17.4791C33.0366 16.8347 32.1623 16.4726 31.2506 16.4726H26.4794C26.4794 15.2653 26.5504 14.058 26.6925 12.8507C26.9056 11.5724 27.2608 10.4361 27.7581 9.44179C28.2554 8.44753 28.8959 7.66517 29.6797 7.09473C30.4589 6.45556 31.4534 6.13598 32.6634 6.13598V0.80957C30.6743 0.80957 28.9326 1.23568 27.4384 2.08791C25.9546 2.92939 24.6798 4.09461 23.7087 5.49681C22.7312 7.04026 22.0113 8.73247 21.5775 10.5071C21.1388 12.4649 20.9243 14.4663 20.9381 16.4726V28.3007C20.9381 29.2121 21.3003 30.0862 21.9449 30.7306C22.5896 31.3751 23.4639 31.7371 24.3756 31.7371H31.2506ZM10.6256 31.7371C11.5373 31.7371 12.4116 31.3751 13.0563 30.7306C13.701 30.0862 14.0631 29.2121 14.0631 28.3007V19.909C14.0631 18.9977 13.701 18.1236 13.0563 17.4791C12.4116 16.8347 11.5373 16.4726 10.6256 16.4726H5.85438C5.85438 15.2653 5.92542 14.058 6.0675 12.8507C6.28292 11.5724 6.63813 10.4361 7.13313 9.44179C7.63042 8.44753 8.27094 7.66517 9.05469 7.09473C9.83386 6.45556 10.8284 6.13598 12.0384 6.13598V0.80957C10.0493 0.80957 8.3076 1.23568 6.81344 2.08791C5.32961 2.92939 4.05475 4.09461 3.08375 5.49681C2.10616 7.04026 1.38634 8.73247 0.952502 10.5071C0.51382 12.4649 0.299316 14.4663 0.313127 16.4726V28.3007C0.313127 29.2121 0.675291 30.0862 1.31995 30.7306C1.9646 31.3751 2.83894 31.7371 3.75063 31.7371H10.6256Z" fill="#5ED6A4"/>
</svg>
