<svg width="35" height="32" viewBox="0 0 35 32" fill="none" xmlns="http://www.w3.org/2000/svg">
<path d="M3.74937 0.227743C2.83769 0.227743 1.96335 0.58979 1.3187 1.23424C0.674038 1.87869 0.311874 2.75275 0.311874 3.66413V12.0558C0.311874 12.9672 0.674038 13.8413 1.3187 14.4857C1.96335 15.1301 2.83769 15.4922 3.74937 15.4922H8.52062C8.52062 16.6995 8.44958 17.9068 8.3075 19.1142C8.09437 20.3925 7.73916 21.5288 7.24187 22.5231C6.74458 23.5173 6.10406 24.2997 5.32031 24.8701C4.54114 25.5093 3.54656 25.8289 2.33656 25.8289V31.1553C4.32573 31.1553 6.0674 30.7292 7.56156 29.8769C9.04539 29.0354 10.3202 27.8702 11.2913 26.468C12.2688 24.9246 12.9887 23.2324 13.4225 21.4578C13.8612 19.4999 14.0757 17.4985 14.0619 15.4922V3.66413C14.0619 2.75275 13.6997 1.87869 13.0551 1.23424C12.4104 0.58979 11.5361 0.227743 10.6244 0.227743H3.74937ZM24.3744 0.227743C23.4627 0.227743 22.5884 0.58979 21.9437 1.23424C21.299 1.87869 20.9369 2.75275 20.9369 3.66413V12.0558C20.9369 12.9672 21.299 13.8413 21.9437 14.4857C22.5884 15.1301 23.4627 15.4922 24.3744 15.4922H29.1456C29.1456 16.6995 29.0746 17.9068 28.9325 19.1142C28.7171 20.3925 28.3619 21.5288 27.8669 22.5231C27.3696 23.5173 26.7291 24.2997 25.9453 24.8701C25.1661 25.5093 24.1716 25.8289 22.9616 25.8289V31.1553C24.9507 31.1553 26.6924 30.7292 28.1866 29.8769C29.6704 29.0354 30.9452 27.8702 31.9162 26.468C32.8938 24.9246 33.6137 23.2324 34.0475 21.4578C34.4862 19.4999 34.7007 17.4985 34.6869 15.4922V3.66413C34.6869 2.75275 34.3247 1.87869 33.6801 1.23424C33.0354 0.58979 32.1611 0.227743 31.2494 0.227743H24.3744Z" fill="#5ED6A4"/>
</svg>
