<svg width="109" height="140" viewBox="0 0 109 140" fill="none" xmlns="http://www.w3.org/2000/svg">
<path d="M11.3088 136.029V138.797C10.6058 138.943 9.91739 139.053 9.24368 139.126C8.56996 139.2 7.77175 139.236 6.84905 139.236C5.66272 139.236 4.65947 139.134 3.83929 138.929C3.03376 138.724 2.38201 138.365 1.88405 137.852C1.40073 137.325 1.04923 136.585 0.829536 135.633C0.609845 134.681 0.5 133.458 0.5 131.964C0.5 130.529 0.609845 129.35 0.829536 128.427C1.04923 127.505 1.40073 126.794 1.88405 126.296C2.38201 125.784 3.03376 125.432 3.83929 125.242C4.65947 125.037 5.66272 124.934 6.84905 124.934C7.77175 124.934 8.56996 124.971 9.24368 125.044C9.91739 125.103 10.6058 125.213 11.3088 125.374V128.23L11.2429 128.274C10.6277 128.127 10.0346 128.025 9.46337 127.966C8.89217 127.893 8.18916 127.856 7.35434 127.856C6.68062 127.856 6.12407 127.908 5.68469 128.01C5.25996 128.098 4.9231 128.281 4.67412 128.559C4.42513 128.838 4.24938 129.248 4.14686 129.79C4.05898 130.331 4.01505 131.056 4.01505 131.964C4.01505 132.916 4.05898 133.685 4.14686 134.271C4.24938 134.842 4.42513 135.274 4.67412 135.567C4.9231 135.86 5.25996 136.058 5.68469 136.161C6.12407 136.263 6.68062 136.314 7.35434 136.314C8.17452 136.314 8.8702 136.292 9.4414 136.248C10.0272 136.19 10.6131 136.087 11.1989 135.941L11.3088 136.029Z" fill="#0C223D"/>
<path d="M18.2211 139.038H14.7061V125.132H18.2211V130.449H23.4937V125.132H27.0087V139.038H23.4937V133.305H18.2211V139.038Z" fill="#0C223D"/>
<path d="M34.691 139.038H31.176V125.132H37.8106C39.5535 125.132 40.8204 125.528 41.6113 126.318C42.4168 127.095 42.8196 128.244 42.8196 129.768C42.8196 130.91 42.534 131.891 41.9628 132.711C41.3916 133.517 40.6373 134.022 39.7 134.227L39.678 134.293C40.0442 134.527 40.4469 134.916 40.8863 135.458C41.3257 135.999 41.7577 136.593 42.1825 137.237C42.6219 137.867 43.01 138.46 43.3468 139.017V139.038H39.2606L36.8879 135.523C36.6829 135.216 36.5145 134.996 36.3826 134.864C36.2655 134.733 36.119 134.652 35.9433 134.623C35.7822 134.593 35.5185 134.579 35.1524 134.579H34.691V139.038ZM37.2394 127.988H34.691V131.723H37.2394C37.9717 131.723 38.477 131.576 38.7553 131.283C39.0482 130.99 39.1947 130.514 39.1947 129.855C39.1947 129.196 39.0482 128.72 38.7553 128.427C38.477 128.135 37.9717 127.988 37.2394 127.988Z" fill="#0C223D"/>
<path d="M46.4342 132.074C46.4342 130.302 46.6319 128.896 47.0273 127.856C47.4374 126.816 48.1331 126.069 49.1144 125.615C50.1103 125.161 51.4944 124.934 53.2665 124.934C54.5993 124.934 55.7051 125.059 56.5839 125.308C57.4626 125.557 58.1583 125.96 58.6709 126.516C59.1835 127.073 59.5424 127.812 59.7474 128.735C59.9671 129.643 60.0769 130.756 60.0769 132.074C60.0769 133.407 59.9671 134.535 59.7474 135.458C59.5424 136.366 59.1835 137.098 58.6709 137.654C58.1583 138.211 57.4626 138.614 56.5839 138.863C55.7051 139.112 54.5993 139.236 53.2665 139.236C51.9338 139.236 50.828 139.112 49.9492 138.863C49.0704 138.614 48.3748 138.211 47.8622 137.654C47.3495 137.098 46.9834 136.366 46.7637 135.458C46.544 134.535 46.4342 133.407 46.4342 132.074ZM53.2665 136.161C54.2039 136.161 54.9069 136.043 55.3756 135.809C55.8442 135.575 56.1591 135.165 56.3202 134.579C56.4813 133.978 56.5619 133.143 56.5619 132.074C56.5619 131.02 56.4813 130.2 56.3202 129.614C56.1591 129.028 55.8442 128.618 55.3756 128.383C54.9069 128.134 54.2039 128.01 53.2665 128.01C52.3438 128.01 51.6408 128.134 51.1575 128.383C50.6888 128.618 50.3666 129.028 50.1909 129.614C50.0298 130.2 49.9492 131.02 49.9492 132.074C49.9492 133.143 50.0298 133.978 50.1909 134.579C50.3666 135.165 50.6888 135.575 51.1575 135.809C51.6408 136.043 52.3438 136.161 53.2665 136.161Z" fill="#0C223D"/>
<path d="M72.8228 125.132H76.3378V139.038H72.8447L68.8903 133.151C68.5827 132.682 68.3264 132.287 68.1214 131.964C67.9163 131.642 67.7259 131.32 67.5502 130.998C67.3744 130.676 67.1767 130.295 66.957 129.855L66.8911 129.943C67.0962 130.646 67.2207 131.305 67.2646 131.921C67.3085 132.521 67.3305 133.107 67.3305 133.678V139.038H63.8154V125.132H67.3085L71.263 131.02C71.5705 131.474 71.8268 131.869 72.0319 132.206C72.2369 132.528 72.4273 132.851 72.6031 133.173C72.7788 133.495 72.9765 133.876 73.1962 134.315L73.2621 134.227C73.1157 133.612 73.0058 133.019 72.9326 132.448C72.8594 131.862 72.8228 131.283 72.8228 130.712V125.132Z" fill="#0C223D"/>
<path d="M80.082 132.074C80.082 130.302 80.2797 128.896 80.6751 127.856C81.0852 126.816 81.7809 126.069 82.7622 125.615C83.7581 125.161 85.1422 124.934 86.9144 124.934C88.2471 124.934 89.3529 125.059 90.2317 125.308C91.1104 125.557 91.8061 125.96 92.3187 126.516C92.8313 127.073 93.1902 127.812 93.3952 128.735C93.6149 129.643 93.7248 130.756 93.7248 132.074C93.7248 133.407 93.6149 134.535 93.3952 135.458C93.1902 136.366 92.8313 137.098 92.3187 137.654C91.8061 138.211 91.1104 138.614 90.2317 138.863C89.3529 139.112 88.2471 139.236 86.9144 139.236C85.5816 139.236 84.4758 139.112 83.597 138.863C82.7183 138.614 82.0226 138.211 81.51 137.654C80.9974 137.098 80.6312 136.366 80.4115 135.458C80.1918 134.535 80.082 133.407 80.082 132.074ZM86.9144 136.161C87.8517 136.161 88.5547 136.043 89.0234 135.809C89.4921 135.575 89.8069 135.165 89.968 134.579C90.1292 133.978 90.2097 133.143 90.2097 132.074C90.2097 131.02 90.1292 130.2 89.968 129.614C89.8069 129.028 89.4921 128.618 89.0234 128.383C88.5547 128.134 87.8517 128.01 86.9144 128.01C85.9917 128.01 85.2886 128.134 84.8053 128.383C84.3366 128.618 84.0144 129.028 83.8387 129.614C83.6776 130.2 83.597 131.02 83.597 132.074C83.597 133.143 83.6776 133.978 83.8387 134.579C84.0144 135.165 84.3366 135.575 84.8053 135.809C85.2886 136.043 85.9917 136.161 86.9144 136.161Z" fill="#0C223D"/>
<path d="M97.1118 135.458C97.7562 135.677 98.4592 135.853 99.2208 135.985C99.997 136.102 100.766 136.161 101.528 136.161C102.567 136.161 103.336 136.117 103.834 136.029C104.347 135.926 104.684 135.772 104.845 135.567C105.006 135.362 105.087 135.099 105.087 134.776C105.087 134.498 105.028 134.279 104.911 134.117C104.794 133.956 104.567 133.832 104.23 133.744C103.893 133.641 103.395 133.561 102.736 133.502L101.286 133.37C100.202 133.268 99.3453 133.041 98.7155 132.689C98.1004 132.338 97.661 131.869 97.3974 131.283C97.1484 130.683 97.0239 129.965 97.0239 129.13C97.0239 128.135 97.2216 127.329 97.6171 126.714C98.0271 126.099 98.6862 125.652 99.5943 125.374C100.502 125.081 101.711 124.934 103.219 124.934C105.182 124.934 106.8 125.191 108.074 125.703L108.008 128.691L107.942 128.779C106.493 128.266 104.977 128.01 103.395 128.01C102.633 128.01 102.047 128.054 101.637 128.142C101.227 128.215 100.942 128.34 100.781 128.515C100.619 128.691 100.539 128.94 100.539 129.262C100.539 129.584 100.59 129.826 100.693 129.987C100.81 130.148 101.037 130.273 101.374 130.361C101.711 130.434 102.201 130.507 102.846 130.58L104.23 130.734C105.401 130.866 106.302 131.1 106.932 131.437C107.562 131.774 107.994 132.228 108.228 132.799C108.477 133.356 108.602 134.037 108.602 134.842C108.602 135.824 108.389 136.644 107.964 137.303C107.554 137.947 106.881 138.431 105.943 138.753C105.006 139.075 103.754 139.236 102.187 139.236C101.161 139.236 100.239 139.185 99.4185 139.082C98.5983 138.965 97.8001 138.811 97.0239 138.621V135.523L97.1118 135.458Z" fill="#0C223D"/>
<path d="M2.6969 21.0514C2.6969 9.88885 11.7459 0.839844 22.9084 0.839844H87.058C98.2205 0.839844 107.27 9.88885 107.27 21.0514V85.2009C107.27 96.3635 98.2205 105.412 87.058 105.412H22.9084C11.7459 105.412 2.6969 96.3635 2.6969 85.2009V21.0514Z" fill="#0C223D"/>
<path d="M54.1769 19.6343C54.4389 19.1804 55.0941 19.1804 55.3562 19.6343L63.7292 34.1368C63.9913 34.5907 63.6637 35.1581 63.1395 35.1581H46.3935C45.8693 35.1581 45.5418 34.5907 45.8038 34.1368L54.1769 19.6343Z" fill="#5ED6A4"/>
<path fill-rule="evenodd" clip-rule="evenodd" d="M52.2563 53.8135C52.378 53.6028 52.378 53.3433 52.2563 53.1326L43.4902 37.9492C43.2281 37.4953 42.573 37.4953 42.3109 37.9492L33.5448 53.1326C33.4231 53.3433 33.4231 53.6028 33.5448 53.8135L42.3109 68.9969C42.573 69.4508 43.2281 69.4508 43.4902 68.9969L52.2563 53.8135Z" fill="#5ED6A4"/>
<path fill-rule="evenodd" clip-rule="evenodd" d="M75.746 53.8135C75.8677 53.6028 75.8677 53.3433 75.746 53.1326L66.9799 37.9492C66.7178 37.4953 66.0627 37.4953 65.8006 37.9492L57.0345 53.1326C56.9129 53.3433 56.9129 53.6028 57.0345 53.8135L65.8006 68.9969C66.0627 69.4508 66.7178 69.4508 66.9799 68.9969L75.746 53.8135Z" fill="#5ED6A4"/>
<path d="M54.1769 87.2445C54.4389 87.6984 55.0941 87.6984 55.3562 87.2445L63.7292 72.742C63.9913 72.2881 63.6637 71.7207 63.1395 71.7207H46.3935C45.8693 71.7207 45.5418 72.2881 45.8038 72.742L54.1769 87.2445Z" fill="#5ED6A4"/>
<path fill-rule="evenodd" clip-rule="evenodd" d="M54.4742 53.1332C54.5958 53.3439 54.5958 53.6034 54.4742 53.8141L45.7867 68.8613C45.5246 69.3152 45.8522 69.8826 46.3763 69.8826H63.1224C63.6465 69.8826 63.9741 69.3152 63.712 68.8613L55.0245 53.8141C54.9029 53.6034 54.9029 53.3439 55.0245 53.1332L63.712 38.086C63.9741 37.6321 63.6465 37.0647 63.1224 37.0647H46.3763C45.8522 37.0647 45.5246 37.6321 45.7867 38.086L54.4742 53.1332Z" fill="#5ED6A4"/>
</svg>
